<svg width="21" height="21" viewBox="0 0 21 21" fill="none" xmlns="http://www.w3.org/2000/svg">
  <g clip-path="url(#clip0_60_810)">
    <path
      d="M10.5 21C16.299 21 21 16.299 21 10.5C21 4.70101 16.299 0 10.5 0C4.70101 0 0 4.70101 0 10.5C0 16.299 4.70101 21 10.5 21Z"
      fill="#4E76E5" />
    <path
      d="M14.1848 9.827L14.6308 10.273C14.6757 10.3176 14.7113 10.3707 14.7356 10.4291C14.7599 10.4875 14.7725 10.5502 14.7725 10.6135C14.7725 10.6768 14.7599 10.7395 14.7356 10.7979C14.7113 10.8563 14.6757 10.9094 14.6308 10.954L10.7308 14.854C10.6862 14.8989 10.6331 14.9345 10.5747 14.9588C10.5162 14.9832 10.4536 14.9957 10.3903 14.9957C10.327 14.9957 10.2643 14.9832 10.2059 14.9588C10.1474 14.9345 10.0944 14.8989 10.0498 14.854L6.14978 10.954C6.10488 10.9094 6.06925 10.8563 6.04493 10.7979C6.02062 10.7395 6.0081 10.6768 6.0081 10.6135C6.0081 10.5502 6.02062 10.4875 6.04493 10.4291C6.06925 10.3707 6.10488 10.3176 6.14978 10.273L6.59578 9.827C6.64126 9.78177 6.6953 9.74606 6.75474 9.72194C6.81417 9.69782 6.87782 9.68578 6.94196 9.68653C7.0061 9.68727 7.06945 9.70078 7.12831 9.72628C7.18717 9.75177 7.24036 9.78873 7.28478 9.835L9.59078 12.255V6.482C9.5905 6.35546 9.6401 6.23391 9.72883 6.14369C9.81755 6.05347 9.93825 6.00184 10.0648 6H10.7078C10.7711 5.99987 10.8339 6.01225 10.8924 6.03642C10.9509 6.0606 11.0041 6.0961 11.0489 6.14088C11.0937 6.18567 11.1292 6.23885 11.1534 6.29739C11.1775 6.35593 11.1899 6.41867 11.1898 6.482V12.255L13.4958 9.835C13.5399 9.78824 13.593 9.75084 13.6519 9.72503C13.7108 9.69922 13.7743 9.68554 13.8386 9.68479C13.9029 9.68405 13.9667 9.69625 14.0261 9.72069C14.0856 9.74512 14.1396 9.78127 14.1848 9.827Z"
      fill="white" />
  </g>
  <defs>
    <clipPath id="clip0_60_810">
      <rect width="21" height="21" fill="white" />
    </clipPath>
  </defs>
</svg>