<svg width="21" height="21" viewBox="0 0 21 21" fill="none" xmlns="http://www.w3.org/2000/svg">
<g clip-path="url(#clip0_778_3459)">
<mask id="mask0_778_3459" style="mask-type:luminance" maskUnits="userSpaceOnUse" x="0" y="0" width="21" height="21">
<path d="M21 0H0V21H21V0Z" fill="white"/>
</mask>
<g mask="url(#mask0_778_3459)">
<mask id="mask1_778_3459" style="mask-type:luminance" maskUnits="userSpaceOnUse" x="0" y="0" width="21" height="21">
<path d="M21 0H0V21H21V0Z" fill="white"/>
</mask>
<g mask="url(#mask1_778_3459)">
<path d="M10.5 21C16.299 21 21 16.299 21 10.5C21 4.70101 16.299 0 10.5 0C4.70101 0 0 4.70101 0 10.5C0 16.299 4.70101 21 10.5 21Z" fill="#4E76E5"/>
<path d="M5.46939 8.12816L5.11317 7.77195C5.07731 7.73633 5.04888 7.69392 5.02947 7.64728C5.01006 7.60063 5 7.55055 5 7.5C5 7.44944 5.01006 7.39936 5.02947 7.35272C5.04888 7.30608 5.07731 7.26367 5.11317 7.22805L8.22805 4.11317C8.26367 4.07731 8.30608 4.04888 8.35272 4.02947C8.39945 4.00998 8.44944 4 8.5 4C8.55056 4 8.60063 4.00998 8.64728 4.02947C8.694 4.04888 8.73633 4.07731 8.77195 4.11317L11.8868 7.22805C11.9227 7.26367 11.9512 7.30608 11.9706 7.35272C11.99 7.39936 12 7.44944 12 7.5C12 7.55055 11.99 7.60063 11.9706 7.64728C11.9512 7.69392 11.9227 7.73633 11.8868 7.77195L11.5306 8.12816C11.4943 8.16429 11.4511 8.19281 11.4037 8.21207C11.3562 8.23134 11.3054 8.24095 11.2541 8.24036C11.2029 8.23976 11.1523 8.22897 11.1053 8.20861C11.0583 8.18825 11.0158 8.15873 10.9803 8.12177L9.1386 6.18896V10.7997C9.1388 10.9008 9.0992 10.9979 9.0283 11.07C8.95745 11.142 8.86105 11.1832 8.75997 11.1847H8.24642C8.19586 11.1848 8.1457 11.1749 8.09898 11.1556C8.05226 11.1363 8.00977 11.108 7.97399 11.0722C7.93821 11.0364 7.90985 10.9939 7.89052 10.9472C7.87127 10.9004 7.86137 10.8503 7.86145 10.7997V6.18896L6.01968 8.12177C5.98446 8.15912 5.94205 8.18899 5.89501 8.20961C5.84796 8.23022 5.79725 8.24115 5.74589 8.24175C5.69454 8.24234 5.64358 8.23259 5.59614 8.21307C5.54862 8.19356 5.50549 8.16469 5.46939 8.12816Z" fill="white"/>
<path d="M15.5306 13.0566L15.8868 13.4128C15.9227 13.4484 15.9511 13.4908 15.9705 13.5375C15.9899 13.5841 16 13.6342 16 13.6847C16 13.7353 15.9899 13.7854 15.9705 13.832C15.9511 13.8787 15.9227 13.9211 15.8868 13.9567L12.772 17.0716C12.7363 17.1074 12.6939 17.1359 12.6473 17.1553C12.6006 17.1748 12.5506 17.1847 12.5 17.1847C12.4494 17.1847 12.3994 17.1748 12.3527 17.1553C12.306 17.1359 12.2637 17.1074 12.228 17.0716L9.11316 13.9567C9.0773 13.9211 9.04884 13.8787 9.02942 13.832C9.01 13.7854 9 13.7353 9 13.6847C9 13.6342 9.01 13.5841 9.02942 13.5375C9.04884 13.4908 9.0773 13.4484 9.11316 13.4128L9.46937 13.0566C9.5057 13.0204 9.54886 12.9919 9.59633 12.9727C9.6438 12.9534 9.69463 12.9438 9.74586 12.9444C9.79709 12.945 9.84769 12.9558 9.8947 12.9761C9.94171 12.9965 9.98419 13.026 10.0197 13.063L11.8614 14.9958V10.385C11.8612 10.2839 11.9008 10.1868 11.9717 10.1148C12.0426 10.0427 12.139 10.0015 12.24 10H12.7536C12.8041 9.9999 12.8543 10.0098 12.901 10.0291C12.9477 10.0484 12.9902 10.0768 13.026 10.1125C13.0618 10.1483 13.0901 10.1908 13.1095 10.2375C13.1287 10.2843 13.1386 10.3344 13.1385 10.385V14.9958L14.9803 13.063C15.0155 13.0256 15.058 12.9957 15.105 12.9751C15.152 12.9545 15.2028 12.9436 15.2541 12.943C15.3055 12.9424 15.3564 12.9521 15.4039 12.9717C15.4514 12.9912 15.4945 13.02 15.5306 13.0566Z" fill="white"/>
</g>
</g>
</g>
<defs>
<clipPath id="clip0_778_3459">
<rect width="21" height="21" fill="white"/>
</clipPath>
</defs>
</svg>
