<svg width="180" height="180" viewBox="0 0 180 180" fill="none" xmlns="http://www.w3.org/2000/svg">
<g clip-path="url(#clip0_826_715)">
<path d="M69.6349 163.556C68.5746 164.574 67.2527 165.349 65.735 165.764L51.7952 169.576C46.5312 171.016 40.953 169.507 37.238 165.638L29.9473 158.044C26.2324 154.175 24.9513 148.54 26.604 143.338L31.1138 128.518L13.0748 133.181C8.2243 134.507 3.21664 131.65 1.8902 126.8C0.56375 121.949 3.42055 116.942 8.27105 115.615L22.2109 111.803C27.4755 110.364 33.0537 111.873 36.7684 115.741L44.0591 123.335C47.774 127.204 49.0551 132.839 47.4028 138.04L42.1863 152.999L60.9316 148.199C65.7821 146.872 70.7898 149.729 72.1162 154.58C73.0278 157.912 71.9636 161.32 69.6349 163.556Z" fill="#8BB6EF"/>
<path d="M31.114 128.518L30.6391 130.079L26.6038 143.339C25.1835 147.81 25.932 152.6 28.5286 156.314C32.6475 155.372 38.1256 154.18 42.1865 152.999L42.8552 151.082L47.403 138.04C48.8904 133.358 47.9992 128.324 45.0964 124.544C40.9448 125.777 35.2828 127.349 31.114 128.518Z" fill="#8388EF"/>
<path d="M129.245 165.607C130.608 166.156 132.124 166.382 133.687 166.2L148.042 164.533C153.463 163.904 158.075 160.422 160.077 155.446L164.006 145.68C166.009 140.703 165.094 134.998 161.619 130.789L151.903 118.723L170.378 116.315C175.373 115.735 178.952 111.216 178.373 106.22C177.793 101.225 173.273 97.6465 168.278 98.2259L153.923 99.8926C148.501 100.522 143.889 104.005 141.888 108.98L137.958 118.746C135.956 123.722 136.871 129.428 140.346 133.637L150.769 145.567L131.586 148.111C126.591 148.691 123.012 153.21 123.592 158.206C123.991 161.638 126.25 164.402 129.245 165.607Z" fill="#A183E2"/>
<path d="M151.902 118.723L152.926 119.994L161.619 130.789C164.605 134.406 165.699 139.129 164.676 143.545C160.503 144.209 154.976 145.147 150.768 145.568L149.432 144.038L140.345 133.637C137.217 129.848 136.165 124.846 137.447 120.255C141.759 119.85 147.598 119.194 151.902 118.723Z" fill="#9762E2"/>
<path d="M88.6749 121.662C90.0038 121.034 91.1991 120.075 92.1276 118.805L100.657 107.138C103.878 102.733 104.456 96.9827 102.164 92.1329L97.6672 82.6151C95.3757 77.7653 90.567 74.5604 85.1178 74.2511L69.6631 73.1841L80.4476 57.9906C83.4155 53.9311 82.5303 48.2344 78.4712 45.2665C74.4117 42.2986 68.715 43.1838 65.7467 47.243L57.2178 58.9096C53.9968 63.3157 53.4192 69.0655 55.7103 73.9146L60.2071 83.4325C62.4986 88.2819 67.3069 91.4868 72.7558 91.7965L88.5912 92.2528L77.4267 108.057C74.4588 112.116 75.344 117.813 79.4032 120.781C82.1932 122.821 85.7562 123.041 88.6749 121.662Z" fill="#FFA585"/>
<path d="M68.8042 74.4711L69.663 73.1841L85.1177 74.2511C89.8012 74.5168 94.0098 76.9233 96.5555 80.6731C94.4679 83.797 92.2601 86.838 90.0034 89.8453C89.443 90.592 88.968 91.3989 88.5912 92.2528L72.7557 91.7965C67.85 91.5177 63.4646 88.8915 60.9668 84.8324C63.5993 81.393 66.2262 77.9502 68.8042 74.4711Z" fill="#EF7C85"/>
<path d="M23.8528 94.0736L16.2186 90.2563C13.9412 89.1176 13.018 86.348 14.1567 84.0702L17.9739 76.436C19.1126 74.1586 21.8823 73.2354 24.1597 74.3741L31.7938 78.1914C34.0713 79.3301 34.9945 82.0997 33.8558 84.3775L30.0385 92.0117C28.8998 94.2891 26.1305 95.2123 23.8528 94.0736Z" fill="#FFE266"/>
<path d="M87.8141 162.748L96.0213 160.403C98.4699 159.704 101.022 161.121 101.721 163.57L104.066 171.777C104.765 174.226 103.348 176.778 100.899 177.477L92.6917 179.822C90.243 180.521 87.6914 179.104 86.9918 176.655L84.6472 168.448C83.9479 165.999 85.3658 163.447 87.8141 162.748Z" fill="#EF8BBD"/>
<path d="M146.344 77.1026L135.567 83.3245C132.352 85.1808 128.241 84.0794 126.385 80.8643L120.163 70.0875C118.307 66.8725 119.409 62.7613 122.624 60.9054L133.4 54.6835C136.615 52.8272 140.726 53.9287 142.583 57.1437L148.804 67.9201C150.661 71.1355 149.559 75.2463 146.344 77.1026Z" fill="#78EAC4"/>
<path d="M31.9273 17.3609L34.8969 25.7115C35.0242 26.0691 35.2759 26.3524 35.5934 26.4955L43.0124 29.8382C44.0604 30.3103 44.0604 31.9806 43.0124 32.4527L35.5934 35.7954C35.2759 35.9385 35.0238 36.2218 34.8969 36.5794L31.9273 44.9297C31.5079 46.1095 30.0239 46.1095 29.6045 44.9297L26.6345 36.579C26.5072 36.2215 26.2555 35.9381 25.9381 35.795L18.5187 32.4527C17.4703 31.9806 17.4703 30.3107 18.5187 29.8382L25.9377 26.4955C26.2555 26.3524 26.5072 26.0691 26.6342 25.7115L29.6042 17.3609C30.0239 16.1814 31.5075 16.1814 31.9273 17.3609Z" fill="#CAB4EF"/>
<path d="M142.799 0.656371L145.001 6.85055C145.096 7.11563 145.282 7.32586 145.518 7.43203L151.022 9.9116C151.799 10.2621 151.799 11.5007 151.022 11.8512L145.518 14.3307C145.283 14.4369 145.096 14.6472 145.001 14.9122L142.799 21.1064C142.487 21.9814 141.387 21.9814 141.076 21.1064L138.873 14.9122C138.778 14.6472 138.592 14.4369 138.356 14.3307L132.853 11.8512C132.075 11.5007 132.075 10.2621 132.853 9.9116L138.356 7.43203C138.591 7.32586 138.778 7.11563 138.873 6.85055L141.076 0.656371C141.387 -0.218668 142.487 -0.218668 142.799 0.656371Z" fill="#FFC7B6"/>
<path d="M112.543 38.7875C115.852 37.4159 117.423 33.6213 116.051 30.3122C114.679 27.003 110.885 25.4324 107.576 26.804C104.267 28.1757 102.696 31.9702 104.068 35.2794C105.439 38.5885 109.234 40.1592 112.543 38.7875Z" fill="#8BB6EF"/>
<path d="M51.5259 16.476C53.0709 16.476 54.3233 15.2236 54.3233 13.6786C54.3233 12.1337 53.0709 10.8812 51.5259 10.8812C49.9809 10.8812 48.7285 12.1337 48.7285 13.6786C48.7285 15.2236 49.9809 16.476 51.5259 16.476Z" fill="#EF8BBD"/>
<path d="M166.932 59.227C168.477 59.227 169.73 57.9746 169.73 56.4296C169.73 54.8847 168.477 53.6323 166.932 53.6323C165.387 53.6323 164.135 54.8847 164.135 56.4296C164.135 57.9746 165.387 59.227 166.932 59.227Z" fill="#FFE266"/>
</g>
<defs>
<clipPath id="clip0_826_715">
<rect width="180" height="180" fill="white"/>
</clipPath>
</defs>
</svg>
