<svg width="24" height="24" viewBox="0 0 24 24" fill="none" xmlns="http://www.w3.org/2000/svg">
<g clip-path="url(#clip0_1431_292)">
<path d="M18 0H6C2.68629 0 0 2.68629 0 6V18C0 21.3137 2.68629 24 6 24H18C21.3137 24 24 21.3137 24 18V6C24 2.68629 21.3137 0 18 0Z" fill="#233A26"/>
<path d="M9.08984 15.292L12.0668 12.064L16.1628 7.64001" fill="#A7333E"/>
<path d="M9.08984 15.292L12.0668 12.064L16.1628 7.64001" stroke="#31DE52" stroke-width="2" stroke-linecap="round"/>
<path d="M8.88184 10.913V15.505V10.913Z" fill="#A7333E"/>
<path d="M8.88184 10.913V15.505" stroke="#31DE52" stroke-width="2" stroke-linecap="round"/>
<path d="M8.88184 15.505H13.7738H8.88184Z" fill="#A7333E"/>
<path d="M8.88184 15.505H13.7738" stroke="#31DE52" stroke-width="2" stroke-linecap="round"/>
</g>
<defs>
<clipPath id="clip0_1431_292">
<rect width="24" height="24" fill="white"/>
</clipPath>
</defs>
</svg>
