<?xml version="1.0" encoding="UTF-8"?>
<!--Generator: Apple Native CoreSVG 232.5-->
<!DOCTYPE svg
        PUBLIC "-//W3C//DTD SVG 1.1//EN"
        "http://www.w3.org/Graphics/SVG/1.1/DTD/svg11.dtd">
<svg version="1.1" xmlns="http://www.w3.org/2000/svg" xmlns:xlink="http://www.w3.org/1999/xlink" width="73.1836" height="73.0371">
    <g>
        <rect height="73.0371" opacity="0" width="73.1836" x="0" y="0"/>
        <path d="M2.60742 23.5547C4.27734 23.5547 5.18555 22.5879 5.18555 20.918L5.18555 11.6602C5.18555 7.44141 7.41211 5.27344 11.5137 5.27344L20.9473 5.27344C22.6172 5.27344 23.584 4.33594 23.584 2.69531C23.584 1.02539 22.6172 0.0878906 20.9473 0.0878906L11.3965 0.0878906C3.83789 0.0878906 0 3.86719 0 11.3672L0 20.918C0 22.5879 0.9375 23.5547 2.60742 23.5547ZM70.3418 23.5547C72.041 23.5547 72.9492 22.5879 72.9492 20.918L72.9492 11.3672C72.9492 3.92578 69.1406 0.0878906 61.5527 0.0878906L52.002 0.0878906C50.332 0.0878906 49.3652 1.02539 49.3652 2.69531C49.3652 4.33594 50.332 5.27344 52.002 5.27344L61.4355 5.27344C65.4492 5.27344 67.7637 7.44141 67.7637 11.6602L67.7637 20.918C67.7637 22.5879 68.7012 23.5547 70.3418 23.5547ZM11.3965 73.0371L20.9473 73.0371C22.6172 73.0371 23.584 72.0996 23.584 70.4297C23.584 68.7891 22.6172 67.8516 20.9473 67.8516L11.5137 67.8516C7.41211 67.8516 5.18555 65.6836 5.18555 61.4648L5.18555 52.207C5.18555 50.5371 4.24805 49.5703 2.60742 49.5703C0.908203 49.5703 0 50.5371 0 52.207L0 61.7578C0 69.2578 3.83789 73.0371 11.3965 73.0371ZM52.002 73.0371L61.5527 73.0371C69.1406 73.0371 72.9492 69.1992 72.9492 61.7578L72.9492 52.207C72.9492 50.5371 72.0117 49.5703 70.3418 49.5703C68.6719 49.5703 67.7637 50.5371 67.7637 52.207L67.7637 61.4648C67.7637 65.6836 65.4492 67.8516 61.4355 67.8516L52.002 67.8516C50.332 67.8516 49.3652 68.7891 49.3652 70.4297C49.3652 72.0996 50.332 73.0371 52.002 73.0371Z" fill="#000000" fill-opacity="0.85"/>
        <path d="M22.2949 33.75C23.9062 33.75 25.0195 32.6367 25.0195 30.9961L25.0195 25.8691C25.0195 24.2578 23.9062 23.1445 22.2949 23.1445C20.7129 23.1445 19.5996 24.2871 19.5996 25.8691L19.5996 30.9961C19.5996 32.6367 20.7129 33.75 22.2949 33.75ZM33.4277 42.5977C33.5156 42.5977 33.6328 42.5977 33.75 42.5977C37.3535 42.5977 39.2871 40.6641 39.2871 37.0312L39.2871 25.2246C39.2871 23.9062 38.4668 23.0859 37.1777 23.0859C35.8594 23.0859 35.0098 23.9062 35.0098 25.2246L35.0098 37.3828C35.0098 37.9395 34.6289 38.2617 34.1309 38.2617L32.8711 38.2617C31.6699 38.2617 30.7324 39.1406 30.7324 40.3418C30.7324 41.7773 31.6992 42.5977 33.4277 42.5977ZM50.4785 33.75C52.0312 33.75 53.1445 32.6367 53.1445 30.9961L53.1445 25.8691C53.1445 24.2871 52.0312 23.1445 50.4785 23.1445C48.8379 23.1445 47.7246 24.2578 47.7246 25.8691L47.7246 30.9961C47.7246 32.6367 48.8379 33.75 50.4785 33.75ZM36.2402 54.9902C40.6641 54.9902 45.1758 53.0859 48.3984 49.8633C48.7793 49.4824 49.0137 48.9258 49.0137 48.2227C49.0137 46.9922 48.0762 46.1426 46.875 46.1426C46.2598 46.1426 45.791 46.3477 45.1172 47.0508C43.0078 49.2188 39.6387 50.7422 36.2402 50.7422C32.9297 50.7422 29.5605 49.2773 27.334 47.0508C26.8066 46.4941 26.3379 46.1426 25.5469 46.1426C24.3457 46.1426 23.4082 46.9922 23.4082 48.2227C23.4082 48.8379 23.6426 49.3652 24.0527 49.834C27.0996 53.2031 31.7578 54.9902 36.2402 54.9902Z" fill="#000000" fill-opacity="0.85"/>
    </g>
</svg>
