<svg width="20" height="20" viewBox="0 0 20 20" fill="none" xmlns="http://www.w3.org/2000/svg">
<g clip-path="url(#clip0_9_58)">
<path d="M10 0C4.48578 0 0 4.48578 0 10C0 15.5142 4.48578 20 10 20C15.5142 20 20 15.5142 20 10C20 4.48578 15.5142 0 10 0Z" fill="#F44336"/>
<path d="M13.6827 12.5042C14.0085 12.8302 14.0085 13.3568 13.6827 13.6827C13.5202 13.8452 13.3069 13.9268 13.0934 13.9268C12.8801 13.9268 12.6668 13.8452 12.5042 13.6827L10.0001 11.1784L7.49601 13.6827C7.3335 13.8452 7.12019 13.9268 6.90687 13.9268C6.6934 13.9268 6.48008 13.8452 6.31757 13.6827C5.9918 13.3568 5.9918 12.8302 6.31757 12.5042L8.82185 10.0001L6.31757 7.49601C5.9918 7.17008 5.9918 6.6435 6.31757 6.31757C6.6435 5.9918 7.17008 5.9918 7.49601 6.31757L10.0001 8.82185L12.5042 6.31757C12.8302 5.9918 13.3568 5.9918 13.6827 6.31757C14.0085 6.6435 14.0085 7.17008 13.6827 7.49601L11.1784 10.0001L13.6827 12.5042Z" fill="#FAFAFA"/>
</g>
<defs>
<clipPath id="clip0_9_58">
<rect width="20" height="20" fill="white"/>
</clipPath>
</defs>
</svg>
