<svg width="20" height="20" viewBox="0 0 20 20" fill="none" xmlns="http://www.w3.org/2000/svg">
<g clip-path="url(#clip0_1222_913)">
<path d="M11.2503 20H8.75033C8.16699 20 7.50033 19.5 7.50033 18.5V16.75C7.50033 15.9166 7.08366 15.1666 6.41699 14.5833C4.91699 13.4166 4.16699 11.75 4.16699 9.91663C4.25033 6.74996 6.83366 4.24996 9.91699 4.16663C11.5003 4.16663 13.0003 4.74996 14.0837 5.83329C15.167 6.91663 15.8337 8.41663 15.8337 9.99996C15.8337 11.75 15.0837 13.4166 13.667 14.5C12.917 15.0833 12.5003 16 12.5003 16.8333V18.75C12.5003 19.4166 11.917 20 11.2503 20ZM10.0003 4.99996C7.33366 4.99996 5.08366 7.24996 5.00033 9.91663C5.00033 11.5 5.66699 13 6.91699 13.9166C7.83366 14.6666 8.33366 15.6666 8.33366 16.75V18.5C8.33366 18.6666 8.33366 19.1666 8.75033 19.1666H11.2503C11.5003 19.1666 11.667 19 11.667 18.75V16.8333C11.667 15.75 12.2503 14.5833 13.167 13.8333C14.3337 12.9166 15.0003 11.5 15.0003 9.99996C15.0003 8.66663 14.5003 7.41663 13.5003 6.41663C12.5837 5.49996 11.3337 4.99996 10.0003 4.99996Z" fill="white"/>
<path d="M12.0833 17.5H7.91667C7.66667 17.5 7.5 17.3334 7.5 17.0834C7.5 16.8334 7.66667 16.6667 7.91667 16.6667H12.0833C12.3333 16.6667 12.5 16.8334 12.5 17.0834C12.5 17.3334 12.3333 17.5 12.0833 17.5Z" fill="white"/>
<path d="M9.99967 2.5C9.74967 2.5 9.58301 2.33333 9.58301 2.08333V0.416667C9.58301 0.166667 9.74967 0 9.99967 0C10.2497 0 10.4163 0.166667 10.4163 0.416667V2.08333C10.4163 2.33333 10.2497 2.5 9.99967 2.5Z" fill="white"/>
<path d="M15.5833 4.83333C15.5 4.83333 15.3333 4.83333 15.25 4.75C15.0833 4.58333 15.0833 4.33333 15.25 4.16667L16.4167 3C16.5833 2.83333 16.8333 2.83333 17 3C17.1667 3.16667 17.1667 3.41667 17 3.58333L15.8333 4.75C15.8333 4.75 15.6667 4.83333 15.5833 4.83333Z" fill="white"/>
<path d="M19.5833 10.4166H17.9167C17.6667 10.4166 17.5 10.25 17.5 9.99998C17.5 9.74998 17.6667 9.58331 17.9167 9.58331H19.5833C19.8333 9.58331 20 9.74998 20 9.99998C20 10.25 19.8333 10.4166 19.5833 10.4166Z" fill="white"/>
<path d="M16.75 17.1666C16.6667 17.1666 16.5 17.1666 16.4167 17.0833L15.25 15.9166C15.0833 15.75 15.0833 15.5 15.25 15.3333C15.4167 15.1666 15.6667 15.1666 15.8333 15.3333L17 16.5C17.1667 16.6666 17.1667 16.9166 17 17.0833C17 17.1666 16.9167 17.1666 16.75 17.1666Z" fill="white"/>
<path d="M3.25033 17.1666C3.16699 17.1666 3.00033 17.1666 2.91699 17.0833C2.75033 16.9166 2.75033 16.6666 2.91699 16.5L4.08366 15.3333C4.25033 15.1666 4.50033 15.1666 4.66699 15.3333C4.83366 15.5 4.83366 15.75 4.66699 15.9166L3.50033 17.0833C3.41699 17.1666 3.33366 17.1666 3.25033 17.1666Z" fill="white"/>
<path d="M2.08333 10.4166H0.416667C0.166667 10.4166 0 10.25 0 9.99998C0 9.74998 0.166667 9.58331 0.416667 9.58331H2.08333C2.33333 9.58331 2.5 9.74998 2.5 9.99998C2.5 10.25 2.33333 10.4166 2.08333 10.4166Z" fill="white"/>
<path d="M4.41699 4.83329C4.33366 4.83329 4.16699 4.83329 4.08366 4.74996L2.91699 3.49996C2.75033 3.33329 2.75033 3.08329 2.91699 2.91663C3.08366 2.74996 3.33366 2.74996 3.50033 2.91663L4.66699 4.08329C4.83366 4.24996 4.83366 4.49996 4.66699 4.66663C4.58366 4.74996 4.50033 4.83329 4.41699 4.83329Z" fill="white"/>
<path d="M13.333 10.4167C13.083 10.4167 12.9163 10.25 12.9163 10C12.9163 8.41667 11.583 7.08333 9.99967 7.08333C9.74967 7.08333 9.58301 6.91667 9.58301 6.66667C9.58301 6.41667 9.74967 6.25 9.99967 6.25C12.083 6.25 13.7497 7.91667 13.7497 10C13.7497 10.25 13.583 10.4167 13.333 10.4167Z" fill="white"/>
</g>
<defs>
<clipPath id="clip0_1222_913">
<rect width="20" height="20" fill="white"/>
</clipPath>
</defs>
</svg>
