<svg width="24" height="24" viewBox="0 0 24 24" fill="none" xmlns="http://www.w3.org/2000/svg">
<path d="M19.5004 24H15.5003C15.2243 24 15.0003 23.776 15.0003 23.5V16.4998C15.0003 16.2238 14.7763 15.9998 14.5003 15.9998H9.5002C9.22419 15.9998 9.00019 16.2238 9.00019 16.4998V23.5C9.00019 23.776 8.77618 24 8.50018 24H4.50009C3.67308 24 3.00006 23.327 3.00006 22.5V12.9998H1.00002C0.449009 12.9998 0 12.5508 0 11.9998C0 11.7347 0.108002 11.4747 0.296006 11.2867L11.6502 0.142503C11.8442 -0.047501 12.1563 -0.047501 12.3503 0.142503L23.7005 11.2827C23.8925 11.4747 24.0005 11.7347 24.0005 11.9998C24.0005 12.5508 23.5515 12.9998 23.0005 12.9998H21.0004V22.5C21.0004 23.327 20.3274 24 19.5004 24ZM16.0003 23H19.5004C19.7764 23 20.0004 22.776 20.0004 22.5V12.4998C20.0004 12.2238 20.2244 11.9998 20.5004 11.9998H23.0005L12.0002 1.20053L1.00002 11.9967L3.50007 11.9998C3.77608 11.9998 4.00008 12.2238 4.00008 12.4998V22.5C4.00008 22.776 4.22409 23 4.50009 23H8.00017V16.4998C8.00017 15.6728 8.67318 14.9998 9.5002 14.9998H14.5003C15.3273 14.9998 16.0003 15.6728 16.0003 16.4998V23Z" fill="#3554C4"/>
</svg>
