<svg width="14" height="15" viewBox="0 0 14 15" fill="none" xmlns="http://www.w3.org/2000/svg">
<path fill-rule="evenodd" clip-rule="evenodd" d="M9.23212 6.81366C9.30724 6.81366 9.3716 6.85327 9.4055 6.9203C9.43939 6.98733 9.4331 7.06266 9.38854 7.12315L7.09658 10.2349C7.05876 10.2862 7.00392 10.314 6.94017 10.314C6.87642 10.314 6.82154 10.2862 6.78375 10.2349L4.49183 7.12315C4.44727 7.06266 4.44097 6.98733 4.47486 6.9203C4.50876 6.85327 4.57313 6.81366 4.64824 6.81366H5.933V0.85752C5.933 0.64374 6.10799 0.46875 6.32177 0.46875L7.55857 0.46875C7.77234 0.46875 7.94733 0.643711 7.94733 0.85752V6.81366H9.23212ZM9.80637 1.26756V3.12788C11.2724 4.07142 12.2435 5.71755 12.2435 7.59053C12.2435 10.5195 9.86912 12.8938 6.9402 12.8938C4.01127 12.8938 1.63693 10.5195 1.63693 7.59053C1.63693 5.71752 2.60798 4.07139 4.07402 3.12788V1.26756C1.67086 2.35863 -0.000496864 4.77938 -0.000496864 7.59056C-0.000496864 11.4238 3.10696 14.5312 6.9402 14.5312C10.7734 14.5312 13.8809 11.4238 13.8809 7.59056C13.8809 4.77938 12.2095 2.35863 9.80637 1.26756Z" fill="#2196F3"/>
</svg>
