<svg width="14" height="15" viewBox="0 0 14 15" fill="none" xmlns="http://www.w3.org/2000/svg">
<path fill-rule="evenodd" clip-rule="evenodd" d="M4.76788 8.18634C4.69276 8.18634 4.6284 8.14673 4.5945 8.0797C4.56061 8.01267 4.5669 7.93734 4.61146 7.87685L6.90342 4.76511C6.94124 4.71378 6.99608 4.68604 7.05983 4.68604C7.12358 4.68604 7.17846 4.71378 7.21625 4.76511L9.50817 7.87685C9.55273 7.93734 9.55903 8.01267 9.52514 8.0797C9.49124 8.14673 9.42687 8.18634 9.35176 8.18634H8.067V14.1425C8.067 14.3563 7.89201 14.5312 7.67823 14.5312H6.44143C6.22766 14.5312 6.05267 14.3563 6.05267 14.1425V8.18634H4.76788ZM4.19363 13.7324V11.8721C2.72759 10.9286 1.75654 9.28245 1.75654 7.40947C1.75654 4.48055 4.13088 2.10621 7.0598 2.10621C9.98873 2.10621 12.3631 4.48055 12.3631 7.40947C12.3631 9.28248 11.392 10.9286 9.92598 11.8721V13.7324C12.3291 12.6414 14.0005 10.2206 14.0005 7.40944C14.0005 3.57621 10.893 0.46875 7.0598 0.46875C3.22657 0.46875 0.119141 3.57621 0.119141 7.40944C0.119141 10.2206 1.79047 12.6414 4.19363 13.7324Z" fill="#2196F3"/>
</svg>
