<svg width="118" height="90" viewBox="0 0 118 90" fill="none" xmlns="http://www.w3.org/2000/svg">
<path d="M83.2224 36.0696V10.5664H35.054V36.0696C35.054 42.4571 37.5914 48.583 42.1081 53.0997C46.6247 57.6163 52.7506 60.1538 59.1382 60.1538C65.5257 60.1538 71.6516 57.6163 76.1683 53.0997C80.6849 48.583 83.2224 42.4571 83.2224 36.0696Z" fill="#001A33"/>
<path d="M15.5399 89.3795H12.523L12.1587 86.2603C11.5715 87.3904 10.645 88.308 9.5093 88.8841C8.22129 89.5288 6.79456 89.8471 5.35465 89.8109C3.62887 89.8109 2.30578 89.4647 1.38537 88.7723C0.930429 88.4284 0.566701 87.9782 0.326017 87.4612C0.085333 86.9441 -0.0249738 86.376 0.00474107 85.8065C-0.014299 85.0555 0.164233 84.3127 0.522473 83.6525C0.885154 83.0277 1.41691 82.5181 2.0565 82.1824C2.7147 81.8124 3.42461 81.5431 4.16259 81.3834C5.47768 81.1273 6.80603 80.9449 8.14146 80.8369C9.69466 80.6867 10.7237 80.4949 11.2223 80.268C11.4459 80.1845 11.638 80.0335 11.772 79.836C11.906 79.6384 11.9753 79.4041 11.9701 79.1654V79.1399C11.9761 78.8392 11.8971 78.5429 11.7422 78.2851C11.5873 78.0273 11.3628 77.8184 11.0945 77.6826C10.5128 77.3544 9.6382 77.1893 8.47064 77.1872C7.1028 77.1872 6.08011 77.4066 5.40259 77.8455C5.06161 78.0776 4.78045 78.3871 4.58214 78.7487C4.38382 79.1103 4.274 79.5138 4.26166 79.9261H0.4266C0.594917 78.1492 1.35128 76.7845 2.69568 75.8321C4.04008 74.8798 5.87772 74.4025 8.20858 74.4004C10.7419 74.4004 12.5965 74.835 13.7726 75.7043C14.9487 76.5736 15.5357 77.9585 15.5335 79.8589L15.5399 89.3795ZM6.54033 87.0561C7.94345 87.0927 9.31245 86.6205 10.3946 85.7266C11.4599 84.8382 11.9925 83.8112 11.9925 82.6458V82.1408C11.6373 82.4006 11.2376 82.5934 10.8132 82.7097C10.1283 82.9019 9.42787 83.0334 8.71992 83.1028C7.86205 83.1761 7.00864 83.2945 6.16321 83.4575C5.71668 83.5452 5.28578 83.6993 4.88485 83.9145C4.60735 84.0589 4.37179 84.2725 4.20094 84.5345C4.05871 84.7855 3.98796 85.0707 3.9964 85.3591V85.3846C3.98334 85.6317 4.03554 85.8778 4.14774 86.0983C4.25993 86.3187 4.42818 86.5058 4.63558 86.6406C5.21826 86.9569 5.87886 87.101 6.54033 87.0561Z" fill="#001A33"/>
<path d="M22.1043 69.9609V89.3791H18.3779V69.9609H22.1043Z" fill="#001A33"/>
<path d="M32.6124 89.8113C29.9235 89.8113 27.8824 89.1721 26.489 87.8937C25.0956 86.6154 24.3989 84.7522 24.3989 82.3041V82.0772C24.3989 79.7336 25.151 77.8661 26.6552 76.4748C28.1594 75.0836 30.1707 74.3911 32.6891 74.3975C35.1222 74.3975 37.0397 74.9461 38.4416 76.0434C39.8436 77.1406 40.65 78.7205 40.8609 80.7829V80.8084H36.9332V80.7573C36.7638 79.6611 36.3324 78.8398 35.6548 78.2997C34.9773 77.7596 33.9898 77.4879 32.737 77.4879C31.301 77.4879 30.1941 77.8853 29.4165 78.68C28.6388 79.4747 28.251 80.6071 28.2532 82.0772V82.2785C28.2532 83.6975 28.6324 84.7788 29.3909 85.5224C30.1494 86.266 31.2573 86.6377 32.7146 86.6377C33.993 86.6377 34.9869 86.3661 35.6772 85.8164C36.3675 85.2667 36.8022 84.4262 36.9715 83.2916V83.2693H40.8993V83.3172C40.7331 85.4286 39.9437 87.0383 38.5311 88.1462C37.1185 89.2541 35.1456 89.8091 32.6124 89.8113Z" fill="#001A33"/>
<path d="M57.6936 89.3795H54.6639L54.2836 86.2603C53.6965 87.3904 52.7699 88.308 51.6342 88.8841C50.3462 89.5287 48.9195 89.847 47.4796 89.8109C45.758 89.8109 44.436 89.4647 43.5135 88.7723C43.0585 88.4284 42.6948 87.9782 42.4541 87.4612C42.2134 86.9441 42.1031 86.376 42.1329 85.8065C42.1138 85.0555 42.2923 84.3127 42.6506 83.6525C43.0133 83.0277 43.545 82.5181 44.1846 82.1824C44.8428 81.8124 45.5527 81.5431 46.2907 81.3834C47.6058 81.1273 48.9341 80.9449 50.2696 80.8369C51.8228 80.6867 52.8519 80.4949 53.3504 80.268C53.5738 80.1841 53.7656 80.0331 53.8996 79.8356C54.0335 79.6381 54.1029 79.404 54.0982 79.1654V79.1399C54.1042 78.8392 54.0252 78.5429 53.8703 78.2851C53.7154 78.0273 53.4909 77.8184 53.2226 77.6826C52.6409 77.3544 51.7663 77.1893 50.5988 77.1872C49.2309 77.1872 48.2082 77.4066 47.5307 77.8455C47.1897 78.0776 46.9086 78.3871 46.7103 78.7487C46.5119 79.1103 46.4021 79.5138 46.3898 79.9261H42.5547C42.7252 78.1492 43.4815 76.7845 44.8238 75.8321C46.1661 74.8798 48.0037 74.4025 50.3367 74.4004C52.8721 74.4004 54.7268 74.835 55.9007 75.7043C57.0747 76.5736 57.6617 77.9585 57.6617 79.8589L57.6936 89.3795ZM48.694 87.0561C50.0971 87.0927 51.4661 86.6205 52.5482 85.7266C53.6135 84.8382 54.1462 83.8112 54.1462 82.6458V82.1408C53.791 82.4006 53.3913 82.5934 52.9669 82.7097C52.282 82.9019 51.5816 83.0334 50.8736 83.1028C50.0157 83.1761 49.1623 83.2945 48.3169 83.4575C47.8704 83.5452 47.4395 83.6993 47.0385 83.9145C46.761 84.0589 46.5255 84.2725 46.3546 84.5345C46.2124 84.7855 46.1416 85.0707 46.1501 85.3591V85.3846C46.137 85.6317 46.1892 85.8778 46.3014 86.0983C46.4136 86.3187 46.5819 86.5058 46.7893 86.6406C47.3719 86.9569 48.0325 87.101 48.694 87.0561Z" fill="#001A33"/>
<path d="M68.3647 77.5165C67.0118 77.5165 65.9891 77.9139 65.2967 78.7086C64.6042 79.5033 64.258 80.6751 64.258 82.2241V89.3733H60.506V74.8032H63.6764L63.9959 77.8457C64.4361 76.7897 65.1932 75.8964 66.1627 75.289C67.1931 74.678 68.3753 74.3711 69.5728 74.4037C71.4903 74.4037 72.9945 74.9694 74.0854 76.1007C75.1762 77.2321 75.7163 78.8034 75.7057 80.8147V89.3829H71.9633V81.7255C71.9633 80.2703 71.6725 79.205 71.0908 78.5296C70.5092 77.8542 69.6005 77.5165 68.3647 77.5165Z" fill="#001A33"/>
<path d="M86.0827 89.8113C83.3939 89.8113 81.3538 89.1721 79.9626 87.8937C78.5713 86.6154 77.8735 84.7522 77.8693 82.3041V82.0772C77.8693 79.7336 78.6214 77.8661 80.1256 76.4748C81.6298 75.0836 83.641 74.3911 86.1594 74.3975C88.5904 74.3975 90.5079 74.9461 91.912 76.0434C93.316 77.1406 94.1235 78.7205 94.3345 80.7829V80.8084H90.3907V80.7573C90.2246 79.6611 89.7931 78.8398 89.1124 78.2997C88.4317 77.7596 87.4473 77.4879 86.1977 77.4879C84.7596 77.4879 83.6528 77.8853 82.8772 78.68C82.1017 79.4747 81.7129 80.6071 81.7107 82.0772V82.2785C81.7107 83.6975 82.091 84.7788 82.8517 85.5224C83.6123 86.266 84.7191 86.6377 86.1722 86.6377C87.4505 86.6377 88.4444 86.3661 89.138 85.8164C89.8315 85.2667 90.2597 84.4262 90.4163 83.2916V83.2693H94.3472V83.3172C94.1789 85.4286 93.3885 87.0383 91.9759 88.1462C90.5633 89.2541 88.5989 89.8091 86.0827 89.8113Z" fill="#001A33"/>
<path d="M100.228 74.8027V89.3791H96.4246V74.8027H100.228ZM99.8218 72.7253H96.9071L101.039 67.2412H105.095L99.8218 72.7253Z" fill="#001A33"/>
<path d="M117.997 89.3795H114.98L114.6 86.2603C114.012 87.3904 113.086 88.308 111.95 88.8841C110.662 89.5287 109.235 89.847 107.796 89.8109C106.072 89.8109 104.75 89.4647 103.829 88.7723C103.375 88.4284 103.011 87.9782 102.77 87.4612C102.529 86.9442 102.419 86.376 102.449 85.8065C102.43 85.0556 102.608 84.3127 102.967 83.6525C103.329 83.0277 103.861 82.5182 104.501 82.1824C105.158 81.8129 105.867 81.5437 106.603 81.3834C107.922 81.1274 109.253 80.945 110.592 80.8369C112.145 80.6867 113.171 80.4949 113.67 80.268C113.893 80.1845 114.085 80.0336 114.219 79.836C114.353 79.6384 114.423 79.4041 114.417 79.1655V79.1399C114.424 78.8395 114.345 78.5435 114.191 78.2857C114.037 78.0279 113.813 77.8189 113.545 77.6826C112.96 77.363 112.088 77.1872 110.921 77.1872C109.553 77.1872 108.531 77.4066 107.853 77.8456C107.512 78.0776 107.231 78.3871 107.033 78.7487C106.834 79.1104 106.724 79.5138 106.712 79.9261H102.877C102.924 79.1157 103.153 78.3264 103.548 77.6173C103.944 76.9083 104.494 76.298 105.159 75.8321C106.505 74.8755 108.344 74.3983 110.675 74.4004C113.208 74.4004 115.063 74.835 116.239 75.7043C117.415 76.5736 118.002 77.9585 118 79.859L117.997 89.3795ZM108.994 87.0561C110.397 87.0928 111.766 86.6205 112.848 85.7266C113.914 84.8382 114.446 83.8112 114.446 82.6458V82.1408C114.093 82.4013 113.694 82.5942 113.27 82.7097C112.585 82.9019 111.885 83.0334 111.177 83.1028C110.319 83.1759 109.465 83.2943 108.62 83.4575C108.174 83.5452 107.743 83.6993 107.342 83.9145C107.064 84.0599 106.828 84.2732 106.655 84.5345C106.514 84.7862 106.445 85.0711 106.453 85.3591V85.3847C106.44 85.6317 106.492 85.8778 106.605 86.0983C106.717 86.3187 106.885 86.5058 107.092 86.6406C107.674 86.9563 108.334 87.1004 108.994 87.0561Z" fill="#001A33"/>
<path d="M59.1382 24.8065C61.5913 24.8065 63.9893 24.079 66.029 22.7161C68.0687 21.3533 69.6585 19.4161 70.5972 17.1497C71.536 14.8833 71.7816 12.3895 71.3031 9.98348C70.8245 7.57749 69.6432 5.36745 67.9086 3.63283C66.1739 1.89821 63.9639 0.716913 61.5579 0.238331C59.1519 -0.24025 56.658 0.00537036 54.3916 0.944141C52.1253 1.88291 50.1881 3.47267 48.8252 5.51237C47.4624 7.55207 46.7349 9.95011 46.7349 12.4032C46.7358 15.6925 48.0428 18.8468 50.3687 21.1727C52.6946 23.4986 55.8489 24.8056 59.1382 24.8065Z" fill="#1F318C"/>
<path d="M59.1382 36.1873C61.591 36.1873 63.9888 35.46 66.0283 34.0974C68.0679 32.7348 69.6577 30.7981 70.5966 28.5321C71.5356 26.2661 71.7816 23.7725 71.3035 21.3667C70.8255 18.9609 69.6448 16.7508 67.9108 15.0159C66.1768 13.2811 63.9674 12.0993 61.5618 11.62C59.1562 11.1407 56.6626 11.3854 54.3961 12.3232C52.1296 13.261 50.192 14.8497 48.8284 16.8886C47.4647 18.9274 46.7362 21.3248 46.7349 23.7777C46.7341 25.4071 47.0543 27.0206 47.6772 28.5262C48.3002 30.0317 49.2137 31.3998 50.3655 32.5522C51.5173 33.7047 52.8849 34.6188 54.3902 35.2426C55.8954 35.8663 57.5088 36.1873 59.1382 36.1873Z" fill="#3554C4"/>
<path d="M59.1382 48.1014C61.5913 48.1014 63.9893 47.3739 66.029 46.0111C68.0687 44.6482 69.6585 42.7111 70.5972 40.4447C71.536 38.1783 71.7816 35.6844 71.3031 33.2784C70.8245 30.8724 69.6432 28.6624 67.9086 26.9277C66.1739 25.1931 63.9639 24.0118 61.5579 23.5333C59.1519 23.0547 56.658 23.3003 54.3916 24.2391C52.1253 25.1778 50.1881 26.7676 48.8252 28.8073C47.4624 30.847 46.7349 33.245 46.7349 35.6982C46.7349 38.9877 48.0417 42.1425 50.3677 44.4686C52.6938 46.7946 55.8486 48.1014 59.1382 48.1014Z" fill="#4E76E5"/>
</svg>
