<svg width="52" height="52" viewBox="0 0 52 52" fill="none" xmlns="http://www.w3.org/2000/svg">
<g clip-path="url(#clip0_842_279)">
<path d="M26 0C11.663 0 0 11.663 0 26C0 40.337 11.663 52 26 52C40.337 52 52 40.337 52 26C52 11.663 40.337 0 26 0Z" fill="#4E76E5"/>
<path d="M39.1776 20.4902L25.0941 34.5733C24.6716 34.9958 24.117 35.2085 23.5624 35.2085C23.0078 35.2085 22.4531 34.9958 22.0306 34.5733L14.9891 27.5318C14.1417 26.6848 14.1417 25.3152 14.9891 24.4682C15.8361 23.6208 17.2052 23.6208 18.0526 24.4682L23.5624 29.978L36.1141 17.4267C36.9611 16.5793 38.3302 16.5793 39.1776 17.4267C40.0246 18.2737 40.0246 19.6428 39.1776 20.4902Z" fill="#FAFAFA"/>
</g>
<defs>
<clipPath id="clip0_842_279">
<rect width="52" height="52" fill="white"/>
</clipPath>
</defs>
</svg>
