<svg width="43" height="39" viewBox="0 0 43 39" fill="none" xmlns="http://www.w3.org/2000/svg">
<path d="M5.1345 23.1374L3.75648 26.5059C2.23436 30.2266 5.77617 35.1966 11.6673 37.6066C17.5585 40.0166 23.5681 38.954 25.0902 35.2333L26.4682 31.8648L5.1345 23.1374Z" fill="#00B378"/>
<path d="M17.0476 38.871L18.9242 34.2839L17.8014 33.8246L15.7897 38.7422C16.2151 38.8034 16.6344 38.8463 17.0476 38.871Z" fill="#46C89D"/>
<path d="M11.1088 37.3677C11.2923 37.4498 11.4781 37.5295 11.6664 37.6066C11.8548 37.6836 12.0432 37.7571 12.2316 37.827L14.4402 32.4283L13.3174 31.9689L11.1088 37.3677Z" fill="#46C89D"/>
<path d="M6.9431 34.7371C7.25491 35.0085 7.58412 35.2718 7.93075 35.5268L10.1098 30.2002L8.98699 29.7409L6.9431 34.7371Z" fill="#46C89D"/>
<path d="M5.11541 32.7965L7.04165 28.0879L5.91884 27.6286L4.31068 31.5596C4.54842 31.991 4.81738 32.4044 5.11541 32.7965Z" fill="#46C89D"/>
<path d="M26.4899 31.8721C28.0135 28.1495 24.4705 23.1762 18.5765 20.7638C12.6825 18.3515 6.66929 19.4136 5.1457 23.1362C3.62211 26.8587 7.16505 31.832 13.0591 34.2444C18.9531 36.6567 24.9663 35.5946 26.4899 31.8721Z" fill="#46C89D"/>
<path d="M20.4471 25.5178C20.3246 25.2235 20.145 24.9564 19.9186 24.732C19.6923 24.5076 19.4236 24.3303 19.1283 24.2104L18.5538 23.9754L18.9906 22.9078L17.8678 22.4484L17.431 23.5161L16.3212 23.0621L16.7805 21.9392L15.6577 21.4799L15.1984 22.6027L14.0755 22.1434L13.6162 23.2662L14.739 23.7256L12.4423 29.3397L11.3195 28.8804L10.8601 30.0032L11.983 30.4625L11.5237 31.5853L12.6465 32.0447L13.1058 30.9219L14.2286 31.3812L13.7693 32.504L14.8921 32.9634L15.3515 31.8406L15.9129 32.0702C16.357 32.2519 16.8451 32.2978 17.3153 32.2021C17.7856 32.1065 18.2169 31.8735 18.5547 31.5327C18.8925 31.1919 19.1217 30.7585 19.2133 30.2875C19.3048 29.8164 19.2547 29.3288 19.0691 28.8863C19.049 28.8384 19.0271 28.7918 19.0043 28.7457C19.3176 28.6376 19.6053 28.4663 19.8498 28.2425C20.0942 28.0187 20.2901 27.7471 20.4254 27.4445C20.5606 27.1419 20.6323 26.8148 20.6361 26.4834C20.6398 26.152 20.5755 25.8233 20.4471 25.5178ZM17.9544 30.2839C17.8322 30.5815 17.5971 30.8184 17.3005 30.9428C17.0039 31.0671 16.6701 31.0688 16.3722 30.9474L13.5652 29.7991L14.4838 27.5534L17.2909 28.7017C17.5887 28.8236 17.8259 29.0587 17.9503 29.3554C18.0747 29.6521 18.0762 29.9861 17.9544 30.2839ZM19.3324 26.9154C19.2102 27.213 18.9751 27.4499 18.6785 27.5743C18.3819 27.6986 18.0481 27.7003 17.7502 27.5789L14.9432 26.4306L15.8618 24.1849L18.6689 25.3333C18.9667 25.4551 19.2039 25.6902 19.3283 25.9869C19.4528 26.2837 19.4542 26.6177 19.3324 26.9154Z" fill="#00B378"/>
<path d="M36.785 28.8573L34.0177 31.2211C30.961 33.8321 25.1317 32.0252 20.9977 27.1854C16.8637 22.3456 15.9903 16.3056 19.0471 13.6946L21.8144 11.3308" fill="#E5707F"/>
<path d="M24.3453 23.4516L20.5499 26.6396C20.6948 26.823 20.8441 27.005 20.9977 27.1854C21.1081 27.3147 21.2198 27.4417 21.3328 27.5663L25.1256 24.3805L24.3453 23.4516Z" fill="#F78F9C"/>
<path d="M24.0636 30.0254C24.4123 30.2768 24.7642 30.5093 25.1191 30.723L28.5642 27.8292L27.784 26.9003L24.0636 30.0254Z" fill="#F78F9C"/>
<path d="M28.9481 32.2596L32.5684 29.2186L31.7881 28.2897L27.5262 31.8696C27.9902 32.0336 28.4654 32.1639 28.9481 32.2596Z" fill="#F78F9C"/>
<path d="M36.7319 28.9159C39.8072 26.327 38.9773 20.281 34.8782 15.4117C30.7791 10.5425 24.9631 8.69387 21.8877 11.2828C18.8124 13.8717 19.6424 19.9177 23.7414 24.787C27.8405 29.6562 33.6565 31.5048 36.7319 28.9159Z" fill="#F78F9C"/>
<path d="M19.7116 38.768C20.199 38.6972 20.6806 38.5908 21.1525 38.4498L22.903 34.1707L21.7802 33.7113L19.7116 38.768Z" fill="#46C89D"/>
<path d="M24.9522 8.68534L22.7465 5.79041L4.41194 19.7596L6.61761 22.6546C9.05392 25.8522 15.1333 25.3173 20.1962 21.4598C25.2592 17.6023 27.3885 11.883 24.9522 8.68534Z" fill="#3F589E"/>
<path d="M25.7294 13.7096L22.6974 9.73018L21.7324 10.4654L25.2735 15.113C25.4595 14.657 25.6118 14.1879 25.7294 13.7096Z" fill="#576CD3"/>
<path d="M24.0136 17.4616L20.4295 12.7575L19.4645 13.4927L23.265 18.4808C23.5333 18.1451 23.7829 17.8054 24.0136 17.4616Z" fill="#576CD3"/>
<path d="M17.32 16.6839L16.355 17.4191L19.7077 21.8195C19.8715 21.703 20.0343 21.5831 20.1962 21.4599C20.3581 21.3365 20.5169 21.2114 20.6726 21.0843L17.32 16.6839Z" fill="#576CD3"/>
<path d="M13.0474 19.0836L12.0824 19.8188L15.3279 24.0786C15.72 23.9474 16.1137 23.7969 16.5093 23.6274L13.0474 19.0836Z" fill="#576CD3"/>
<path d="M8.72127 19.4112L7.75632 20.1464L11.2547 24.7379C11.747 24.7515 12.2397 24.7292 12.7287 24.6709L8.72127 19.4112Z" fill="#576CD3"/>
<path d="M17.9844 18.5576C23.0446 14.7004 25.1718 8.98266 22.7357 5.78674C20.2995 2.59081 14.2225 3.1269 9.16233 6.98412C4.10211 10.8413 1.97488 16.559 4.41102 19.755C6.84716 22.9509 12.9242 22.4148 17.9844 18.5576Z" fill="#576CD3"/>
<path d="M19.8515 7.99608L11.0058 9.39757L7.30679 17.554L16.1524 16.1525L19.8515 7.99608Z" fill="#92AFEF"/>
<path d="M11.0059 9.39757L11.6493 14.2455L19.8516 7.99608L11.0059 9.39757Z" fill="#7F9AE5"/>
<path d="M11.6492 14.2455L7.30679 17.554L16.1524 16.1525L11.6492 14.2455Z" fill="#7F9AE5"/>
<path d="M11.6491 14.2455L16.1523 16.1525L19.8513 7.99608L11.6491 14.2455Z" fill="#6C85E0"/>
<path d="M34.5114 19.6648C34.3143 19.4303 34.0612 19.2492 33.7755 19.1385C33.4898 19.0278 33.1808 18.9911 32.8771 19.0316C32.5734 19.0722 32.2849 19.1887 32.0383 19.3705C31.7916 19.5523 31.5949 19.7934 31.4662 20.0715L29.8677 19.6046L29.6838 17.9495C30.0976 17.8396 30.4594 17.5873 30.7055 17.237C30.9516 16.8867 31.0663 16.4608 31.0295 16.0342C30.9926 15.6077 30.8066 15.2078 30.504 14.9049C30.2014 14.602 29.8017 14.4155 29.3752 14.3782C28.9487 14.3409 28.5228 14.4552 28.1722 14.7009C27.8216 14.9467 27.5689 15.3082 27.4586 15.7218C27.3482 16.1355 27.3872 16.5748 27.5688 16.9625C27.7503 17.3502 28.0628 17.6615 28.4512 17.8416L28.6708 19.8179L27.9108 20.4562C27.541 20.2383 27.106 20.1582 26.6828 20.2301C26.2596 20.3019 25.8754 20.521 25.5981 20.8487C25.3208 21.1764 25.1683 21.5916 25.1676 22.0209C25.1668 22.4501 25.3178 22.8659 25.5939 23.1946C25.87 23.5232 26.2534 23.7437 26.6763 23.8171C27.0993 23.8904 27.5346 23.8119 27.9052 23.5954C28.2759 23.3788 28.558 23.0382 28.7018 22.6338C28.8456 22.2293 28.8418 21.787 28.6911 21.3851L29.451 20.7468L31.3597 21.3042C31.4299 21.5675 31.5584 21.8117 31.7357 22.0188C31.9129 22.2258 32.1344 22.3904 32.3838 22.5004C32.6332 22.6103 32.9041 22.6628 33.1765 22.6541C33.4489 22.6453 33.7159 22.5755 33.9577 22.4497C34.1995 22.3239 34.41 22.1454 34.5736 21.9274C34.7371 21.7094 34.8497 21.4575 34.9028 21.1901C34.956 20.9228 34.9484 20.647 34.8806 20.383C34.8129 20.119 34.6867 19.8735 34.5114 19.6648Z" fill="#D66376"/>
</svg>
