<svg width="24" height="26" viewBox="0 0 24 26" fill="none" xmlns="http://www.w3.org/2000/svg">
<path d="M0.438441 10.4386C0.293799 10.5836 0.180351 10.7566 0.105078 10.9471C0.029805 11.1375 -0.0057011 11.3414 0.000743528 11.5461L0.277683 19.9581C0.287331 20.2498 0.382033 20.5323 0.550137 20.7709C0.718241 21.0094 0.952416 21.1937 1.22385 21.3009C1.49529 21.4081 1.79215 21.4337 2.07791 21.3744C2.36368 21.3151 2.62588 21.1736 2.83227 20.9672L4.59337 19.2064L11.2438 25.8571C11.2891 25.9024 11.3428 25.9383 11.4019 25.9629C11.461 25.9874 11.5244 26 11.5885 26C11.6525 26 11.7159 25.9874 11.775 25.9629C11.8341 25.9383 11.8879 25.9024 11.9331 25.8571L15.8571 21.9332C15.9024 21.8879 15.9383 21.8342 15.9629 21.775C15.9874 21.7158 16 21.6524 16 21.5884C16 21.5243 15.9874 21.4609 15.9629 21.4018C15.9383 21.3426 15.9024 21.2889 15.8571 21.2436L9.20661 14.5932L10.9674 12.8324C11.1739 12.626 11.3155 12.3638 11.3748 12.078C11.4341 11.7922 11.4086 11.4953 11.3014 11.2238C11.1942 10.9523 11.0099 10.7181 10.7713 10.55C10.5326 10.3819 10.2501 10.2872 9.95831 10.2776L1.5462 10.0006C1.3415 9.99467 1.13772 10.0304 0.947282 10.1057C0.75684 10.181 0.583713 10.2943 0.438441 10.4386ZM10.3943 11.5809C10.4331 11.6755 10.4427 11.7796 10.4219 11.8797C10.4012 11.9798 10.351 12.0714 10.2779 12.1429L8.17241 14.2483C8.08103 14.3398 8.0297 14.4638 8.0297 14.5931C8.0297 14.7224 8.08103 14.8464 8.17241 14.9379L14.8229 21.5885L11.5873 24.8229L4.93801 18.1722C4.8465 18.0809 4.72251 18.0296 4.59323 18.0296C4.46396 18.0296 4.33996 18.0809 4.24845 18.1722L2.14243 20.2777C2.07053 20.35 1.97903 20.3996 1.87923 20.4204C1.77943 20.4413 1.67571 20.4325 1.58088 20.395C1.48605 20.3576 1.40425 20.2932 1.34561 20.2098C1.28696 20.1264 1.25402 20.0277 1.25087 19.9258L0.973932 11.5138C0.971605 11.4424 0.983953 11.3713 1.01021 11.3049C1.03647 11.2385 1.07608 11.1782 1.12659 11.1277C1.1771 11.0772 1.23744 11.0376 1.30386 11.0114C1.37029 10.9852 1.44139 10.9729 1.51277 10.9752L9.92459 11.2538C10.0267 11.2556 10.1259 11.2877 10.2096 11.3462C10.2933 11.4047 10.3576 11.4868 10.3943 11.582V11.5809Z" fill="#3554C4"/>
<path d="M12.6988 14.7754C12.8036 15.0487 12.9872 15.2846 13.2263 15.4533C13.4654 15.622 13.7492 15.7159 14.0417 15.723L22.4538 16H22.5025C22.7033 16 22.902 15.9596 23.0868 15.8812C23.2717 15.8029 23.4389 15.6881 23.5785 15.5438C23.7181 15.3995 23.8273 15.2286 23.8996 15.0413C23.9719 14.8539 24.0057 14.6539 23.9992 14.4532L23.7223 6.03843C23.7126 5.74664 23.6179 5.46405 23.4498 5.2254C23.2817 4.98675 23.0475 4.80246 22.7761 4.6952C22.5047 4.58794 22.2078 4.56239 21.922 4.62169C21.6363 4.68099 21.3741 4.82256 21.1677 5.02897L19.4058 6.79008L12.7562 0.137231C12.663 0.0491061 12.5397 0 12.4115 0C12.2833 0 12.16 0.0491061 12.0669 0.137231L8.14294 4.06244C8.09762 4.10771 8.06168 4.16148 8.03715 4.22066C8.01262 4.27983 8 4.34327 8 4.40733C8 4.4714 8.01262 4.53483 8.03715 4.59401C8.06168 4.65319 8.09762 4.70695 8.14294 4.75222L14.7934 11.4048L13.0325 13.1662C12.8238 13.3712 12.6807 13.6336 12.6213 13.9201C12.5618 14.2066 12.5888 14.5043 12.6988 14.7754ZM13.7221 13.856L15.8276 11.7498C15.9189 11.6583 15.9703 11.5343 15.9703 11.4049C15.9703 11.2756 15.9189 11.1515 15.8276 11.06L9.17714 4.40719L12.4126 1.17177L19.0631 7.82461C19.1545 7.91602 19.2786 7.96737 19.4078 7.96737C19.5371 7.96737 19.6612 7.91602 19.7526 7.82461L21.8575 5.71848C21.9294 5.64617 22.0209 5.59652 22.1207 5.57565C22.2205 5.55479 22.3242 5.56362 22.4191 5.60106C22.5139 5.6385 22.5957 5.70291 22.6543 5.78634C22.713 5.86976 22.7459 5.96854 22.7491 6.07048L23.026 14.4853C23.0286 14.5566 23.0164 14.6278 22.9902 14.6942C22.964 14.7607 22.9243 14.8209 22.8736 14.8713C22.8235 14.9224 22.7632 14.9625 22.6967 14.9888C22.6301 15.0151 22.5587 15.0271 22.4872 15.024L14.0754 14.747C13.9735 14.7439 13.8748 14.7111 13.7914 14.6526C13.708 14.5941 13.6435 14.5124 13.6059 14.4176C13.5683 14.3229 13.5593 14.2192 13.58 14.1194C13.6006 14.0196 13.65 13.928 13.7221 13.856Z" fill="#3554C4"/>
</svg>
