<svg width="14" height="16" viewBox="0 0 14 16" fill="none" xmlns="http://www.w3.org/2000/svg">
<path d="M11.3672 10.7623C10.5965 10.7623 9.90214 11.0934 9.42022 11.62L5.08563 8.94958C5.20136 8.65491 5.26554 8.33484 5.26554 8C5.26554 7.66504 5.20136 7.34497 5.08563 7.05042L9.42022 4.37988C9.90214 4.90649 10.5965 5.23767 11.3672 5.23767C12.8189 5.23767 14 4.06287 14 2.61877C14 1.17468 12.8189 0 11.3672 0C9.91539 0 8.73434 1.1748 8.73434 2.6189C8.73434 2.95374 8.79864 3.2738 8.91425 3.56848L4.57978 6.23889C4.09786 5.71228 3.40351 5.3811 2.63283 5.3811C1.18106 5.3811 0 6.55603 0 8C0 9.44409 1.18106 10.6189 2.63283 10.6189C3.40351 10.6189 4.09786 10.2878 4.57978 9.76111L8.91425 12.4315C8.79864 12.7262 8.73434 13.0463 8.73434 13.3812C8.73434 14.8252 9.91539 16 11.3672 16C12.8189 16 14 14.8252 14 13.3812C14 11.9371 12.8189 10.7623 11.3672 10.7623ZM9.69438 2.6189C9.69438 1.70142 10.4448 0.954956 11.3672 0.954956C12.2895 0.954956 13.04 1.70142 13.04 2.6189C13.04 3.53638 12.2895 4.28284 11.3672 4.28284C10.4448 4.28284 9.69438 3.53638 9.69438 2.6189ZM2.63283 9.66394C1.71035 9.66394 0.959914 8.91748 0.959914 8C0.959914 7.08252 1.71035 6.33606 2.63283 6.33606C3.55519 6.33606 4.3055 7.08252 4.3055 8C4.3055 8.91748 3.55519 9.66394 2.63283 9.66394ZM9.69438 13.3811C9.69438 12.4636 10.4448 11.7172 11.3672 11.7172C12.2895 11.7172 13.04 12.4636 13.04 13.3811C13.04 14.2986 12.2895 15.045 11.3672 15.045C10.4448 15.045 9.69438 14.2986 9.69438 13.3811Z" fill="#4E76E5"/>
</svg>
