<svg width="13" height="13" viewBox="0 0 13 13" fill="none" xmlns="http://www.w3.org/2000/svg">
    <defs>
        <linearGradient id="paint0_linear_1431_384" x1="-0.44502" y1="6.72256" x2="12.9999" y2="6.72256" gradientUnits="userSpaceOnUse">
            <stop stop-color="#2196F3"/>
            <stop offset="1" stop-color="#2196F3"/>
        </linearGradient>
    </defs>
    <path d="M12.7141 0.286108C12.5865 0.157626 12.4254 0.0674803 12.2491 0.0258945C12.0729 -0.0156912 11.8885 -0.00705229 11.7169 0.0508316L0.666411 3.73429C0.469981 3.79971 0.299498 3.926 0.179691 4.09486C0.0598841 4.26371 -0.00301702 4.46634 0.00011128 4.67335C0.00323958 4.88036 0.0722347 5.081 0.197089 5.24615C0.321943 5.41131 0.496164 5.53239 0.694482 5.59185L5.60781 7.06598C5.68504 7.08899 5.75532 7.13088 5.8123 7.18786C5.86928 7.24484 5.91117 7.31512 5.93418 7.39234L7.40806 12.3054C7.46696 12.504 7.58785 12.6785 7.75307 12.8034C7.91828 12.9284 8.11913 12.9972 8.32625 12.9998L8.34148 13C8.54604 13.0005 8.74552 12.9363 8.91144 12.8166C9.07736 12.697 9.20124 12.528 9.26539 12.3337L12.9491 1.28327C13.007 1.1117 13.0157 0.927341 12.9742 0.751092C12.9326 0.574843 12.8425 0.41376 12.7141 0.286108Z" fill="url(#paint0_linear_1431_384)"/>
</svg>
