<svg width="21" height="13" viewBox="0 0 21 13" fill="none" xmlns="http://www.w3.org/2000/svg">
<g clip-path="url(#clip0_329_151)">
<path d="M20.6231 5.625C20.4621 5.395 16.6231 0 10.4041 0C4.18511 0 0.346114 5.4 0.186114 5.625C0.0649656 5.79845 0 6.00493 0 6.2165C0 6.42807 0.0649656 6.63454 0.186114 6.808C0.347113 7.038 4.18611 12.433 10.4051 12.433C16.6241 12.433 20.4631 7.033 20.6241 6.808C20.7451 6.63444 20.8099 6.42791 20.8097 6.21634C20.8095 6.00477 20.7444 5.79835 20.6231 5.625ZM10.4001 11.4C4.65411 11.4 1.03611 6.219 1.03611 6.219C1.03611 6.219 4.65411 1.038 10.4001 1.038C16.1461 1.038 19.7641 6.219 19.7641 6.219C19.7641 6.219 16.1501 11.4 10.4001 11.4Z" fill="white"/>
<path d="M10.4039 2.07228C9.5848 2.07563 8.78509 2.32158 8.10569 2.77908C7.42629 3.23657 6.89766 3.8851 6.58654 4.64279C6.27542 5.40048 6.19576 6.23337 6.35761 7.03629C6.51946 7.83922 6.91557 8.5762 7.49593 9.15418C8.07629 9.73217 8.81488 10.1253 9.61846 10.2838C10.422 10.4424 11.2546 10.3593 12.011 10.0451C12.7674 9.73088 13.4138 9.1996 13.8685 8.51834C14.3232 7.83707 14.5659 7.03634 14.5659 6.21726C14.5648 5.6718 14.4563 5.1319 14.2466 4.62837C14.0369 4.12484 13.73 3.66756 13.3435 3.28265C12.957 2.89774 12.4985 2.59273 11.9941 2.38505C11.4897 2.17737 10.9493 2.07109 10.4039 2.07228ZM10.4039 9.32527C9.78949 9.32289 9.18958 9.13854 8.67989 8.79548C8.1702 8.45242 7.77358 7.96605 7.54011 7.39775C7.30663 6.82944 7.24678 6.20471 7.36809 5.60241C7.48941 5.00012 7.78646 4.44727 8.22173 4.01367C8.65701 3.58006 9.21098 3.28515 9.81374 3.16616C10.4165 3.04717 11.041 3.10943 11.6084 3.34509C12.1758 3.58075 12.6607 3.97925 13.0017 4.49026C13.3428 5.00127 13.5249 5.60188 13.5249 6.21627C13.5225 7.04218 13.1925 7.83339 12.6074 8.41627C12.0223 8.99915 11.2298 9.32606 10.4039 9.32527Z" fill="white"/>
</g>
<defs>
<clipPath id="clip0_329_151">
<rect width="20.81" height="12.434" fill="white"/>
</clipPath>
</defs>
</svg>
