<svg width="321" height="317" viewBox="0 0 321 317" fill="none" xmlns="http://www.w3.org/2000/svg">
<path d="M107.034 134.166C107.034 134.166 83.4706 134.166 73.3183 111.943C63.1619 89.7206 90.1783 61.6486 90.1783 61.6486C90.1783 61.6486 90.3514 14.6902 124.125 4.7054C179.695 -11.7177 192.443 20.1234 192.443 20.1234C192.443 20.1234 204.144 9.59483 215.257 15.444C226.373 21.2932 230.464 27.7273 230.464 27.7273C230.464 27.7273 245.668 7.25927 286.619 20.7083C327.57 34.1573 331.666 117.204 295.985 146.445C260.299 175.687 126.923 173.933 107.034 134.162V134.166Z" fill="#82B6FB"/>
<path d="M152.624 77.8496C153.712 84.7369 154.095 100.344 135.645 103.792C117.343 107.211 111.014 94.6022 107.063 73.4669C102.584 49.5016 108.278 37.8568 123.424 35.0269C141.1 31.7234 146.234 44.7523 147.903 52.6157L132.74 55.4497C131.92 51.7713 130.75 46.0622 125.435 47.059C120.215 48.0352 120 54.3375 123.029 70.5423C125.69 84.7698 128.043 92.9422 133.618 91.9001C138.805 90.9321 137.977 84.7039 137.425 80.696L152.62 77.8579L152.624 77.8496Z" fill="white"/>
<path d="M198.471 60.7096C198.471 82.5658 192.505 92.0316 177.68 92.0316C163.856 92.0316 157.721 82.4093 157.721 60.4089C157.721 38.4085 164.54 30.1743 178.24 30.1743C191.94 30.1743 198.471 39.9614 198.471 60.7096ZM172.035 60.413C172.035 75.1349 173.362 81.26 178.067 81.26C183.032 81.26 184.157 75.5633 184.157 60.413C184.157 46.2596 182.974 40.9994 178.067 40.9994C173.16 40.9994 172.035 46.5109 172.035 60.413Z" fill="white"/>
<path d="M242.647 80.9428C242.647 98.6057 237.827 106.251 225.845 106.251C214.675 106.251 209.719 98.4739 209.719 80.6997C209.719 62.9256 215.231 56.269 226.298 56.269C237.365 56.269 242.647 64.1778 242.647 80.9428ZM221.288 80.7039C221.288 92.6 222.359 97.5512 226.162 97.5512C230.176 97.5512 231.082 92.946 231.082 80.7039C231.082 69.265 230.126 65.0181 226.162 65.0181C222.199 65.0181 221.288 69.4709 221.288 80.7039Z" fill="white"/>
<path d="M266.17 46.3506L279.269 50.3915L264.967 96.7443L283.051 102.322L278.548 112.582L248.581 103.343L266.162 46.3547L266.17 46.3506Z" fill="white"/>
<mask id="mask0_1205_160" style="mask-type:luminance" maskUnits="userSpaceOnUse" x="0" y="34" width="306" height="283">
<path d="M47.9608 307.99C47.9608 307.99 138.223 330.749 213.286 300.881C288.344 271.013 314.417 118.423 303.692 87.8092C292.967 57.1998 228.308 24.4031 162.953 37.4238C97.5932 50.4485 11.5625 124.041 8.49705 160.31C5.43159 196.584 -23.8922 288.292 47.9566 307.99H47.9608Z" fill="white"/>
</mask>
<g mask="url(#mask0_1205_160)">
<path d="M160.958 131.328C186.401 139.262 204.242 188.341 224.682 188.939C234.348 189.223 266.21 103.322 274.665 107.264C284.298 111.758 272.139 212.657 227.307 207.042C155.343 198.034 131.919 122.274 160.963 131.328H160.958Z" fill="#E68E85"/>
<path d="M159.813 123.811C176.793 129.586 199.903 171.852 220.339 172.45C225.992 172.614 247.62 141.96 254.686 126.146L280.582 133.754C278.451 162.424 257.83 214.415 219.219 214.415C149.85 214.411 131.013 114.011 159.813 123.811Z" fill="#1BBC7B"/>
<path d="M200.715 402.389C195.041 358.112 183.525 248.798 183.525 248.798L139.026 242.834C122.154 234.529 89.019 234.34 84.5362 244.345C78.2776 258.305 82.2124 283.864 82.2124 283.864C82.2124 283.864 72.8018 538.263 79.4477 540.722C86.0937 543.182 108.636 546.057 110.799 541.394C112.373 538 135.883 393.986 147.37 334.316C148.899 337.076 172.318 541.217 173.863 541.909C188.853 548.648 196.413 542.259 205.531 539.149C211.666 537.052 205.161 437.023 200.723 402.385L200.715 402.389Z" fill="#3554C4"/>
<path d="M83.6503 142.668C91.9897 126.727 108.85 118.019 129.789 116.709C148.952 115.511 167.551 125.359 177.238 137.997C186.211 149.708 186.751 201.061 188.671 214.992C190.431 227.766 199.722 263.149 194.295 278.229C192.915 282.064 185.404 289.52 185.404 289.52L173.711 268.537L132.978 271.009L125.706 293.577C125.706 293.577 81.2564 297.293 79.6907 283.362C77.8449 266.955 86.8435 238.34 86.5551 208.352C86.3243 184.14 75.4469 158.354 83.6544 142.664L83.6503 142.668Z" fill="#1BBC7B"/>
<path d="M132.974 271.013C132.974 271.013 131.054 223.503 125.36 182.505C121.128 152.027 110.803 126.13 118.899 120.837C137.885 108.413 155.256 129.495 160.023 142.096C167.522 161.917 173.711 268.545 173.711 268.545L132.978 271.017L132.974 271.013Z" fill="white"/>
<path d="M147.135 290.129C146.571 313.736 143.682 327.947 141.338 351.443C141.095 353.886 144.914 353.869 145.157 351.443C147.502 327.943 150.39 313.736 150.955 290.129C151.012 287.67 147.197 287.674 147.135 290.129Z" fill="#000F2B"/>
<path d="M159.689 309.469C156.097 313.069 151.968 315.878 147.32 317.95C145.079 318.951 147.02 322.238 149.249 321.246C154.176 319.046 158.577 315.981 162.388 312.167C164.127 310.425 161.428 307.727 159.689 309.469Z" fill="#000F2B"/>
<path d="M104.795 124.181C103.287 119.852 40.0045 148.068 17.133 191.974C-3.91319 232.371 73.2384 277.846 83.8604 273.212C86.518 272.055 96.4848 257.967 91.9031 253.189C75.863 244.143 50.8078 214.185 51.3146 207.264C52.8308 186.586 115.722 155.544 104.799 124.181H104.795Z" fill="#1BBC7B"/>
<path d="M88.4958 262.445C88.0096 259.928 88.4216 257.296 89.4846 255.022C90.7784 252.25 92.855 248.32 94.6144 247.377C97.3996 245.886 104.606 245.828 103.873 246.973C103.139 248.114 98.9406 248.926 98.9406 248.926C98.9406 248.926 104.013 250.038 105.644 251.504C107.272 252.966 105.331 256.336 103.765 257.316C102.2 258.297 94.0004 265.831 90.869 265.686C89.497 265.625 88.8254 264.117 88.4999 262.445H88.4958Z" fill="#E68E85"/>
<path d="M272.687 106.807C276.775 103.726 282.473 103.376 284.648 102.902C289.102 101.93 292.061 103.54 289.069 104.702C288.287 105.007 287.1 105.114 286.329 105.443C284.702 106.14 283.886 107.025 285.411 107.309C287.66 107.734 294.706 98.9187 296.041 103.911C297.153 108.076 286.638 119.111 277.166 116.919C274.48 116.297 266.276 111.643 272.691 106.807H272.687Z" fill="#E68E85"/>
<path d="M48.9536 215.408C49.4687 215.408 49.9013 215.013 49.9425 214.49C50.7459 203.809 56.4072 198.96 56.4648 198.915C56.8851 198.565 56.9428 197.939 56.5884 197.519C56.2382 197.099 55.612 197.041 55.1917 197.395C54.9321 197.613 48.83 202.837 47.9648 214.345C47.9236 214.893 48.3315 215.367 48.8795 215.408C48.9042 215.408 48.9289 215.408 48.9536 215.408Z" fill="#051634"/>
<path d="M187.86 207.396C187.888 207.396 187.917 207.396 187.946 207.396C188.49 207.351 188.898 206.869 188.848 206.326C188.696 204.525 185.07 162.193 184.712 159.734C184.448 157.925 185.651 154.222 186.137 152.95C186.331 152.439 186.075 151.866 185.565 151.673C185.054 151.479 184.481 151.734 184.287 152.245C184.089 152.764 182.371 157.382 182.755 160.018C183.105 162.424 186.842 206.054 186.879 206.494C186.924 207.009 187.357 207.401 187.864 207.401L187.86 207.396Z" fill="#051634"/>
<path d="M222.107 173.648C228.197 173.648 231.39 170.757 231.567 170.596C231.967 170.221 231.992 169.595 231.617 169.196C231.242 168.796 230.615 168.775 230.22 169.142C230.006 169.34 225.131 173.64 215.577 170.559C215.053 170.394 214.497 170.679 214.328 171.198C214.159 171.721 214.448 172.277 214.967 172.446C217.674 173.319 220.055 173.644 222.107 173.644V173.648Z" fill="#051634"/>
<path d="M82.5832 171.263C82.7975 171.263 83.0117 171.197 83.1889 171.053C91.038 164.957 96.2707 163.618 96.3243 163.606C96.8558 163.474 97.1813 162.938 97.0494 162.407C96.9217 161.875 96.3819 161.554 95.8546 161.678C95.6279 161.731 90.1975 163.099 81.9734 169.488C81.5408 169.825 81.4625 170.447 81.8004 170.88C81.994 171.131 82.2866 171.263 82.5832 171.263Z" fill="#051634"/>
<path d="M137.329 73.1656C137.329 73.1656 138.491 68.0579 134.573 66.5008C130.658 64.9438 122.78 67.1723 118.66 70.723C114.54 74.2737 117.939 78.2734 117.939 78.2734C117.939 78.2734 116.332 77.6102 115.385 79.1178C114.441 80.6254 114.808 87.5044 116.295 90.9274C117.783 94.3463 122.368 101.402 126.324 100.661C130.279 99.9195 140.506 88.5177 140.415 85.0288C140.324 81.544 143.781 74.1501 137.325 73.1656H137.329Z" fill="#7E2F00"/>
<path d="M139.406 86.4249C139.422 85.0038 139.669 83.0142 141.091 84.8555C143.159 87.5371 143.114 94.4696 140.72 93.7034C138.94 93.135 139.398 87.1705 139.406 86.4208V86.4249Z" fill="#E68E85"/>
<path d="M138.858 129.437C127.605 132.111 122.471 123.106 122.62 119.852C122.62 119.852 123.98 111.63 124.256 108.747C124.589 105.279 124.268 96.3564 124.268 96.3564L134.989 101.617L135.986 108.5L137.704 115.523C137.704 115.523 142.516 128.572 138.858 129.441V129.437Z" fill="#E68E85"/>
<path d="M130.629 105.435C127.836 105.212 123.575 102.181 122.854 97.699L121.087 84.3983C122.005 79.1587 125.726 77.0745 130.238 76.2918C133.831 75.6657 136.241 76.5719 138.256 79.7025C139.096 81.0082 139.348 83.3932 140.151 85.8853C140.431 86.7545 141.053 88.1879 141.309 89.2012C142.009 91.9693 142.191 93.5057 142.261 96.3644C142.339 99.7174 141.622 103.371 138.705 104.586C135.808 105.793 131.56 105.513 130.633 105.439L130.629 105.435Z" fill="#E68E85"/>
<path d="M134.321 92.8883C134.292 92.9913 134.568 93.0943 134.96 93.0407C135.364 92.9995 135.903 92.7977 136.385 92.2993C136.385 92.291 136.402 92.2745 136.414 92.2663C136.699 91.945 136.863 91.6072 136.95 91.2901C137.086 90.837 137.049 90.4374 136.962 90.2438C136.913 90.1326 136.867 90.0873 136.806 90.0996C136.777 90.0996 136.752 90.1161 136.727 90.1367C136.641 90.2438 136.542 90.528 136.381 90.8534C136.254 91.1006 136.101 91.3683 135.887 91.6196C135.866 91.6525 135.842 91.6773 135.813 91.7102C135.479 92.1015 135.079 92.3404 134.774 92.5176C134.507 92.6741 134.321 92.773 134.329 92.8842L134.321 92.8883Z" fill="#C17169"/>
<path d="M124.779 83.352C126.308 82.3799 127.63 81.6343 129.488 82.2069C130.007 82.3675 129.958 83.0554 129.249 83.1543C127.305 83.4262 126.687 83.4673 125.043 84.2253C124.309 84.563 123.889 83.9163 124.775 83.352H124.779Z" fill="#051634"/>
<path d="M138.462 80.6417C137.609 80.2874 136.702 80.5263 135.924 80.7735C135.405 80.9383 135.215 81.5479 135.928 81.5973C137.889 81.7333 137.819 81.5149 138.758 81.7168C139.426 81.8609 139.434 81.0454 138.462 80.6417Z" fill="#051634"/>
<path d="M131.046 87.2199C131.12 87.7224 130.918 88.1714 130.588 88.2208C130.259 88.2703 129.929 87.9037 129.855 87.397C129.781 86.8945 129.987 86.4455 130.316 86.3961C130.646 86.3466 130.976 86.7132 131.05 87.2199H131.046Z" fill="#051634"/>
<path d="M139.039 85.7536C139.113 86.2561 138.911 86.7051 138.581 86.7545C138.252 86.804 137.922 86.4374 137.848 85.9307C137.774 85.4282 137.976 84.9792 138.305 84.9298C138.635 84.8803 138.965 85.2469 139.039 85.7536Z" fill="#051634"/>
<path d="M121.511 90.2231C120.794 88.872 119.455 87.0596 118.215 89.2469C116.41 92.4351 119.851 99.0175 123.077 97.5552C125.475 96.4678 121.886 90.9316 121.511 90.2231Z" fill="#E68E85"/>
<path d="M138.964 93.6216C138.964 93.6216 133.859 95.0633 131.474 95.1251C131.474 95.1251 132.36 97.6172 135.611 97.6254C138.866 97.6336 138.964 93.6216 138.964 93.6216Z" fill="white"/>
<path d="M135.532 105.352C136.624 105.217 137.737 104.982 138.701 104.582C139.727 104.154 140.472 103.425 141.016 102.51C139.793 102.803 138.124 103.124 136.311 103.252C132.673 103.511 125.326 102.539 125.326 102.539C126.431 104.467 130.246 108.582 134.881 108.495C135.252 108.487 135.611 108.438 135.965 108.355L135.528 105.348L135.532 105.352Z" fill="#C17169"/>
<path d="M296.449 90.0045C296.42 89.193 296.057 88.3816 295.481 87.8131C295.452 87.7884 295.427 87.7596 295.398 87.7349C295.744 88.5628 295.563 89.2919 295.563 89.2919L288.328 124.836C287.677 126.492 285.559 126.356 285.559 126.356L266.705 126.055C265.708 125.911 265.16 125.516 264.941 125.314C264.97 125.384 265.003 125.458 265.04 125.528C265.077 125.594 265.11 125.664 265.147 125.73C265.465 126.327 265.996 126.809 266.627 127.052C267.376 127.341 268.242 127.246 269.029 127.258C270.833 127.287 272.638 127.316 274.447 127.345C278.011 127.402 281.579 127.46 285.143 127.514C286.058 127.53 286.931 127.575 287.751 127.097C288.489 126.665 289 125.977 289.201 125.149C290.137 120.651 291.076 116.153 292.011 111.655C292.947 107.157 293.886 102.659 294.821 98.1604C295.345 95.6395 295.872 93.1227 296.395 90.6018C296.432 90.4041 296.461 90.2022 296.453 90.0045H296.449Z" fill="#4C85D4"/>
<path d="M285.559 126.356C285.559 126.356 287.677 126.492 288.328 124.836L295.563 89.2919C295.563 89.2919 295.744 88.5628 295.398 87.7349C295.11 87.4754 294.776 87.29 294.409 87.1664C293.948 87.0099 293.457 87.0099 292.975 87.0099C290.866 87.014 288.752 86.9481 286.638 86.9152C284.508 86.8822 282.374 86.8493 280.244 86.8122C279.189 86.7957 278.134 86.7792 277.079 86.7628C276.569 86.7545 276.058 86.7463 275.547 86.7381C275.069 86.7298 274.607 86.7175 274.142 86.8493C273.367 87.0717 272.667 87.5907 272.267 88.2951C272.036 88.6988 271.946 89.156 271.851 89.6091C271.74 90.1446 271.628 90.6801 271.517 91.2156C271.085 93.2875 270.652 95.3594 270.223 97.4355C269.362 101.575 268.501 105.711 267.636 109.851C266.783 113.953 265.926 118.06 265.073 122.163C264.97 122.661 264.867 123.155 264.764 123.654C264.645 124.222 264.723 124.791 264.941 125.318C265.16 125.516 265.708 125.915 266.705 126.059L285.559 126.36V126.356ZM265.831 124.441C265.547 124.111 265.502 123.699 265.584 123.287C265.679 122.809 265.782 122.336 265.881 121.858C266.083 120.878 266.289 119.901 266.49 118.921C266.894 116.989 267.294 115.061 267.698 113.129C268.501 109.282 269.3 105.435 270.104 101.588C270.903 97.7403 271.707 93.893 272.506 90.0457C272.679 89.2137 272.729 88.3363 273.45 87.7761C274.216 87.1829 275.168 87.323 276.078 87.3394C278.044 87.3765 280.009 87.4012 281.974 87.4342C283.948 87.4671 285.922 87.496 287.891 87.5289C288.876 87.5454 289.865 87.5619 290.849 87.5742C291.344 87.5825 291.838 87.5907 292.333 87.599C292.761 87.6072 293.218 87.566 293.639 87.6525C294.335 87.8008 294.821 88.4557 294.673 89.1684C293.869 93.028 293.066 96.8918 292.258 100.751C291.455 104.599 290.656 108.446 289.852 112.293C289.448 114.225 289.049 116.153 288.645 118.085C288.443 119.049 288.241 120.017 288.043 120.981C287.945 121.45 287.846 121.924 287.751 122.393C287.652 122.863 287.582 123.349 287.45 123.81C287.24 124.535 286.556 125.063 285.827 125.186C285.394 125.26 284.937 125.215 284.5 125.203C284.006 125.19 283.507 125.182 283.013 125.178C281.039 125.145 279.065 125.116 277.092 125.083C275.118 125.05 273.145 125.021 271.171 124.989C270.203 124.972 269.235 124.96 268.27 124.943C267.805 124.935 267.335 124.96 266.87 124.923C266.47 124.89 266.083 124.75 265.815 124.441H265.831Z" fill="#529AE3"/>
<path d="M294.685 89.1681C294.277 91.1247 293.87 93.0854 293.462 95.042C293.054 96.9986 292.646 98.9552 292.238 100.916C291.83 102.868 291.426 104.817 291.018 106.769C290.61 108.722 290.207 110.67 289.799 112.623C289.391 114.579 288.983 116.536 288.575 118.496C288.373 119.477 288.167 120.453 287.965 121.433C287.866 121.915 287.763 122.397 287.664 122.879C287.615 123.122 287.561 123.369 287.512 123.612C287.475 123.794 287.426 123.967 287.339 124.127C287.001 124.766 286.28 125.194 285.563 125.215C285.081 125.227 284.595 125.202 284.113 125.194C283.614 125.186 283.112 125.178 282.613 125.17C280.611 125.137 278.612 125.108 276.61 125.075C274.607 125.042 272.609 125.013 270.607 124.98C269.614 124.964 268.621 124.947 267.628 124.931C267.22 124.922 266.779 124.964 266.388 124.819C266.099 124.712 265.844 124.51 265.695 124.234C265.539 123.95 265.518 123.633 265.58 123.324C265.679 122.834 265.782 122.344 265.885 121.858C266.087 120.877 266.293 119.901 266.495 118.921C266.903 116.964 267.31 115.008 267.718 113.047C268.126 111.094 268.53 109.146 268.938 107.194C269.346 105.241 269.75 103.293 270.158 101.34C270.565 99.3836 270.973 97.427 271.381 95.4663C271.789 93.5097 272.197 91.549 272.605 89.5924C272.687 89.1887 272.729 88.7439 272.93 88.3772C273.104 88.0642 273.371 87.8047 273.676 87.6193C273.989 87.4298 274.356 87.3186 274.723 87.3145C275.217 87.3104 275.712 87.331 276.206 87.3392C278.2 87.3722 280.194 87.401 282.189 87.434C284.191 87.4669 286.189 87.4957 288.192 87.5287C289.193 87.5452 290.194 87.5617 291.191 87.5781C291.686 87.5864 292.176 87.5946 292.671 87.6028C293.078 87.6111 293.507 87.5699 293.894 87.7264C294.479 87.9571 294.813 88.5544 294.685 89.1722V89.1681Z" fill="#051634"/>
<path d="M295.122 93.9219C294.99 93.8971 294.863 93.9795 294.838 94.1113L293.293 101.555C293.268 101.686 293.351 101.814 293.482 101.839C293.614 101.864 293.742 101.781 293.767 101.649L295.312 94.2061C295.337 94.0743 295.254 93.9466 295.122 93.9219Z" fill="white"/>
<path d="M295.283 93.9546C295.151 93.9299 295.023 94.0122 294.998 94.144L293.453 101.587C293.429 101.719 293.511 101.847 293.643 101.872C293.775 101.896 293.902 101.814 293.927 101.682L295.472 94.2388C295.497 94.107 295.415 93.9793 295.283 93.9546Z" fill="#051634"/>
<path d="M285.67 88.225L280.384 88.1426C280.26 88.1426 280.153 88.2414 280.153 88.365C280.153 88.4886 280.252 88.5957 280.376 88.5957L285.662 88.6781C285.786 88.6781 285.893 88.5792 285.893 88.4556C285.893 88.3321 285.794 88.225 285.67 88.225Z" fill="white"/>
<path d="M279.717 88.3568C279.717 88.4845 279.609 88.5833 279.486 88.5792C279.362 88.5751 279.259 88.4721 279.263 88.3485C279.263 88.2208 279.37 88.122 279.494 88.1261C279.618 88.1302 279.721 88.2332 279.717 88.3568Z" fill="white"/>
<path d="M286.791 88.4681C286.791 88.5958 286.684 88.6947 286.56 88.6905C286.436 88.6864 286.333 88.5834 286.338 88.4599C286.342 88.3363 286.445 88.2333 286.568 88.2374C286.692 88.2415 286.795 88.3445 286.791 88.4681Z" fill="white"/>
</g>
</svg>
