<svg width="24" height="24" viewBox="0 0 24 24" fill="none" xmlns="http://www.w3.org/2000/svg">
<g clip-path="url(#clip0_250_107)">
<path d="M18 0H6C2.68629 0 0 2.68629 0 6V18C0 21.3137 2.68629 24 6 24H18C21.3137 24 24 21.3137 24 18V6C24 2.68629 21.3137 0 18 0Z" fill="#FFE266" fill-opacity="0.45"/>
</g>
<path fill-rule="evenodd" clip-rule="evenodd" d="M10.8852 10.6102C11.4295 11.0982 11.4295 11.9018 10.8852 12.3898L10.8108 12.4564C9.41574 13.7066 8.33807 14.6719 8.01322 16.6953C7.89828 17.4087 8.54934 18 9.33292 18H12.5H15.6671C16.4507 18 17.1017 17.4087 16.9868 16.6953C16.662 14.6719 15.5842 13.7066 14.1892 12.4564L14.1148 12.3898C13.5705 11.9018 13.5705 11.0982 14.1148 10.6102L14.1892 10.5436C15.5842 9.29348 16.662 8.32816 16.9868 6.30476C17.1017 5.59129 16.4507 5 15.6671 5H12.5H9.33292C8.54934 5 7.89828 5.59129 8.01322 6.30476C8.33807 8.32816 9.41574 9.29348 10.8108 10.5436L10.8852 10.6102ZM11.3581 9.50676L11.353 9.50271C10.2899 8.61015 9.49889 7.94571 9.39579 6.30238C9.38937 6.20129 9.43602 6.11052 9.51208 6.05038C9.57124 6.00333 9.64864 5.975 9.73315 5.975H12.5H15.2665C15.3662 5.975 15.4562 6.01451 15.518 6.0776C15.5758 6.13631 15.6093 6.2155 15.6038 6.30238C15.5008 7.94571 14.7097 8.61015 13.647 9.50271C13.3657 9.73877 13.0655 9.99084 12.7542 10.2812C12.6139 10.412 12.3857 10.412 12.2455 10.2812C11.9358 9.99251 11.6374 9.74162 11.3581 9.50676Z" fill="#FFE266"/>
<defs>
<clipPath id="clip0_250_107">
<rect width="24" height="24" fill="white"/>
</clipPath>
</defs>
</svg>
