<svg width="250" height="326" viewBox="0 0 250 326" fill="none" xmlns="http://www.w3.org/2000/svg">
<path d="M172.873 16.3764C167.293 12.4664 161.133 10.8364 156.413 11.5964L153.923 9.85645L150.683 14.0764C146.873 19.5064 150.843 28.8564 159.553 34.9664C168.263 41.0764 178.403 41.6264 182.213 36.1964L185.453 31.9764L182.963 30.2364C182.073 25.5464 178.443 20.3064 172.863 16.3864L172.873 16.3764Z" fill="#3554C4"/>
<path d="M185.489 31.9537C189.299 26.5237 185.327 17.1696 176.619 11.0609C167.911 4.95217 157.764 4.40199 153.955 9.83205C150.146 15.2621 154.117 24.6162 162.825 30.7249C171.533 36.8336 181.68 37.3838 185.489 31.9537Z" fill="#4E76E5"/>
<path d="M184.663 28.1364C184.473 28.7564 184.193 29.3364 183.823 29.8564C182.293 32.0464 179.413 33.0664 175.713 32.7364C172.103 32.4164 168.123 30.8464 164.503 28.3064C160.883 25.7664 158.043 22.5564 156.513 19.2764C154.943 15.9164 154.923 12.8564 156.463 10.6664C157.993 8.47642 160.873 7.45642 164.573 7.78642C168.183 8.10642 172.163 9.67642 175.783 12.2164C179.403 14.7564 182.243 17.9664 183.773 21.2464C184.963 23.7964 185.263 26.1764 184.663 28.1264V28.1364ZM156.483 12.6564C155.953 14.3964 156.233 16.5564 157.323 18.9064C158.793 22.0564 161.523 25.1364 165.013 27.5864C172.153 32.5964 180.273 33.3864 183.103 29.3564C185.933 25.3264 182.423 17.9664 175.283 12.9564C168.143 7.94642 160.023 7.15642 157.193 11.1864C156.883 11.6364 156.643 12.1264 156.483 12.6564Z" fill="white"/>
<path d="M177.483 25.6267L175.463 24.2067C174.863 25.0167 173.903 25.6167 173.053 25.7667L171.953 24.4867C172.793 24.3067 173.693 23.8367 174.253 23.0367C174.963 22.0267 174.623 20.7667 173.483 19.9667C172.383 19.1967 171.313 19.2667 169.973 19.9067C168.153 20.7967 166.603 21.0467 164.863 19.8267C163.203 18.6567 162.523 16.9367 163.143 15.4167L161.123 13.9967L161.743 13.1167L163.683 14.4767C164.323 13.6467 165.053 13.2867 165.683 13.1167L166.753 14.3967C166.303 14.5267 165.453 14.7967 164.813 15.7167C164.043 16.8167 164.673 17.8767 165.473 18.4367C166.513 19.1667 167.403 19.0067 168.993 18.2767C170.863 17.3967 172.423 17.3867 174.203 18.6367C175.783 19.7467 176.723 21.5667 176.033 23.2767L178.113 24.7367L177.483 25.6367V25.6267Z" fill="white"/>
<path d="M173.153 45.4466C168.993 44.7466 164.853 44.6666 160.953 42.8966C159.283 42.1366 157.833 41.1666 156.463 39.9766C155.203 38.8766 153.883 37.7466 153.623 36.0066C153.383 34.3766 150.903 35.0666 151.143 36.6866C151.413 38.5166 152.633 39.9666 153.953 41.1766C155.463 42.5666 157.053 43.8166 158.883 44.7466C160.813 45.7166 162.883 46.4866 165.013 46.9066C167.473 47.3966 169.993 47.5066 172.473 47.9266C174.093 48.1966 174.783 45.7266 173.153 45.4466Z" fill="#3554C4"/>
<path d="M225.723 56.657C232.203 50.457 235.893 42.917 236.123 36.637L239.013 33.877L234.403 28.607C228.373 22.297 215.283 25.027 205.163 34.697C195.043 44.367 191.733 57.327 197.763 63.637L202.373 68.907L205.263 66.147C211.543 66.197 219.253 62.857 225.733 56.667L225.723 56.657Z" fill="#3554C4"/>
<path d="M231.634 62.842C241.754 53.1676 245.07 40.2116 239.04 33.9039C233.01 27.5963 219.918 30.3256 209.798 40C199.678 49.6744 196.362 62.6304 202.392 68.9381C208.421 75.2457 221.514 72.5164 231.634 62.842Z" fill="#4E76E5"/>
<path d="M207.513 68.8569C206.763 68.4569 206.083 67.9469 205.503 67.3369C203.073 64.7969 202.493 60.8169 203.863 56.1269C205.203 51.5469 208.253 46.8169 212.463 42.7969C216.673 38.7769 221.533 35.9369 226.173 34.8069C230.923 33.6469 234.873 34.4069 237.303 36.9469C239.733 39.4869 240.313 43.4669 238.943 48.1569C237.603 52.7369 234.553 57.4669 230.343 61.4869C226.133 65.5069 221.273 68.3469 216.633 69.4769C213.033 70.3569 209.883 70.1269 207.513 68.8569ZM234.733 36.4469C232.623 35.3169 229.763 35.1269 226.443 35.9369C222.003 37.0169 217.323 39.7569 213.263 43.6369C204.963 51.5669 201.853 61.8469 206.343 66.5269C210.823 71.2169 221.223 68.5769 229.523 60.6369C237.823 52.7069 240.933 42.4369 236.443 37.7469C235.943 37.2269 235.373 36.7969 234.723 36.4469H234.733Z" fill="white"/>
<path d="M212.593 60.2369L214.943 57.9869C214.053 57.0069 213.523 55.6069 213.543 54.4769L215.483 53.3869C215.493 54.5169 215.873 55.7969 216.763 56.7269C217.883 57.8969 219.603 57.7869 220.923 56.5169C222.203 55.2969 222.373 53.8869 221.903 51.9969C221.223 49.4169 221.293 47.3569 223.323 45.4169C225.253 43.5669 227.653 43.1469 229.463 44.3369L231.813 42.0869L232.793 43.1169L230.533 45.2769C231.433 46.3169 231.713 47.3469 231.773 48.2069L229.843 49.2669C229.793 48.6569 229.653 47.4869 228.643 46.4269C227.423 45.1569 225.893 45.6969 224.963 46.5869C223.753 47.7469 223.733 48.9369 224.273 51.1769C224.923 53.8169 224.533 55.8369 222.463 57.8169C220.623 59.5769 218.033 60.3169 216.003 58.9869L213.583 61.2969L212.583 60.2569L212.593 60.2369Z" fill="white"/>
<path opacity="0.52" d="M234.463 290.987C234.463 291.997 177.983 292.817 155.013 292.817C132.043 292.817 9.08301 291.997 9.08301 290.987C9.08301 289.977 132.043 289.157 155.013 289.157C177.983 289.157 234.463 289.977 234.463 290.987Z" fill="#97AACC"/>
<path d="M33.1429 48.6665H37.4129C46.5929 48.6665 149.493 56.1065 149.493 65.2865V274.537C149.493 283.717 142.053 291.157 132.873 291.157H33.1429C23.9629 291.157 16.5229 283.717 16.5229 274.537V65.2965C16.5229 56.1165 23.9629 48.6765 33.1429 48.6765V48.6665Z" fill="#54678C"/>
<path d="M138.713 48.6665H38.973C29.7941 48.6665 22.353 56.1075 22.353 65.2865V274.537C22.353 283.715 29.7941 291.157 38.973 291.157H138.713C147.892 291.157 155.333 283.715 155.333 274.537V65.2865C155.333 56.1075 147.892 48.6665 138.713 48.6665Z" fill="white"/>
<path d="M39.5327 51.0166H137.953C146.103 51.0166 152.703 57.6166 152.703 65.7666V274.177C152.703 282.377 146.053 289.017 137.863 289.017H40.7027C31.9127 289.017 24.7827 281.887 24.7827 273.097V65.7666C24.7827 57.6166 31.3827 51.0166 39.5327 51.0166Z" fill="#8BB6EF"/>
<path d="M74.3329 58.9067L104.253 58.9067C104.772 58.9067 105.193 58.4859 105.193 57.9667V57.4867C105.193 56.9676 104.772 56.5467 104.253 56.5467L74.3329 56.5467C73.8137 56.5467 73.3929 56.9676 73.3929 57.4867V57.9667C73.3929 58.4859 73.8137 58.9067 74.3329 58.9067Z" fill="#434A59"/>
<path d="M108.303 57.7366C108.303 58.3866 108.833 58.9166 109.483 58.9166C110.133 58.9166 110.663 58.3866 110.663 57.7366C110.663 57.0866 110.133 56.5566 109.483 56.5566C108.833 56.5566 108.303 57.0866 108.303 57.7366Z" fill="#434A59"/>
<path d="M68.6528 57.7366C68.6528 58.3866 69.1828 58.9166 69.8328 58.9166C70.4828 58.9166 71.0128 58.3866 71.0128 57.7366C71.0128 57.0866 70.4828 56.5566 69.8328 56.5566C69.1828 56.5566 68.6528 57.0866 68.6528 57.7366Z" fill="#434A59"/>
<path d="M152.713 65.7665C152.713 64.0665 152.423 62.4365 151.893 60.9165C141.173 72.1265 126.423 87.6665 123.083 91.8865C117.693 98.6865 72.543 116.587 65.063 126.007C60.193 132.127 39.833 152.627 24.793 167.027V251.617C39.393 242.977 60.723 229.846 68.663 222.447C81.203 210.747 94.143 185.836 104.813 178.706C115.483 171.576 143.673 158.646 149.513 154.286C150.323 153.676 151.423 152.336 152.723 150.486V65.7665H152.713Z" fill="#C9E0FF"/>
<path d="M96.1932 271.306C96.1932 273.826 94.1432 275.876 91.6232 275.876C89.1032 275.876 87.0532 273.826 87.0532 271.306C87.0532 268.786 89.1032 266.736 91.6232 266.736C94.1432 266.736 96.1932 268.786 96.1932 271.306Z" fill="#EAEAEA"/>
<path d="M69.1429 269.096H80.1229C80.5229 269.096 80.8428 268.776 80.8428 268.376C80.8428 267.976 80.5229 267.656 80.1229 267.656H69.1429C68.7429 267.656 68.4229 267.976 68.4229 268.376C68.4229 268.776 68.7429 269.096 69.1429 269.096Z" fill="#EAEAEA"/>
<path d="M80.1131 270.586H69.1331C68.7331 270.586 68.4131 270.906 68.4131 271.306C68.4131 271.706 68.7331 272.026 69.1331 272.026H80.1131C80.5131 272.026 80.8331 271.706 80.8331 271.306C80.8331 270.906 80.5131 270.586 80.1131 270.586Z" fill="#EAEAEA"/>
<path d="M80.1131 273.516H69.1331C68.7331 273.516 68.4131 273.836 68.4131 274.236C68.4131 274.636 68.7331 274.956 69.1331 274.956H80.1131C80.5131 274.956 80.8331 274.636 80.8331 274.236C80.8331 273.836 80.5131 273.516 80.1131 273.516Z" fill="#EAEAEA"/>
<path d="M103.223 267.656V274.946C103.223 275.326 103.663 275.546 103.963 275.326L108.893 271.686C109.143 271.496 109.143 271.126 108.893 270.936L103.963 267.296C103.653 267.066 103.223 267.296 103.223 267.676V267.656Z" fill="#EAEAEA"/>
<path d="M76.0174 145.792L75.4905 197.729C75.4624 200.499 77.6895 202.772 80.4594 202.8L101.438 203.013C104.208 203.041 106.481 200.814 106.509 198.044L107.036 146.107L117.295 146.211C119.585 146.234 120.931 143.657 119.62 141.784L94.2144 105.755C93.1102 104.193 90.8003 104.17 89.6647 105.708L63.5332 141.215C62.1744 143.061 63.478 145.665 65.7679 145.688L76.0274 145.792L76.0174 145.792Z" fill="#00AD21"/>
<path d="M166.023 288.036C167.423 288.246 168.193 289.416 168.333 289.916C168.503 290.526 170.073 290.126 171.123 289.476C172.173 288.826 172.403 287.906 173.373 286.646C173.973 285.866 174.593 285.586 174.983 285.486C175.133 286.056 175.293 286.566 175.463 286.876C176.123 288.076 175.933 290.156 174.883 290.526C173.823 290.906 164.563 292.386 162.553 291.506C161.333 290.976 163.793 289.486 166.033 288.036H166.023Z" fill="#FFE266"/>
<path d="M173.373 286.646C172.403 287.906 172.173 288.826 171.123 289.476C170.073 290.126 168.503 290.526 168.333 289.916C168.193 289.416 167.433 288.246 166.023 288.036C167.493 287.096 168.863 286.166 169.063 285.546C169.563 283.976 169.503 281.636 170.133 281.166C170.763 280.696 174.113 280.596 174.293 281.766C174.293 281.766 174.563 283.886 174.973 285.476C174.583 285.576 173.963 285.856 173.363 286.636L173.373 286.646Z" fill="#FF9C93"/>
<path d="M214.313 286.937C212.933 287.277 212.283 288.517 212.193 289.027C212.083 289.647 210.473 289.397 209.373 288.847C208.273 288.297 207.953 287.397 206.873 286.237C206.203 285.517 205.563 285.297 205.163 285.227C205.073 285.807 204.953 286.327 204.813 286.657C204.263 287.907 204.653 289.967 205.733 290.237C206.823 290.517 216.173 291.117 218.103 290.057C219.263 289.407 216.683 288.157 214.313 286.937Z" fill="#FFE266"/>
<path d="M206.873 286.236C207.953 287.396 208.273 288.296 209.373 288.846C210.473 289.396 212.083 289.646 212.193 289.026C212.283 288.516 212.933 287.276 214.313 286.936C212.763 286.136 211.313 285.346 211.053 284.746C210.403 283.226 210.243 280.896 209.573 280.486C208.903 280.076 205.553 280.296 205.493 281.476C205.493 281.476 205.423 283.606 205.163 285.236C205.563 285.296 206.203 285.526 206.873 286.246V286.236Z" fill="#FF9C93"/>
<path d="M176.843 124.726C176.843 124.726 177.303 123.606 178.903 123.416C180.513 123.216 182.223 124.456 183.163 125.796C184.103 127.136 182.933 133.116 180.073 132.966C177.213 132.816 176.913 125.176 176.833 124.726H176.843Z" fill="#931622"/>
<path d="M145.783 153.956C148.003 154.206 150.523 154.326 153.023 154.256C157.203 154.126 161.323 153.426 163.913 151.776C164.313 151.526 164.683 151.246 165.033 150.956C169.273 147.356 169.623 141.076 170.843 137.866L144.203 142.896C144.203 142.896 116.493 124.966 114.133 127.166C111.783 129.366 132.223 152.446 145.783 153.966V153.956Z" fill="#FF9C93"/>
<path d="M148.613 141.456L150.813 154.936C150.813 154.936 158.693 154.936 162.743 152.966C166.793 150.996 173.823 141.696 173.823 140.276C173.823 138.866 172.803 137.126 172.803 137.126L148.603 141.456H148.613Z" fill="#F6F958"/>
<path d="M185.573 156.236C185.033 147.356 189.423 143.526 185.123 139.706C181.393 136.386 180.343 136.526 176.573 136.436C173.403 136.366 166.913 139.136 164.913 141.796C158.543 150.296 162.413 150.006 161.413 162.516C161.293 164.016 161.093 165.696 160.833 167.416C160.543 169.876 160.373 172.606 159.963 174.886C169.003 177.036 184.523 179.436 189.413 178.646C189.213 177.896 185.633 157.306 185.563 156.226L185.573 156.236Z" fill="#F6F958"/>
<path d="M162.033 230.196C162.203 231.506 163.473 240.656 163.993 244.066C165.513 254.096 167.453 281.676 167.453 281.676C167.453 281.676 169.853 283.156 173.983 283.136C180.823 283.106 184.053 281.676 184.053 281.676C184.053 281.676 180.383 237.636 180.123 234.576C178.833 219.216 177.543 203.886 177.383 201.776L201.163 281.686C201.163 281.686 203.373 282.806 208.163 282.846C212.643 282.876 214.773 281.686 214.773 281.686C214.773 281.686 213.263 274.906 212.763 272.646L209.763 259.166L208.243 252.346L206.263 243.416C199.533 207.796 191.683 185.856 188.623 176.196C187.353 176.406 185.403 176.566 183.063 176.646C182.773 176.646 182.473 176.666 182.163 176.676C175.603 176.836 166.413 176.416 159.923 174.886C159.783 176.316 159.103 179.486 158.913 180.566C158.113 185.286 158.313 198.066 158.963 203.906C159.693 210.536 160.633 219.536 162.033 230.226V230.196Z" fill="#A18700"/>
<path d="M173.413 189.136C174.623 191.726 175.383 194.476 176.223 197.206C176.633 198.536 177.033 199.906 177.633 201.156C178.183 202.306 178.813 203.436 178.833 204.746C178.843 205.436 177.773 205.436 177.763 204.746C177.743 203.476 177.003 202.386 176.503 201.256C175.963 200.046 175.583 198.756 175.183 197.486C174.373 194.856 173.643 192.176 172.483 189.676C172.193 189.056 173.113 188.516 173.403 189.136H173.413Z" fill="#625200"/>
<path d="M170.483 191.176C171.633 192.386 173.043 193.976 174.703 194.426C175.363 194.606 175.083 195.636 174.423 195.456C172.563 194.956 171.013 193.276 169.723 191.926C169.253 191.426 170.003 190.666 170.483 191.166V191.176Z" fill="#625200"/>
<path d="M143.803 142.196C144.753 142.726 145.623 143.396 146.563 143.946C146.893 144.136 146.593 144.656 146.263 144.456C145.323 143.906 144.453 143.246 143.503 142.706C143.173 142.516 143.473 142.006 143.803 142.196Z" fill="#C66C67"/>
<path d="M179.973 131.316L180.483 137.206C180.553 138.266 178.063 141.136 176.303 139.876C175.793 139.506 176.363 138.016 176.763 136.886L177.743 132.316L179.973 131.306V131.316Z" fill="#FF9C93"/>
<path d="M179.963 127.656C179.963 127.656 180.283 129.296 180.203 130.496C180.083 132.256 178.873 133.026 177.103 133.146C175.383 133.266 174.813 132.866 174.503 131.656C174.423 131.356 174.363 130.916 174.383 130.506C174.423 129.836 174.753 128.716 175.273 128.006C175.513 127.686 175.693 127.156 175.823 126.896C176.833 125.016 179.313 125.176 179.963 127.666V127.656Z" fill="#FF9C93"/>
<path d="M180.403 129.156C180.503 128.966 180.573 128.766 180.623 128.566C180.733 128.176 180.983 127.626 181.483 128.066C182.213 128.716 181.523 130.756 180.513 130.646C179.763 130.566 180.153 129.636 180.393 129.156H180.403Z" fill="#FF9C93"/>
<path d="M179.203 132.147C179.333 132.427 178.693 134.747 177.123 135.217L177.383 133.667C177.423 133.427 177.343 133.137 177.103 133.147C175.693 133.247 175.053 132.997 174.703 132.237C175.023 132.397 175.773 132.717 176.583 132.687C177.663 132.657 179.073 131.847 179.213 132.147H179.203Z" fill="#C66C67"/>
<path d="M177.363 130.216C176.533 130.276 175.583 130.066 175.233 129.886C175.113 129.826 174.963 129.906 174.953 130.036C174.813 132.446 177.003 131.466 177.493 130.496C177.563 130.356 177.523 130.206 177.363 130.216Z" fill="white"/>
<path d="M178.793 127.586C178.413 127.266 178.083 127.026 177.553 127.116C177.403 127.146 177.393 127.326 177.583 127.376C178.103 127.516 178.263 127.546 178.683 127.806C178.873 127.926 179.003 127.766 178.783 127.576L178.793 127.586Z" fill="#931622"/>
<path d="M175.393 127.077C175.603 126.937 175.863 126.957 176.083 126.977C176.233 126.997 176.313 127.147 176.123 127.197C175.603 127.337 175.613 127.277 175.373 127.377C175.203 127.447 175.153 127.237 175.393 127.077Z" fill="#931622"/>
<path d="M119.393 128.826C116.603 127.416 115.333 125.736 114.263 124.796C112.363 123.136 109.073 120.786 108.513 121.386C108.103 121.816 110.933 123.436 110.933 123.436C110.933 123.436 109.613 125.146 110.073 126.306C110.533 127.466 114.773 131.256 116.543 130.786C118.313 130.316 121.193 129.736 119.403 128.826H119.393Z" fill="#FF9C93"/>
<path d="M184.523 140.396C185.873 139.876 211.543 148.296 215.863 167.016C219.123 181.156 193.933 193.246 192.093 190.396C188.613 185.016 204.243 176.226 204.683 168.866C205.123 161.516 174.703 144.166 184.533 140.386L184.523 140.396Z" fill="#FF9C93"/>
<path d="M190.083 187.376C188.683 187.246 187.053 186.266 187.403 187.356C187.763 188.446 189.223 188.476 189.543 189.216C189.863 189.956 185.783 192.496 186.423 193.116C186.843 193.526 188.763 191.646 188.833 191.806C188.903 191.966 186.823 193.626 187.373 194.126C188.043 194.726 189.103 194.866 190.113 194.386C189.923 194.686 189.803 194.966 189.943 195.106C190.313 195.496 197.073 189.886 193.343 187.846C192.533 187.406 192.253 187.586 190.093 187.386L190.083 187.376Z" fill="#FF9C93"/>
<path d="M195.993 159.026L203.203 149.296C203.203 149.296 193.813 140.856 183.183 138.106C183.183 138.106 182.063 138.626 181.853 142.156C181.473 148.566 191.893 156.456 195.983 159.026H195.993Z" fill="#F6F958"/>
<path d="M176.843 124.726C176.843 124.726 175.793 126.036 175.723 126.316C175.653 126.596 179.503 127.206 179.963 127.666C180.423 128.126 180.393 127.236 180.323 126.816C180.253 126.396 179.203 123.316 176.853 124.736L176.843 124.726Z" fill="#931622"/>
<path d="M181.543 124.716C181.543 124.716 183.903 122.546 186.143 123.756C188.373 124.966 187.883 130.056 188.493 130.996C189.103 131.936 191.023 130.266 192.943 131.706C194.863 133.146 194.083 136.256 191.553 137.296C189.023 138.336 186.673 137.316 185.793 136.466C184.913 135.616 184.323 135.156 184.073 132.696C183.993 131.936 183.523 127.686 182.783 127.236C182.043 126.786 181.043 125.096 181.543 124.706V124.716Z" fill="#931622"/>
<path d="M205.663 172.626C204.893 172.626 204.243 172.036 204.173 171.266C203.973 169.096 202.983 167.306 202.973 167.296C202.563 166.576 202.823 165.656 203.543 165.256C204.263 164.846 205.173 165.096 205.583 165.816C205.633 165.906 206.903 168.156 207.163 170.996C207.233 171.826 206.633 172.546 205.803 172.626C205.753 172.626 205.713 172.626 205.663 172.626Z" fill="#C66C67"/>
<path d="M166.103 140.206C164.593 142.246 162.433 143.926 161.613 146.406C160.823 148.756 160.773 151.556 161.513 153.926C161.673 154.446 162.483 154.226 162.323 153.706C161.593 151.366 161.663 148.506 162.573 146.216C163.423 144.076 165.483 142.466 166.833 140.636C167.153 140.196 166.423 139.776 166.103 140.216V140.206Z" fill="#E8D529"/>
<path d="M126.923 142.886C125.133 141.246 123.143 139.766 121.433 138.066C119.803 136.446 118.443 134.616 117.093 132.746C116.183 131.486 115.513 130.306 114.183 129.406C112.543 128.296 109.463 126.086 110.943 123.766C111.233 123.306 110.503 122.886 110.213 123.346C108.983 125.286 110.143 126.826 111.423 128.286C112.173 129.146 113.123 129.616 114.013 130.296C114.913 130.996 115.453 131.856 116.063 132.786C117.193 134.526 118.543 136.336 120.013 137.806C122.013 139.806 124.233 141.556 126.323 143.476C126.723 143.846 127.313 143.246 126.923 142.886Z" fill="#FFE164"/>
<path d="M187.783 151.236C187.083 150.496 186.233 150.006 185.393 149.456C184.393 148.806 183.463 148.056 182.483 147.396C182.083 147.126 181.503 147.576 181.663 148.026C181.673 148.056 181.683 148.086 181.693 148.116C181.763 148.336 181.933 148.456 182.103 148.486C182.933 149.056 183.733 149.676 184.563 150.246C185.403 150.816 186.283 151.286 186.993 152.026C187.493 152.556 188.283 151.756 187.783 151.236Z" fill="#E8D529"/>
<path d="M162.133 155.786C162.113 155.606 162.023 155.416 161.823 155.376C161.793 155.376 161.763 155.366 161.733 155.356C161.283 155.266 161.053 155.846 161.323 156.076C161.493 157.896 161.033 159.896 160.863 161.686C160.723 163.146 160.633 164.616 160.513 166.086C160.233 169.526 159.953 173.286 158.933 176.586C158.773 177.106 159.583 177.326 159.743 176.806C160.763 173.496 160.973 169.886 161.323 166.456C161.493 164.816 161.583 163.166 161.733 161.526C161.903 159.676 162.373 157.616 162.133 155.766V155.786Z" fill="#E8D529"/>
<path d="M166.013 137.806C162.523 138.086 158.963 138.986 155.553 139.726C153.833 140.106 152.093 140.396 150.373 140.796C148.613 141.206 146.913 142.016 145.123 142.296C144.593 142.386 144.813 143.196 145.343 143.106C146.963 142.846 148.513 142.146 150.093 141.726C151.783 141.276 153.533 141.026 155.243 140.646C158.753 139.886 162.413 138.926 166.003 138.636C166.543 138.596 166.543 137.746 166.003 137.796L166.013 137.806Z" fill="#E8D529"/>
<path d="M10.933 310.426C10.933 310.426 0.822953 310.856 0.0429534 313.806C-0.737047 316.756 9.26295 320.296 17.273 321.616C25.273 322.946 44.543 326.766 59.833 324.566C75.123 322.356 85.9529 319.956 86.4529 317.176C86.9529 314.406 83.783 311.456 77.9529 311.826C72.1229 312.196 10.943 310.426 10.943 310.426H10.933Z" fill="#8BB6EF"/>
<path d="M74.4528 302.946L74.3128 312.396C74.2228 313.776 73.2828 315.076 71.6428 316.276C70.7728 316.916 69.6928 317.516 68.4528 318.086C67.0828 318.706 65.4928 319.286 63.7228 319.806C62.7428 320.096 61.6928 320.366 60.6028 320.626C54.5828 322.016 47.0228 322.816 38.8728 322.756C19.6828 322.616 4.42284 317.746 4.80284 311.876L4.94284 302.426C4.94284 302.426 27.7128 304.966 40.0128 305.066C48.3928 305.126 61.3328 304.126 68.7328 303.476C69.5629 303.406 70.3228 303.336 70.9928 303.276C73.1428 303.076 74.4528 302.946 74.4528 302.946Z" fill="#3554C4"/>
<path d="M74.4626 302.846C74.0826 308.706 58.2226 313.346 39.0226 313.206C37.8026 313.206 36.6026 313.166 35.4126 313.116C31.5826 312.966 27.9526 312.626 24.6226 312.136C12.7526 310.376 4.6726 306.616 4.9426 302.326C5.3226 296.466 21.1826 291.826 40.3826 291.966C46.1626 292.006 51.5926 292.476 56.3426 293.286C56.5926 293.326 56.8426 293.376 57.0926 293.416C58.6326 293.686 60.0926 293.996 61.4726 294.336C62.7726 294.656 63.9926 295.006 65.1326 295.386C71.0726 297.346 74.6426 299.976 74.4526 302.846H74.4626Z" fill="#4E76E5"/>
<path d="M70.313 302.816C69.983 307.886 55.993 311.916 39.113 311.786C22.233 311.656 8.77299 307.426 9.09299 302.356C9.42299 297.286 23.413 293.256 40.293 293.386C57.173 293.516 70.633 297.746 70.313 302.816ZM11.003 302.376C10.703 307.086 23.323 311.026 39.153 311.146C54.973 311.266 68.093 307.526 68.403 302.816C68.703 298.106 56.083 294.166 40.253 294.046C24.433 293.926 11.313 297.666 11.003 302.376Z" fill="white"/>
<path d="M38.593 309.356V307.686C36.703 307.666 34.743 307.376 33.603 306.956L34.383 305.846C35.553 306.246 37.253 306.556 39.073 306.556C41.383 306.556 42.953 305.876 42.953 304.936C42.953 303.996 41.683 303.466 39.273 302.966C35.943 302.306 33.893 301.546 33.893 300.106C33.893 298.666 35.813 297.696 38.813 297.446V295.776H40.833V297.376C42.793 297.406 44.123 297.676 45.073 297.956L44.253 299.046C43.573 298.846 42.233 298.486 40.143 298.486C37.633 298.486 36.683 299.246 36.683 299.906C36.683 300.766 37.893 301.196 40.723 301.786C44.083 302.476 45.773 303.336 45.773 304.806C45.773 306.106 43.983 307.336 40.623 307.616V309.336H38.573L38.593 309.356Z" fill="white"/>
<path d="M86.5031 292.236L86.3631 301.686C86.2731 303.066 85.3331 304.366 83.6931 305.566C82.8231 306.206 81.7431 306.806 80.5031 307.376C79.1331 307.996 77.5431 308.576 75.7731 309.096C74.7931 309.386 73.7431 309.656 72.6531 309.916C66.6331 311.306 59.0731 312.106 50.9231 312.046C31.7331 311.906 16.4731 307.036 16.8531 301.166L16.9931 291.716C16.9931 291.716 39.7631 294.256 52.0631 294.356C60.4431 294.416 73.3831 293.416 80.7831 292.766C81.6131 292.696 82.3731 292.626 83.0431 292.566C85.1931 292.366 86.5031 292.236 86.5031 292.236Z" fill="#3554C4"/>
<path d="M86.5031 292.136C86.1231 297.996 70.2631 302.636 51.0631 302.496C49.8431 302.496 48.6431 302.456 47.4531 302.406C43.6231 302.256 39.9931 301.916 36.6631 301.426C24.7931 299.666 16.7131 295.906 16.9831 291.616C17.3631 285.756 33.2231 281.117 52.4231 281.257C58.2031 281.297 63.6331 281.766 68.3831 282.576C68.6331 282.616 68.8831 282.666 69.1331 282.706C70.6731 282.976 72.1331 283.286 73.5131 283.626C74.8131 283.946 76.0331 284.296 77.1731 284.676C83.1131 286.636 86.6831 289.266 86.4931 292.136H86.5031Z" fill="#4E76E5"/>
<path d="M82.3633 292.106C82.0333 297.176 68.0433 301.206 51.1633 301.076C34.2833 300.946 20.8233 296.716 21.1433 291.646C21.4733 286.576 35.4633 282.546 52.3433 282.676C69.2233 282.806 82.6833 287.036 82.3633 292.106ZM23.0533 291.666C22.7533 296.376 35.3733 300.316 51.2033 300.426C67.0233 300.546 80.1433 296.806 80.4533 292.096C80.7533 287.386 68.1333 283.446 52.3033 283.326C36.4833 283.206 23.3633 286.946 23.0533 291.656V291.666Z" fill="white"/>
<path d="M50.6433 298.657V296.987C48.7533 296.967 46.7933 296.677 45.6533 296.257L46.4333 295.147C47.6033 295.547 49.3033 295.857 51.1233 295.857C53.4333 295.857 55.0033 295.177 55.0033 294.237C55.0033 293.297 53.7333 292.767 51.3233 292.267C48.0033 291.607 45.9433 290.847 45.9433 289.407C45.9433 287.967 47.8633 286.997 50.8633 286.747V285.077H52.8833V286.677C54.8433 286.707 56.1733 286.977 57.1233 287.257L56.3033 288.347C55.6233 288.147 54.2833 287.787 52.1933 287.787C49.6833 287.787 48.7333 288.547 48.7333 289.207C48.7333 290.067 49.9433 290.497 52.7733 291.087C56.1333 291.777 57.8233 292.637 57.8233 294.107C57.8233 295.407 56.0333 296.637 52.6733 296.917V298.637H50.6233L50.6433 298.657Z" fill="white"/>
</svg>
