<svg width="322" height="350" viewBox="0 0 322 350" fill="none" xmlns="http://www.w3.org/2000/svg">
    <defs>
        <linearGradient id="paint0_linear_480_471" x1="193.573" y1="101.476" x2="175.539" y2="77.4337" gradientUnits="userSpaceOnUse">
            <stop/>
            <stop offset="1" stop-opacity="0"/>
        </linearGradient>
        <linearGradient id="paint1_linear_480_471" x1="191.462" y1="285.88" x2="309.067" y2="285.88" gradientUnits="userSpaceOnUse">
            <stop/>
            <stop offset="1" stop-opacity="0"/>
        </linearGradient>
        <linearGradient id="paint2_linear_480_471" x1="238.786" y1="249.578" x2="238.592" y2="267.26" gradientUnits="userSpaceOnUse">
            <stop stop-color="#68E1FD"/>
            <stop offset="1" stop-color="#69B9EB"/>
        </linearGradient>
        <linearGradient id="paint3_linear_480_471" x1="244.367" y1="294.575" x2="240.486" y2="281.126" gradientUnits="userSpaceOnUse">
            <stop/>
            <stop offset="0.84" stop-opacity="0"/>
        </linearGradient>
        <linearGradient id="paint4_linear_480_471" x1="201.722" y1="259.709" x2="319.326" y2="259.709" gradientUnits="userSpaceOnUse">
            <stop/>
            <stop offset="1" stop-opacity="0"/>
        </linearGradient>
        <linearGradient id="paint5_linear_480_471" x1="261.984" y1="266.727" x2="274.29" y2="283.441" gradientUnits="userSpaceOnUse">
            <stop offset="0.32" stop-color="white" stop-opacity="0"/>
            <stop offset="1" stop-color="white"/>
        </linearGradient>
        <linearGradient id="paint6_linear_480_471" x1="273.58" y1="212.884" x2="260.132" y2="230.988" gradientUnits="userSpaceOnUse">
            <stop/>
            <stop offset="1" stop-opacity="0"/>
        </linearGradient>
        <linearGradient id="paint7_linear_480_471" x1="278.833" y1="214.415" x2="246.29" y2="251.232" gradientUnits="userSpaceOnUse">
            <stop/>
            <stop offset="0.84" stop-opacity="0"/>
        </linearGradient>
        <linearGradient id="paint8_linear_480_471" x1="269.195" y1="244.695" x2="284.972" y2="249.297" gradientUnits="userSpaceOnUse">
            <stop/>
            <stop offset="1" stop-opacity="0"/>
        </linearGradient>
        <linearGradient id="paint9_linear_480_471" x1="231.961" y1="200.139" x2="231.762" y2="217.821" gradientUnits="userSpaceOnUse">
            <stop stop-color="#68E1FD"/>
            <stop offset="1" stop-color="#69B9EB"/>
        </linearGradient>
        <linearGradient id="paint10_linear_480_471" x1="185.67" y1="224.973" x2="277.76" y2="224.973" gradientUnits="userSpaceOnUse">
            <stop stop-color="#68E1FD"/>
            <stop offset="1" stop-color="#69B9EB"/>
        </linearGradient>
        <linearGradient id="paint11_linear_480_471" x1="197.735" y1="211.729" x2="315.328" y2="211.729" gradientUnits="userSpaceOnUse">
            <stop/>
            <stop offset="1" stop-opacity="0"/>
        </linearGradient>
        <linearGradient id="paint12_linear_480_471" x1="276.049" y1="194.353" x2="292.065" y2="213.389" gradientUnits="userSpaceOnUse">
            <stop offset="0.32" stop-color="white" stop-opacity="0"/>
            <stop offset="1" stop-color="white"/>
        </linearGradient>
        <linearGradient id="paint13_linear_480_471" x1="254.966" y1="173.517" x2="245.147" y2="200.755" gradientUnits="userSpaceOnUse">
            <stop/>
            <stop offset="1" stop-opacity="0"/>
        </linearGradient>
        <linearGradient id="paint14_linear_480_471" x1="260.741" y1="173.411" x2="248.91" y2="195.431" gradientUnits="userSpaceOnUse">
            <stop/>
            <stop offset="1" stop-opacity="0"/>
        </linearGradient>
        <linearGradient id="paint15_linear_480_471" x1="194.652" y1="187.013" x2="312.245" y2="187.013" gradientUnits="userSpaceOnUse">
            <stop/>
            <stop offset="1" stop-opacity="0"/>
        </linearGradient>
        <linearGradient id="paint16_linear_480_471" x1="250.411" y1="190.976" x2="261.081" y2="210.035" gradientUnits="userSpaceOnUse">
            <stop offset="0.32" stop-color="white" stop-opacity="0"/>
            <stop offset="1" stop-color="white"/>
        </linearGradient>
        <linearGradient id="paint17_linear_480_471" x1="240.867" y1="166.294" x2="245.111" y2="188.924" gradientUnits="userSpaceOnUse">
            <stop/>
            <stop offset="0.84" stop-opacity="0"/>
        </linearGradient>
        <linearGradient id="paint18_linear_480_471" x1="241.4" y1="175.645" x2="289.134" y2="169.137" gradientUnits="userSpaceOnUse">
            <stop/>
            <stop offset="1" stop-opacity="0"/>
        </linearGradient>
        <linearGradient id="paint19_linear_480_471" x1="192.383" y1="160.742" x2="309.993" y2="160.742" gradientUnits="userSpaceOnUse">
            <stop/>
            <stop offset="1" stop-opacity="0"/>
        </linearGradient>
        <linearGradient id="paint20_linear_480_471" x1="233.38" y1="121.838" x2="222.417" y2="162.501" gradientUnits="userSpaceOnUse">
            <stop/>
            <stop offset="1" stop-opacity="0"/>
        </linearGradient>
        <linearGradient id="paint21_linear_480_471" x1="222.98" y1="136.371" x2="231.821" y2="168.193" gradientUnits="userSpaceOnUse">
            <stop offset="0.32" stop-color="white" stop-opacity="0"/>
            <stop offset="1" stop-color="white"/>
        </linearGradient>
        <linearGradient id="paint22_linear_480_471" x1="224.381" y1="149.328" x2="280.533" y2="149.328" gradientUnits="userSpaceOnUse">
            <stop stop-color="#183866"/>
            <stop offset="1" stop-color="#1A7FC1"/>
        </linearGradient>
        <linearGradient id="paint23_linear_480_471" x1="109.327" y1="342.344" x2="109.292" y2="270.72" gradientUnits="userSpaceOnUse">
            <stop stop-color="#183866"/>
            <stop offset="1" stop-color="#1A7FC1"/>
        </linearGradient>
        <linearGradient id="paint24_linear_480_471" x1="211.184" y1="398.472" x2="183.114" y2="263.573" gradientUnits="userSpaceOnUse">
            <stop/>
            <stop offset="1" stop-opacity="0"/>
        </linearGradient>
        <linearGradient id="paint25_linear_480_471" x1="40.2704" y1="273.827" x2="22.2428" y2="187.2" gradientUnits="userSpaceOnUse">
            <stop/>
            <stop offset="1" stop-opacity="0"/>
        </linearGradient>
        <linearGradient id="paint26_linear_480_471" x1="175.053" y1="92.8879" x2="173.734" y2="54.259" gradientUnits="userSpaceOnUse">
            <stop/>
            <stop offset="1" stop-opacity="0"/>
        </linearGradient>
        <linearGradient id="paint27_linear_480_471" x1="228.755" y1="170.99" x2="255.781" y2="170.99" gradientUnits="userSpaceOnUse">
            <stop/>
            <stop offset="1" stop-opacity="0"/>
        </linearGradient>
        <linearGradient id="paint28_linear_480_471" x1="93.0344" y1="379.249" x2="109.673" y2="219.234" gradientUnits="userSpaceOnUse">
            <stop/>
            <stop offset="0.07" stop-opacity="0.84"/>
            <stop offset="1" stop-opacity="0"/>
        </linearGradient>
        <linearGradient id="paint29_linear_480_471" x1="207.168" y1="276.4" x2="226.116" y2="86.0694" gradientUnits="userSpaceOnUse">
            <stop stop-color="white" stop-opacity="0"/>
            <stop offset="0.54" stop-color="white"/>
        </linearGradient>
        <linearGradient id="paint30_linear_480_471" x1="222.241" y1="207.813" x2="238.721" y2="243.634" gradientUnits="userSpaceOnUse">
            <stop/>
            <stop offset="1" stop-opacity="0"/>
        </linearGradient>
        <linearGradient id="paint31_linear_480_471" x1="251.296" y1="194.446" x2="267.77" y2="230.267" gradientUnits="userSpaceOnUse">
            <stop/>
            <stop offset="1" stop-opacity="0"/>
        </linearGradient>
        <linearGradient id="paint32_linear_480_471" x1="258.449" y1="258.707" x2="256.309" y2="206.166" gradientUnits="userSpaceOnUse">
            <stop stop-color="white" stop-opacity="0"/>
            <stop offset="0.67" stop-color="white"/>
        </linearGradient>
        <linearGradient id="paint33_linear_480_471" x1="239.616" y1="193.166" x2="282.601" y2="261.225" gradientUnits="userSpaceOnUse">
            <stop/>
            <stop offset="1" stop-opacity="0"/>
        </linearGradient>
        <linearGradient id="paint34_linear_480_471" x1="263.813" y1="222.112" x2="278.136" y2="288.278" gradientUnits="userSpaceOnUse">
            <stop/>
            <stop offset="1" stop-opacity="0"/>
        </linearGradient>
        <linearGradient id="paint35_linear_480_471" x1="269.611" y1="220.857" x2="283.934" y2="287.023" gradientUnits="userSpaceOnUse">
            <stop/>
            <stop offset="1" stop-opacity="0"/>
        </linearGradient>
        <linearGradient id="paint36_linear_480_471" x1="244.25" y1="392.967" x2="216.173" y2="258.068" gradientUnits="userSpaceOnUse">
            <stop/>
            <stop offset="1" stop-opacity="0"/>
        </linearGradient>
        <linearGradient id="paint37_linear_480_471" x1="126.504" y1="119.78" x2="91.8384" y2="74.5495" gradientUnits="userSpaceOnUse">
            <stop/>
            <stop offset="1" stop-opacity="0"/>
        </linearGradient>
        <linearGradient id="paint38_linear_480_471" x1="151.702" y1="184.574" x2="178.729" y2="184.574" gradientUnits="userSpaceOnUse">
            <stop/>
            <stop offset="1" stop-opacity="0"/>
        </linearGradient>
        <linearGradient id="paint39_linear_480_471" x1="98.4337" y1="128.152" x2="105.264" y2="164.94" gradientUnits="userSpaceOnUse">
            <stop/>
            <stop offset="1" stop-opacity="0"/>
        </linearGradient>
        <linearGradient id="paint40_linear_480_471" x1="68.3643" y1="412.894" x2="40.2881" y2="277.995" gradientUnits="userSpaceOnUse">
            <stop/>
            <stop offset="1" stop-opacity="0"/>
        </linearGradient>
        <linearGradient id="paint41_linear_480_471" x1="162.12" y1="411.663" x2="134.044" y2="276.764" gradientUnits="userSpaceOnUse">
            <stop/>
            <stop offset="1" stop-opacity="0"/>
        </linearGradient>
        <linearGradient id="paint42_linear_480_471" x1="266.023" y1="102.473" x2="187.476" y2="85.2429" gradientUnits="userSpaceOnUse">
            <stop/>
            <stop offset="1" stop-opacity="0"/>
        </linearGradient>
        <linearGradient id="paint43_linear_480_471" x1="231.111" y1="117.669" x2="205.462" y2="81.1976" gradientUnits="userSpaceOnUse">
            <stop/>
            <stop offset="1" stop-opacity="0"/>
        </linearGradient>
        <linearGradient id="paint44_linear_480_471" x1="112.979" y1="86.9194" x2="141.167" y2="86.9194" gradientUnits="userSpaceOnUse">
            <stop stop-color="#ECC4D7"/>
            <stop offset="0.42" stop-color="#EFD4D1"/>
            <stop offset="1" stop-color="#F2EAC9"/>
        </linearGradient>
        <linearGradient id="paint45_linear_480_471" x1="125.171" y1="91.5756" x2="203.578" y2="111.532" gradientUnits="userSpaceOnUse">
            <stop/>
            <stop offset="1" stop-opacity="0"/>
        </linearGradient>
        <linearGradient id="paint46_linear_480_471" x1="184.481" y1="70.2523" x2="1.0331" y2="151.335" gradientUnits="userSpaceOnUse">
            <stop offset="0.32" stop-color="white" stop-opacity="0"/>
            <stop offset="0.54" stop-color="white"/>
        </linearGradient>
        <linearGradient id="paint47_linear_480_471" x1="126.745" y1="95.9362" x2="208.728" y2="57.6836" gradientUnits="userSpaceOnUse">
            <stop offset="0.32" stop-color="white" stop-opacity="0"/>
            <stop offset="0.54" stop-color="white"/>
        </linearGradient>
        <linearGradient id="paint48_linear_480_471" x1="125.472" y1="87.7755" x2="102.907" y2="70.7563" gradientUnits="userSpaceOnUse">
            <stop/>
            <stop offset="1" stop-opacity="0"/>
        </linearGradient>
        <linearGradient id="paint49_linear_480_471" x1="121.011" y1="74.8189" x2="151.133" y2="120.583" gradientUnits="userSpaceOnUse">
            <stop offset="0.32" stop-color="white" stop-opacity="0"/>
            <stop offset="1" stop-color="white"/>
        </linearGradient>
        <linearGradient id="paint50_linear_480_471" x1="151.362" y1="102.714" x2="179.567" y2="102.714" gradientUnits="userSpaceOnUse">
            <stop stop-color="#ECC4D7"/>
            <stop offset="0.42" stop-color="#EFD4D1"/>
            <stop offset="1" stop-color="#F2EAC9"/>
        </linearGradient>
        <linearGradient id="paint51_linear_480_471" x1="104.115" y1="74.0274" x2="105.223" y2="77.8557" gradientUnits="userSpaceOnUse">
            <stop stop-color="#ECC4D7"/>
            <stop offset="0.42" stop-color="#EFD4D1"/>
            <stop offset="1" stop-color="#F2EAC9"/>
        </linearGradient>
        <linearGradient id="paint52_linear_480_471" x1="213.512" y1="43.0788" x2="226.585" y2="56.4457" gradientUnits="userSpaceOnUse">
            <stop stop-color="#ECC4D7"/>
            <stop offset="1" stop-color="#F2EAC9"/>
        </linearGradient>
        <linearGradient id="paint53_linear_480_471" x1="199.043" y1="14.9439" x2="223.83" y2="40.2881" gradientUnits="userSpaceOnUse">
            <stop stop-color="#ECC4D7"/>
            <stop offset="1" stop-color="#F2EAC9"/>
        </linearGradient>
        <linearGradient id="paint54_linear_480_471" x1="227.946" y1="34.5133" x2="231.838" y2="34.5133" gradientUnits="userSpaceOnUse">
            <stop stop-color="#ECC4D7"/>
            <stop offset="1" stop-color="#F2EAC9"/>
        </linearGradient>
    </defs>
<path d="M191.943 64.0141L176.079 78.7763C174.995 79.7897 173.709 80.563 172.306 81.0459C170.903 81.5288 169.414 81.7103 167.935 81.5786L140.434 79.1456L138.716 96.0945C138.716 96.0945 169.536 100.908 173.933 99.6121C178.33 98.3165 205.55 77.6858 205.55 77.6858L209.566 55.056C203.791 55.0325 195.496 59.8399 191.943 64.0141Z" fill="url(#paint0_linear_480_471)"/>
<path d="M297.078 285.927C297.078 295.806 270.872 303.82 238.551 303.82C206.23 303.82 180.024 295.806 180.024 285.927C180.024 284.978 179.561 276.096 180.024 275.187C184.398 266.627 209.337 268.029 238.551 268.029C266.832 268.029 291.62 267.032 297.078 275.187C297.858 276.354 297.078 284.69 297.078 285.927Z" fill="#3454C3"/>
<path d="M297.078 285.927C297.078 295.806 270.872 303.82 238.551 303.82C206.23 303.82 180.024 295.806 180.024 285.927C180.024 284.978 179.561 276.096 180.024 275.187C184.398 266.627 209.337 268.029 238.551 268.029C266.832 268.029 291.62 267.032 297.078 275.187C297.858 276.354 297.078 284.69 297.078 285.927Z" fill="url(#paint1_linear_480_471)"/>
<path d="M238.551 293.079C270.874 293.079 297.078 285.068 297.078 275.187C297.078 265.305 270.874 257.294 238.551 257.294C206.228 257.294 180.024 265.305 180.024 275.187C180.024 285.068 206.228 293.079 238.551 293.079Z" fill="#3454C3"/>
<path d="M285.171 272.249C285.16 273.008 284.958 273.752 284.585 274.413C281.067 280.938 261.785 285.921 238.539 285.921C215.294 285.921 196.029 280.938 192.494 274.413C192.121 273.752 191.919 273.008 191.908 272.249C191.908 264.692 212.785 258.572 238.528 258.572C264.27 258.572 285.171 264.692 285.171 272.249Z" fill="url(#paint2_linear_480_471)"/>
<path d="M284.596 274.413C281.079 280.938 261.796 285.921 238.551 285.921C215.306 285.921 196.041 280.938 192.506 274.413C196.023 267.888 215.306 262.893 238.551 262.893C261.796 262.893 281.067 267.888 284.596 274.413Z" fill="#3454C3"/>
<path d="M284.596 274.413C281.079 280.938 261.796 285.921 238.551 285.921C215.306 285.921 196.041 280.938 192.506 274.413C196.023 267.888 215.306 262.893 238.551 262.893C261.796 262.893 281.067 267.888 284.596 274.413Z" fill="url(#paint3_linear_480_471)"/>
<path d="M307.466 259.75C307.466 269.635 281.26 277.643 248.94 277.643C216.619 277.643 190.413 269.635 190.413 259.75C190.413 258.801 189.95 249.919 190.413 249.01C194.786 240.451 219.726 241.858 248.94 241.858C277.221 241.858 302.008 240.861 307.466 249.01C308.246 250.177 307.466 258.543 307.466 259.75Z" fill="#3454C3"/>
<path d="M307.466 259.75C307.466 269.635 281.26 277.643 248.94 277.643C216.619 277.643 190.413 269.635 190.413 259.75C190.413 258.801 189.95 249.919 190.413 249.01C194.786 240.451 219.726 241.858 248.94 241.858C277.221 241.858 302.008 240.861 307.466 249.01C308.246 250.177 307.466 258.543 307.466 259.75Z" fill="url(#paint4_linear_480_471)"/>
<path d="M248.94 266.903C281.263 266.903 307.467 258.892 307.467 249.01C307.467 239.128 281.263 231.117 248.94 231.117C216.616 231.117 190.413 239.128 190.413 249.01C190.413 258.892 216.616 266.903 248.94 266.903Z" fill="#3454C3"/>
<path d="M248.94 266.903C281.263 266.903 307.467 258.892 307.467 249.01C307.467 239.128 281.263 231.117 248.94 231.117C216.616 231.117 190.413 239.128 190.413 249.01C190.413 258.892 216.616 266.903 248.94 266.903Z" fill="url(#paint5_linear_480_471)"/>
<path d="M295.559 246.079C295.549 246.836 295.347 247.578 294.973 248.236C291.456 254.761 272.168 259.75 248.922 259.75C225.677 259.75 206.418 254.761 202.883 248.236C202.509 247.578 202.307 246.836 202.297 246.079C202.297 238.522 223.168 232.395 248.91 232.395C274.653 232.395 295.559 238.522 295.559 246.079Z" fill="url(#paint6_linear_480_471)"/>
<path d="M294.985 248.236C291.467 254.762 272.179 259.751 248.934 259.751C225.688 259.751 206.43 254.762 202.894 248.236C206.412 241.711 225.694 236.722 248.934 236.722C272.173 236.722 291.456 241.711 294.985 248.236Z" fill="url(#paint7_linear_480_471)"/>
<path d="M290.236 236.488C290.236 246.372 264.036 254.38 231.715 254.38C199.395 254.38 173.189 246.372 173.189 236.488C173.189 235.544 172.725 226.656 173.189 225.753C177.562 217.194 202.502 218.595 231.715 218.595C259.997 218.595 284.784 217.598 290.236 225.753C291.016 226.914 290.236 235.251 290.236 236.488Z" fill="#3454C3"/>
<path d="M290.236 236.488C290.236 246.372 264.036 254.38 231.715 254.38C199.395 254.38 173.189 246.372 173.189 236.488C173.189 235.544 172.725 226.656 173.189 225.753C177.562 217.194 202.502 218.595 231.715 218.595C259.997 218.595 284.784 217.598 290.236 225.753C291.016 226.914 290.236 235.251 290.236 236.488Z" fill="url(#paint8_linear_480_471)"/>
<path d="M231.715 243.646C264.039 243.646 290.242 235.635 290.242 225.753C290.242 215.871 264.039 207.86 231.715 207.86C199.392 207.86 173.188 215.871 173.188 225.753C173.188 235.635 199.392 243.646 231.715 243.646Z" fill="#3454C3"/>
<path d="M278.335 222.815C278.325 223.573 278.123 224.315 277.749 224.973C274.231 231.498 254.943 236.487 231.698 236.487C208.452 236.487 189.193 231.498 185.658 224.973C185.284 224.315 185.082 223.573 185.072 222.815C185.072 215.259 205.949 209.138 231.692 209.138C257.435 209.138 278.335 215.259 278.335 222.815Z" fill="url(#paint9_linear_480_471)"/>
<path d="M277.76 224.973C274.243 231.498 254.955 236.487 231.709 236.487C208.464 236.487 189.205 231.498 185.67 224.973C189.188 218.448 208.464 213.459 231.709 213.459C254.955 213.459 274.231 218.448 277.76 224.973Z" fill="url(#paint10_linear_480_471)"/>
<path d="M300.754 211.77C300.754 221.649 274.548 229.663 242.227 229.663C209.906 229.663 183.7 221.649 183.7 211.77C183.7 210.821 183.237 201.939 183.7 201.03C188.074 192.471 213.013 193.878 242.227 193.878C270.508 193.878 295.296 192.881 300.754 201.03C301.51 202.197 300.754 210.533 300.754 211.77Z" fill="#3454C3"/>
<path d="M300.754 211.77C300.754 221.649 274.548 229.663 242.227 229.663C209.906 229.663 183.7 221.649 183.7 211.77C183.7 210.821 183.237 201.939 183.7 201.03C188.074 192.471 213.013 193.878 242.227 193.878C270.508 193.878 295.296 192.881 300.754 201.03C301.51 202.197 300.754 210.533 300.754 211.77Z" fill="url(#paint11_linear_480_471)"/>
<path d="M242.203 218.923C274.527 218.923 300.73 210.912 300.73 201.03C300.73 191.148 274.527 183.137 242.203 183.137C209.88 183.137 183.677 191.148 183.677 201.03C183.677 210.912 209.88 218.923 242.203 218.923Z" fill="#3454C3"/>
<path d="M262.77 196.463C295.093 196.463 321.296 188.452 321.296 178.571C321.296 168.689 295.093 160.678 262.77 160.678C230.446 160.678 204.243 168.689 204.243 178.571C204.243 188.452 230.446 196.463 262.77 196.463Z" fill="url(#paint12_linear_480_471)"/>
<path d="M292.376 199.031C292.365 199.79 292.163 200.534 291.79 201.194C288.272 207.72 268.984 212.709 245.745 212.709C222.505 212.709 203.264 207.72 199.746 201.194C199.373 200.534 199.171 199.79 199.16 199.031C199.16 191.48 220.031 185.354 245.78 185.354C271.528 185.354 292.376 191.474 292.376 199.031Z" fill="url(#paint13_linear_480_471)"/>
<path d="M291.825 201.247C288.307 207.772 269.019 212.761 245.78 212.761C222.54 212.761 203.264 207.772 199.746 201.247C203.264 194.722 222.546 189.733 245.791 189.733C269.037 189.733 288.272 194.722 291.825 201.247Z" fill="url(#paint14_linear_480_471)"/>
<path d="M300.754 187.054C300.754 196.932 274.548 204.946 242.227 204.946C209.906 204.946 183.7 196.932 183.7 187.054C183.7 186.104 183.237 177.222 183.7 176.313C188.074 167.754 213.013 169.161 242.227 169.161C270.508 169.161 295.296 168.158 300.754 176.313C301.51 177.48 300.754 185.846 300.754 187.054Z" fill="#3454C3"/>
<path d="M300.754 187.054C300.754 196.932 274.548 204.946 242.227 204.946C209.906 204.946 183.7 196.932 183.7 187.054C183.7 186.104 183.237 177.222 183.7 176.313C188.074 167.754 213.013 169.161 242.227 169.161C270.508 169.161 295.296 168.158 300.754 176.313C301.51 177.48 300.754 185.846 300.754 187.054Z" fill="url(#paint15_linear_480_471)"/>
<path d="M242.203 194.206C274.527 194.206 300.73 186.195 300.73 176.313C300.73 166.431 274.527 158.42 242.203 158.42C209.88 158.42 183.677 166.431 183.677 176.313C183.677 186.195 209.88 194.206 242.203 194.206Z" fill="#3454C3"/>
<path d="M242.203 194.206C274.527 194.206 300.73 186.195 300.73 176.313C300.73 166.431 274.527 158.42 242.203 158.42C209.88 158.42 183.677 166.431 183.677 176.313C183.677 186.195 209.88 194.206 242.203 194.206Z" fill="url(#paint16_linear_480_471)"/>
<path d="M288.8 173.376C288.789 174.135 288.587 174.878 288.214 175.539C284.696 182.064 265.408 187.047 242.168 187.047C218.929 187.047 199.688 182.064 196.17 175.539C195.797 174.878 195.595 174.135 195.584 173.376C195.584 165.819 216.455 159.698 242.204 159.698C267.952 159.698 288.8 165.819 288.8 173.376Z" fill="url(#paint17_linear_480_471)"/>
<path d="M288.249 175.539C284.731 182.065 265.443 187.048 242.203 187.048C218.964 187.048 199.688 182.065 196.17 175.539C199.688 169.014 218.97 164.019 242.215 164.019C265.461 164.019 284.696 169.014 288.249 175.539Z" fill="url(#paint18_linear_480_471)"/>
<path d="M285.083 160.789C285.083 170.668 258.877 178.682 226.556 178.682C194.235 178.682 168.029 170.668 168.029 160.789C168.029 159.839 167.566 150.957 168.029 150.049C172.403 141.489 197.343 142.89 226.556 142.89C254.838 142.89 279.625 141.894 285.083 150.049C285.869 151.215 285.083 159.552 285.083 160.789Z" fill="#3454C3"/>
<path d="M285.083 160.789C285.083 170.668 258.877 178.682 226.556 178.682C194.235 178.682 168.029 170.668 168.029 160.789C168.029 159.839 167.566 150.957 168.029 150.049C172.403 141.489 197.343 142.89 226.556 142.89C254.838 142.89 279.625 141.894 285.083 150.049C285.869 151.215 285.083 159.552 285.083 160.789Z" fill="url(#paint19_linear_480_471)"/>
<path d="M226.556 167.941C258.88 167.941 285.083 159.93 285.083 150.049C285.083 140.167 258.88 132.156 226.556 132.156C194.233 132.156 168.029 140.167 168.029 150.049C168.029 159.93 194.233 167.941 226.556 167.941Z" fill="#3454C3"/>
<path d="M273.199 147.111C273.188 147.87 272.987 148.614 272.613 149.275C269.096 155.8 249.813 160.783 226.568 160.783C203.322 160.783 184.058 155.8 180.523 149.275C180.149 148.614 179.948 147.87 179.936 147.111C179.936 139.554 200.813 133.434 226.556 133.434C252.299 133.434 273.199 139.531 273.199 147.111Z" fill="url(#paint20_linear_480_471)"/>
<path d="M272.613 149.274C269.095 155.8 249.813 160.783 226.568 160.783C203.322 160.783 184.058 155.8 180.523 149.274C184.04 142.749 203.322 137.754 226.568 137.754C249.813 137.754 269.095 142.749 272.613 149.274Z" fill="#3454C3"/>
<path d="M272.613 149.274C269.095 155.8 249.813 160.783 226.568 160.783C203.322 160.783 184.058 155.8 180.523 149.274C184.04 142.749 203.322 137.754 226.568 137.754C249.813 137.754 269.095 142.749 272.613 149.274Z" fill="url(#paint21_linear_480_471)"/>
<path opacity="0.19" d="M249.649 135.263C251.484 136.178 252.985 138.095 252.762 140.141C252.639 141.313 251.959 142.433 252.012 143.623C252.059 144.907 252.938 145.998 253.366 147.205C254.357 150.008 252.78 153.244 250.276 154.874C248.995 155.651 247.614 156.253 246.172 156.662C238.401 159.162 230.367 160.757 222.229 161.416C217.914 161.762 213.541 161.85 209.367 162.993C206.711 163.72 204.178 164.864 201.517 165.596C200.872 165.825 200.181 165.89 199.506 165.784C198.169 165.473 197.383 163.937 197.53 162.565C197.771 161.199 198.474 159.956 199.523 159.048C201.675 156.955 204.46 155.683 206.975 154.041C210.199 151.942 212.978 149.24 215.921 146.748C218.489 144.579 221.198 142.562 223.889 140.551C227.189 138.089 230.525 135.609 234.224 133.809C237.924 132.009 244.648 133.223 244.003 133.223C244.173 134.771 248.347 134.606 249.649 135.263Z" fill="url(#paint22_linear_480_471)"/>
<path d="M195.584 116.591C195.584 116.591 145.833 112.411 144.426 138.974L140.639 145.183L168.029 160.789C168.029 160.789 165.749 154.258 171.986 151.081C178.224 147.903 203.399 146.355 207.297 138.974C211.196 131.593 195.584 116.591 195.584 116.591Z" fill="#25233A"/>
<path d="M204.178 123.145C204.178 123.145 172.356 135.679 169.647 149.269C166.939 162.858 168.029 160.789 168.029 160.789L179.755 169.073L196.938 166.171C196.938 166.171 200.456 158.42 211.677 156.345C222.898 154.27 238.809 150.875 242.25 142.005C245.692 133.135 245.123 123.145 245.123 123.145H204.178Z" fill="#3F3D56"/>
<path opacity="0.19" d="M109.321 350C168.823 350 217.059 340.43 217.059 328.625C217.059 316.82 168.823 307.25 109.321 307.25C49.8189 307.25 1.58301 316.82 1.58301 328.625C1.58301 340.43 49.8189 350 109.321 350Z" fill="url(#paint23_linear_480_471)"/>
<path d="M189.78 326.848L180.493 329.563C178.552 330.128 176.519 330.304 174.51 330.083C172.501 329.862 170.555 329.247 168.783 328.273C167.012 327.3 165.449 325.987 164.185 324.41C162.921 322.832 161.98 321.022 161.416 319.08C161.264 318.566 161.141 318.043 161.047 317.515L153.889 278.792L189.821 265.08L199.412 310.644C200.139 314.061 199.551 317.627 197.766 320.631C195.981 323.634 193.129 325.854 189.78 326.848Z" fill="#3454C3"/>
<path d="M189.78 326.848L180.698 270.109L190.12 266.486L199.412 310.638C200.141 314.056 199.554 317.624 197.768 320.628C195.983 323.633 193.13 325.854 189.78 326.848Z" fill="url(#paint24_linear_480_471)"/>
<path d="M81.731 320.863L72.1104 321.601C70.0864 321.749 68.053 321.497 66.1265 320.859C64.2 320.221 62.4179 319.21 60.8822 317.883C59.3464 316.556 58.0871 314.94 57.1759 313.127C56.2648 311.313 55.7197 309.338 55.5719 307.314C55.5367 306.798 55.525 306.288 55.5367 305.772L56.4455 266.399L94.3885 260.425L94.4706 306.997C94.4876 310.489 93.1842 313.859 90.8216 316.43C88.459 319.001 85.2119 320.585 81.731 320.863Z" fill="#3454C3"/>
<path d="M84.5568 290.992L83.9706 320.441C83.9706 320.441 94.3299 317.902 94.4882 306.997C94.6347 297.148 94.922 282.632 94.922 282.632L84.5568 290.992Z" fill="url(#paint25_linear_480_471)"/>
<path d="M216.76 209.713C210.059 252.709 164.277 285.974 108.817 285.974C53.356 285.974 7.53938 252.709 0.838379 209.713C7.53938 166.728 53.3149 133.463 108.817 133.463C164.318 133.463 210.059 166.728 216.76 209.713Z" fill="#3454C3"/>
<path d="M216.777 209.713C211.542 243.306 182.469 270.954 143.529 281.442C182.44 270.948 211.536 243.3 216.76 209.713C210.059 166.728 164.318 133.463 108.817 133.463C53.3149 133.463 7.53938 166.728 0.838372 209.713C0.278026 213.322 -0.00226322 216.97 1.37615e-05 220.623C1.37615e-05 268.755 48.7479 307.789 108.817 307.789C168.885 307.789 217.604 268.755 217.604 220.623C217.61 216.97 217.334 213.323 216.777 209.713ZM8.53603 232.747C7.897 231.545 7.29901 230.326 6.73033 229.095C7.29705 230.326 7.89895 231.543 8.53603 232.747C19.8158 254.111 41.4255 271.124 68.335 279.771C41.4079 271.1 19.8099 254.081 8.53603 232.747ZM71.7881 280.821C72.9606 281.153 74.1215 281.473 75.2705 281.782C74.098 281.448 72.9372 281.131 71.7881 280.821ZM136.418 283.166C137.59 282.914 138.804 282.65 139.988 282.363C138.812 282.636 137.622 282.904 136.418 283.166Z" fill="#3454C3"/>
<path d="M218.741 162.436C218.741 162.436 223.76 143.617 243.54 145.288C263.321 146.959 261.07 174.871 243.54 189.844C243.54 189.868 224.193 165.972 218.741 162.436Z" fill="#3454C3"/>
<path d="M218.741 162.601C218.741 162.601 223.76 143.782 243.54 145.452C263.321 147.123 261.07 175.035 243.54 190.009C243.54 190.032 224.193 166.136 218.741 162.601Z" fill="url(#paint26_linear_480_471)"/>
<path d="M228.755 167.437C228.755 167.437 232.272 154.322 246.032 155.489C259.791 156.656 258.244 176.102 246.032 186.561C246.032 186.549 232.554 169.899 228.755 167.437Z" fill="#3454C3"/>
<path d="M228.755 167.437C228.755 167.437 232.272 154.322 246.032 155.489C259.791 156.656 258.244 176.102 246.032 186.561C246.032 186.549 232.554 169.899 228.755 167.437Z" fill="url(#paint27_linear_480_471)"/>
<path d="M218.307 220.846C218.307 268.978 169.595 308.012 109.52 308.012C49.4457 308.012 0.703613 268.978 0.703613 220.846C0.704028 217.195 0.984302 213.549 1.54197 209.941C8.24298 252.903 54.0068 286.197 109.52 286.197C122.851 286.232 136.111 284.256 148.853 280.334C153.859 276.817 147.346 258.783 147.205 258.379L156.668 263.297L165.731 273.692C193.579 260.208 213.266 237.003 217.481 209.953C218.038 213.557 218.314 217.199 218.307 220.846Z" fill="url(#paint28_linear_480_471)"/>
<path d="M282.632 230.894C282.642 240.733 280.501 250.456 276.359 259.381C265.22 283.418 240.468 300.097 211.7 300.097C202.09 300.128 192.573 298.224 183.715 294.497C174.857 290.77 166.841 285.297 160.144 278.405C147.728 265.699 140.772 248.642 140.762 230.877C140.762 192.652 172.526 161.698 211.7 161.698C250.874 161.698 282.632 192.67 282.632 230.894Z" fill="#3454C3"/>
<path d="M282.632 230.894C282.642 240.733 280.501 250.456 276.359 259.381C265.22 283.418 240.468 300.097 211.7 300.097C202.09 300.128 192.573 298.224 183.715 294.497C174.857 290.77 166.841 285.297 160.144 278.405C147.728 265.699 140.772 248.642 140.762 230.877C140.762 192.652 172.526 161.698 211.7 161.698C250.874 161.698 282.632 192.67 282.632 230.894Z" fill="url(#paint29_linear_480_471)"/>
<path d="M226.626 222.54C229.472 222.54 231.78 220.215 231.78 217.346C231.78 214.477 229.472 212.152 226.626 212.152C223.78 212.152 221.473 214.477 221.473 217.346C221.473 220.215 223.78 222.54 226.626 222.54Z" fill="#3454C3"/>
<path d="M259.838 218.219C262.684 218.219 264.992 215.894 264.992 213.025C264.992 210.156 262.684 207.831 259.838 207.831C256.992 207.831 254.685 210.156 254.685 213.025C254.685 215.894 256.992 218.219 259.838 218.219Z" fill="#3454C3"/>
<path d="M226.626 222.54C229.472 222.54 231.78 220.215 231.78 217.346C231.78 214.477 229.472 212.152 226.626 212.152C223.78 212.152 221.473 214.477 221.473 217.346C221.473 220.215 223.78 222.54 226.626 222.54Z" fill="url(#paint30_linear_480_471)"/>
<path d="M259.838 218.219C262.684 218.219 264.992 215.894 264.992 213.025C264.992 210.156 262.684 207.831 259.838 207.831C256.992 207.831 254.685 210.156 254.685 213.025C254.685 215.894 256.992 218.219 259.838 218.219Z" fill="url(#paint31_linear_480_471)"/>
<path d="M266.991 225.9L272.49 255.664C270.525 256.627 268.438 257.317 266.287 257.716C255.523 259.715 245.492 254.322 243.886 245.645C242.28 236.968 249.702 228.274 260.466 226.257C262.614 225.84 264.81 225.719 266.991 225.9Z" fill="#3454C3"/>
<path d="M266.991 225.9L272.49 255.664C270.525 256.627 268.438 257.317 266.287 257.716C255.523 259.715 245.492 254.322 243.886 245.645C242.28 236.968 249.702 228.274 260.466 226.257C262.614 225.84 264.81 225.719 266.991 225.9Z" fill="url(#paint32_linear_480_471)"/>
<path d="M272.089 255.808C276.449 255.007 278.755 247.674 277.24 239.429C275.726 231.185 270.963 225.15 266.604 225.951C262.244 226.752 259.938 234.085 261.453 242.33C262.967 250.575 267.729 256.609 272.089 255.808Z" fill="#3454C3"/>
<path d="M272.089 255.808C276.449 255.007 278.755 247.674 277.24 239.429C275.726 231.185 270.963 225.15 266.604 225.951C262.244 226.752 259.938 234.085 261.453 242.33C262.967 250.575 267.729 256.609 272.089 255.808Z" fill="url(#paint33_linear_480_471)"/>
<path d="M268.779 239.987C269.605 242.884 269.817 245.363 269.248 245.528C268.679 245.692 267.542 243.482 266.715 240.585C265.889 237.689 265.677 235.215 266.246 235.051C266.815 234.887 267.952 237.097 268.779 239.987Z" fill="url(#paint34_linear_480_471)"/>
<path d="M274.46 238.211C275.31 241.142 275.533 243.698 274.964 243.868C274.395 244.038 273.246 241.77 272.402 238.809C271.558 235.848 271.329 233.316 271.898 233.151C272.467 232.987 273.616 235.25 274.46 238.211Z" fill="url(#paint35_linear_480_471)"/>
<path d="M276.453 258.138L276.359 259.381C265.22 283.418 240.468 300.097 211.7 300.097C202.09 300.128 192.573 298.224 183.715 294.497C174.857 290.77 166.841 285.298 160.144 278.405C160.144 278.405 165.567 270.585 205.345 277.291C245.123 283.998 276.453 258.138 276.453 258.138Z" fill="url(#paint36_linear_480_471)"/>
<path d="M181.033 178.518C181.033 178.518 176.02 159.699 156.234 161.375C136.447 163.052 138.704 190.958 156.234 205.931C156.234 205.955 175.58 182.059 181.033 178.518Z" fill="#3454C3"/>
<path d="M181.695 178.518C181.695 178.518 176.683 159.699 156.896 161.375C137.11 163.052 139.367 190.958 156.896 205.931C156.896 205.955 176.243 182.059 181.695 178.518Z" fill="url(#paint37_linear_480_471)"/>
<path d="M178.729 181.015C178.729 181.015 175.211 167.906 161.451 169.073C147.692 170.24 149.24 189.68 161.451 200.145C161.451 200.133 174.93 183.501 178.729 181.015Z" fill="#3454C3"/>
<path d="M178.729 181.015C178.729 181.015 175.211 167.906 161.451 169.073C147.692 170.24 149.24 189.68 161.451 200.145C161.451 200.133 174.93 183.501 178.729 181.015Z" fill="url(#paint38_linear_480_471)"/>
<path d="M148.096 157.16L143.049 159.423L138.001 161.686C108.482 144.098 82.0477 144.403 68.165 146.378C64.7119 146.824 61.3031 147.563 57.9757 148.589L72.6968 142.726C72.6968 142.726 81.2035 139.208 104.027 140.504C132.959 142.169 148.096 157.16 148.096 157.16Z" fill="#25233A"/>
<path d="M148.096 157.16L143.048 159.423L130.737 150.94C111.074 139.003 75.2352 143.992 75.2352 143.992L68.1356 146.378C64.6824 146.824 61.2736 147.563 57.9463 148.589L72.6674 142.726C72.6674 142.726 81.1741 139.208 103.997 140.504C132.959 142.169 148.096 157.16 148.096 157.16Z" fill="#3454C3"/>
<path d="M148.096 157.16L143.048 159.423L130.737 150.94C111.074 139.003 75.2352 143.992 75.2352 143.992L68.1356 146.378C64.6824 146.824 61.2736 147.563 57.9463 148.589L72.6674 142.726C72.6674 142.726 81.1741 139.208 103.997 140.504C132.959 142.169 148.096 157.16 148.096 157.16Z" fill="url(#paint39_linear_480_471)"/>
<path d="M135.357 339.834L125.73 340.802C121.653 341.192 117.588 339.947 114.43 337.34C111.271 334.733 109.277 330.978 108.887 326.901C108.84 326.397 108.817 325.893 108.817 325.389V285.974L146.631 279.115L147.803 325.676C147.901 329.172 146.672 332.575 144.363 335.201C142.054 337.828 138.836 339.483 135.357 339.834Z" fill="#3454C3"/>
<path d="M39.4089 329.598L29.7883 330.559C27.7688 330.754 25.7307 330.55 23.7904 329.957C21.8501 329.364 20.0456 328.395 18.4799 327.105C16.9141 325.814 15.6179 324.228 14.6652 322.437C13.7125 320.646 13.1219 318.684 12.9273 316.665C12.8804 316.155 12.8569 315.639 12.8569 315.123V238.51L50.671 268.879L50.7589 272.543L51.8201 315.41C51.9232 318.905 50.7014 322.309 48.3995 324.94C46.0977 327.572 42.8861 329.236 39.4089 329.598Z" fill="#3454C3"/>
<path d="M39.4087 329.598C39.4087 329.598 41.6365 281.524 44.6851 276.201C47.7336 270.878 50.7764 272.543 50.7764 272.543L51.8375 315.41C51.9389 318.907 50.7141 322.313 48.4089 324.945C46.1036 327.576 42.8885 329.238 39.4087 329.598Z" fill="url(#paint40_linear_480_471)"/>
<path d="M135.357 339.834L136.729 282.38L146.648 280.551L147.768 325.693C147.862 329.181 146.636 332.575 144.334 335.197C142.033 337.819 138.827 339.475 135.357 339.834Z" fill="url(#paint41_linear_480_471)"/>
<path d="M194.018 93.4858L193.045 114.703C193.045 114.703 194.036 126.293 203.786 127.472C213.535 128.65 245.146 123.145 245.146 123.145C245.146 123.145 247.292 85.8351 245.146 77.2873C243.001 68.7396 243.036 57.026 233.48 56.8326C228.69 56.7329 216.162 54.1709 209.566 55.0738C206.122 55.5474 202.936 57.163 200.519 59.662C198.102 62.161 196.593 65.3987 196.234 68.8568C195.584 74.9892 194.786 83.3317 194.018 93.4858Z" fill="#3454C3"/>
<path d="M194.018 93.4858L193.045 114.703C193.045 114.703 194.036 126.293 203.786 127.472C213.535 128.65 245.146 123.145 245.146 123.145C245.146 123.145 247.292 85.8351 245.146 77.2873C243.001 68.7396 243.036 57.026 233.48 56.8326C228.69 56.7329 216.162 54.1709 209.566 55.0738C206.122 55.5474 202.936 57.163 200.519 59.662C198.102 62.161 196.593 65.3987 196.234 68.8568C195.584 74.9892 194.786 83.3317 194.018 93.4858Z" fill="url(#paint42_linear_480_471)"/>
<path d="M228.291 64.19C230.906 58.8374 238.317 58.0694 241.776 62.9178C243.939 65.9605 245.504 70.5041 245.158 77.2872C244.537 89.5049 235.555 101.324 229.136 108.301C227.313 110.286 225.066 111.835 222.562 112.833C220.058 113.831 217.361 114.251 214.673 114.064L176.284 109.631L178.043 94.3885L213.142 95.2679L228.291 64.19Z" fill="#3454C3"/>
<path d="M228.291 64.19C230.906 58.8374 238.317 58.0694 241.776 62.9178C243.939 65.9605 245.504 70.5041 245.158 77.2872C244.537 89.5049 235.555 101.324 229.136 108.301C227.313 110.286 225.066 111.835 222.562 112.833C220.058 113.831 217.361 114.251 214.673 114.064L176.284 109.631L178.043 94.3885L213.142 95.2679L228.291 64.19Z" fill="#3454C3"/>
<path d="M228.291 64.19C230.906 58.8374 238.317 58.0694 241.776 62.9178C243.939 65.9605 245.504 70.5041 245.158 77.2872C244.537 89.5049 235.555 101.324 229.136 108.301C227.313 110.286 225.066 111.835 222.562 112.833C220.058 113.831 217.361 114.251 214.673 114.064L176.284 109.631L178.043 94.3885L213.142 95.2679L228.291 64.19Z" fill="#3454C3"/>
<path d="M228.291 64.19C230.906 58.8374 238.317 58.0694 241.776 62.9178C243.939 65.9605 245.504 70.5041 245.158 77.2872C244.537 89.5049 235.555 101.324 229.136 108.301C227.313 110.286 225.066 111.835 222.562 112.833C220.058 113.831 217.361 114.251 214.673 114.064L176.284 109.631L178.043 94.3885L213.142 95.2679L228.291 64.19Z" fill="url(#paint43_linear_480_471)"/>
<path d="M116.708 83.2494C115.09 84.0291 113.36 85.1195 112.979 86.8842C114.392 86.8943 115.801 86.7508 117.183 86.4562L113.507 90.2494C113.282 90.4263 113.133 90.682 113.091 90.9646C113.091 91.5802 113.929 91.7619 114.539 91.7092C116.585 91.5497 118.613 91.2003 120.595 90.6656C120.735 91.6329 119.252 92.0199 118.924 92.9403C118.631 93.7494 119.416 94.6112 120.255 94.7753C121.112 94.842 121.973 94.7261 122.781 94.4353C125.531 93.7728 128.41 94.1597 131.235 94.236C134.061 94.3122 137.098 93.9839 139.285 92.1782C139.795 91.7945 140.188 91.277 140.422 90.6832C140.573 90.0696 140.605 89.4327 140.516 88.8071C140.405 87.0484 141.583 83.3607 141.003 81.8892C140.451 80.5115 137.925 79.5442 136.611 79.3272C128.527 77.973 119.68 81.8423 116.708 83.2494Z" fill="url(#paint44_linear_480_471)"/>
<path d="M167.475 103.401C173.602 82.395 165.763 61.6312 149.966 57.0239C134.17 52.4166 116.397 65.7105 110.271 86.7167C104.144 107.723 111.983 128.487 127.779 133.094C143.576 137.701 161.348 124.407 167.475 103.401Z" fill="#3454C3"/>
<path d="M167.475 103.401C173.602 82.395 165.763 61.6312 149.966 57.0239C134.17 52.4166 116.397 65.7105 110.271 86.7167C104.144 107.723 111.983 128.487 127.779 133.094C143.576 137.701 161.348 124.407 167.475 103.401Z" fill="url(#paint45_linear_480_471)"/>
<path d="M162.08 101.27C168.283 80.286 160.495 59.4862 144.685 54.8119C128.874 50.1375 111.028 63.3588 104.824 84.3423C98.6205 105.326 106.408 126.126 122.219 130.8C138.03 135.474 155.876 122.253 162.08 101.27Z" fill="#3454C3"/>
<path d="M162.08 101.27C168.283 80.286 160.495 59.4862 144.685 54.8119C128.874 50.1375 111.028 63.3588 104.824 84.3423C98.6205 105.326 106.408 126.126 122.219 130.8C138.03 135.474 155.876 122.253 162.08 101.27Z" fill="url(#paint46_linear_480_471)"/>
<path d="M162.08 101.27C168.283 80.286 160.495 59.4862 144.685 54.8119C128.874 50.1375 111.028 63.3588 104.824 84.3423C98.6205 105.326 106.408 126.126 122.219 130.8C138.03 135.474 155.876 122.253 162.08 101.27Z" fill="url(#paint47_linear_480_471)"/>
<path d="M152.968 98.7504C147.621 116.514 133.551 127.935 121.544 124.265C121.122 124.136 120.706 123.989 120.301 123.831C109.162 119.369 104.343 102.602 109.491 85.4774C114.838 67.7253 128.908 56.299 140.915 59.9632C142.697 60.5095 144.37 61.3647 145.857 62.49C154.299 68.8568 157.506 83.6658 152.968 98.7504Z" fill="url(#paint48_linear_480_471)"/>
<path d="M152.968 98.7502C147.621 116.514 133.551 127.934 121.544 124.264C121.122 124.135 120.706 123.989 120.301 123.831C111.865 117.464 108.652 102.655 113.19 87.5701C118.543 69.8122 132.607 58.3859 144.614 62.0559C145.036 62.1849 145.452 62.3315 145.857 62.4897C154.299 68.8566 157.506 83.6656 152.968 98.7502Z" fill="#3454C3"/>
<path d="M152.968 98.7502C147.621 116.514 133.551 127.934 121.544 124.264C121.122 124.135 120.706 123.989 120.301 123.831C111.865 117.464 108.652 102.655 113.19 87.5701C118.543 69.8122 132.607 58.3859 144.614 62.0559C145.036 62.1849 145.452 62.3315 145.857 62.4897C154.299 68.8566 157.506 83.6656 152.968 98.7502Z" fill="url(#paint49_linear_480_471)"/>
<path d="M155.09 99.0789C153.472 99.8586 151.749 100.949 151.362 102.714C152.774 102.724 154.184 102.58 155.565 102.286L151.907 106.05C151.687 106.232 151.541 106.488 151.497 106.771C151.497 107.357 152.329 107.562 152.939 107.515C154.986 107.356 157.013 107.006 158.995 106.472C159.136 107.439 157.652 107.826 157.324 108.746C157.031 109.555 157.817 110.417 158.655 110.581C159.512 110.645 160.372 110.529 161.182 110.241C163.931 109.573 166.81 109.966 169.636 110.036C172.461 110.106 175.498 109.79 177.691 107.978C178.201 107.596 178.593 107.078 178.822 106.483C178.974 105.87 179.005 105.233 178.916 104.607C178.805 102.849 179.983 99.1609 179.403 97.6953C178.858 96.3175 176.325 95.3502 175.012 95.1333C166.915 93.7321 158.063 97.6249 155.09 99.0789Z" fill="url(#paint50_linear_480_471)"/>
<path d="M109.866 72.6965C110.207 74.5961 110.451 76.5118 110.599 78.4361C110.781 81.256 107.802 79.3975 107.802 79.3975C107.802 79.3975 109.561 81.6488 109.204 82.9151C108.846 84.1815 107.105 82.9151 107.105 82.9151C107.105 82.9151 107.966 84.7794 107.761 85.9578C107.556 87.1362 105.234 86.1806 105.234 86.1806C105.234 86.1806 106.507 87.6815 106.255 89.0299C106.002 90.3783 104.22 90.0676 104.22 90.0676C104.22 90.0676 100.931 88.215 101.875 85.565C102.819 82.9151 101.389 78.7878 102.948 78.0022C104.508 77.2166 105.492 73.8984 107.146 73.5525C108.08 73.3644 108.992 73.0774 109.866 72.6965Z" fill="url(#paint51_linear_480_471)"/>
<path d="M212.779 60.0453C213.502 60.4512 214.351 60.5724 215.159 60.3854C220.097 59.7797 224.897 58.3467 229.358 56.1467C227.77 51.8083 228.444 47.0068 228.063 42.3929C227.928 40.8452 227.477 39.0571 226.093 38.4239C225.067 37.9608 223.871 38.2891 222.839 38.7346C220.78 39.6788 218.95 41.0591 217.476 42.7798C216.002 44.5006 214.92 46.5209 214.303 48.7011C213.717 50.6358 213.793 52.6819 213.265 54.6224C212.814 56.1291 210.926 58.7028 212.779 60.0453Z" fill="url(#paint52_linear_480_471)"/>
<path d="M202.619 18.2035C202.619 18.2035 198.849 38.6759 202.93 44.8668C207.01 51.0578 212.896 52.6876 218.759 48.3316C222.533 45.4115 225.901 42.0006 228.772 38.1893C228.772 38.1893 232.483 37.6733 233.802 34.4899C235.121 31.3065 231.381 29.5419 229.37 30.8668C227.359 32.1918 233.069 22.0318 230.584 20.8476C228.098 19.6633 216.103 2.14571 202.619 18.2035Z" fill="url(#paint53_linear_480_471)"/>
<path d="M217.123 1.21943C215.118 1.03145 213.096 1.24266 211.173 1.84087C206.225 3.17169 201.376 5.54606 196.264 5.1943C195.256 5.12395 194.095 5.00084 193.379 5.72194C193.084 6.08624 192.913 6.53564 192.892 7.00414C192.871 7.47265 193.001 7.93558 193.262 8.32496C193.796 9.09365 194.495 9.73277 195.308 10.1951C194.136 10.7521 194.042 12.5754 194.892 13.5662C195.742 14.5569 197.155 14.8618 198.457 14.8559C197.319 15.1139 197.102 16.8668 197.929 17.6993C198.756 18.5318 200.086 18.5846 201.218 18.2856C202.508 17.8475 203.762 17.3105 204.97 16.6792C208.488 15.1725 212.415 15.0963 216.22 15.3543C220.195 15.624 224.575 16.474 226.978 19.675C227.702 20.6593 228.189 21.7964 228.404 22.9989C228.618 24.2013 228.554 25.4369 228.215 26.6105C227.459 29.1549 225.401 31.4472 225.771 34.0796C227.529 33.6575 227.975 30.8727 229.763 30.4799C231.176 30.1633 232.395 30.0519 233.615 31.7638C233.984 32.2797 234.987 30.3275 235.374 29.8174C236.722 27.9883 238.094 26.1064 238.721 23.9196C239.149 22.3474 239.177 20.6934 238.803 19.1075C238.43 17.5217 237.666 16.0542 236.581 14.8384C236.077 14.3794 235.655 13.8382 235.333 13.2379C235.14 12.5477 235.028 11.8375 234.998 11.1214C234.652 9.03434 232.911 7.50419 231.252 6.20268C228.481 4.02178 225.636 1.95422 222.716 0C222.077 1.58291 222.482 2.87856 220.957 2.81407C219.926 2.77303 218.372 1.38358 217.123 1.21943Z" fill="#3F3D56"/>
<path d="M227.77 44.6849C227.329 44.299 227.003 43.7999 226.827 43.2419C226.65 42.6838 226.629 42.088 226.767 41.5191C227.054 40.3822 227.715 39.3748 228.643 38.6581C229.459 38.0023 230.366 37.4672 231.334 37.0693C231.299 37.8373 227.471 44.4739 227.77 44.6849Z" fill="#3F3D56"/>
<path d="M228.819 33.9622C228.854 33.5211 229.008 33.0977 229.265 32.7369C229.422 32.5888 229.608 32.4732 229.81 32.3969C230.139 32.2327 230.503 32.1483 230.871 32.1507C231.059 32.1586 231.241 32.2173 231.398 32.3205C231.555 32.4238 231.681 32.5677 231.762 32.7369C231.829 32.9246 231.853 33.125 231.832 33.3232C231.766 34.1322 231.455 34.9018 230.941 35.53C230.427 36.1582 229.734 36.6154 228.954 36.8408C228.809 36.8878 228.653 36.8878 228.508 36.8408C228.422 36.8006 228.346 36.7435 228.282 36.673C228.219 36.6025 228.17 36.52 228.139 36.4304C228.023 36.2185 227.959 35.9817 227.952 35.74C227.946 35.4982 227.998 35.2585 228.104 35.041C228.374 34.6364 228.702 34.4899 228.819 33.9622Z" fill="url(#paint54_linear_480_471)"/>
</svg>
