<svg width="304" height="247" viewBox="0 0 304 247" fill="none" xmlns="http://www.w3.org/2000/svg">
<path d="M157.172 21.1299C157.172 21.1299 176.419 37.1889 177.131 46.1517C177.844 55.1145 168.037 56.1254 163.822 51.7953C159.608 47.4611 157.172 21.1299 157.172 21.1299Z" fill="#E7F2F2"/>
<path d="M149.069 3.84095C148.691 2.2052 146.924 -0.202663 144.898 0.680882C142.466 1.74352 142.1 3.25192 142.1 3.25192C142.1 3.25192 142.016 3.28376 141.881 3.33948C141.423 3.33152 140.361 3.37132 139.835 3.88075C139.151 4.53744 138.928 5.44486 139.29 5.24985C139.652 5.05483 139.863 4.41406 140.186 4.31058C140.249 4.29068 140.309 4.28272 140.369 4.27874C140.233 4.42202 140.134 4.56928 140.102 4.72449C139.223 8.70443 140.783 8.94322 140.95 9.73921C141.125 10.575 142.072 11.5939 142.327 11.6337C142.741 11.6973 146.398 7.62189 146.717 7.70944C147.035 7.797 147.318 6.71048 147.425 6.02195C147.533 5.33342 149.371 5.17821 149.065 3.84493L149.069 3.84095Z" fill="#803527"/>
<path d="M121.814 160.83C122.602 159.325 122.634 156.893 122.666 156.778C122.805 156.28 123.975 156.105 124.293 157.287C124.918 159.612 127.227 156.81 126.932 157.65C126.049 160.153 125.818 164.404 124.906 164.487C122.96 164.662 115.494 165.876 115.601 164.845C115.665 164.228 121.293 161.832 121.818 160.83H121.814Z" fill="#FF5943"/>
<path d="M159.026 163.042C157.971 162.549 157.856 161.593 157.426 160.678C157.398 160.618 157.255 159.317 157.255 159.213C157.259 158.768 155.544 151.604 154.919 152.519C153.685 154.322 152.726 157.415 152.778 158.183C152.925 160.467 151.974 164.069 152.817 164.34C154.612 164.917 163.038 165.745 163.221 164.861C163.328 164.332 160.857 163.894 159.03 163.038L159.026 163.042Z" fill="#FF5943"/>
<path d="M174.043 43.509C173.939 43.509 173.832 43.4612 173.76 43.3697C170.664 39.4932 165.649 39.2385 165.597 39.2385C165.394 39.2305 165.231 39.0475 165.239 38.8286C165.247 38.6097 165.422 38.4425 165.625 38.4505C165.844 38.4584 171.018 38.7211 174.325 42.8602C174.457 43.0274 174.441 43.2781 174.281 43.4174C174.21 43.4811 174.126 43.5129 174.043 43.5129V43.509Z" fill="#2196F3"/>
<path d="M133.376 64.2126C133.635 63.7509 162.62 57.5581 164.539 64.1131C164.539 64.1131 161.486 156.436 159.667 157.749C157.848 159.062 153.526 159.723 152.571 157.665C149.98 152.101 149.351 91.503 149.809 82.178C149.264 85.1032 131.836 155.878 130.407 157.665C128.978 159.452 124.142 158.855 122.475 157.665C121.5 156.969 126.885 123.784 128.926 99.3116C130.626 78.9503 132.031 66.6125 133.376 64.2165V64.2126Z" fill="#367CE4"/>
<path d="M164.395 68.28C164.487 65.6334 164.538 64.113 164.538 64.113C163.977 62.2027 161.116 61.3749 157.335 61.1719C152.794 61.936 147.779 62.6723 145.116 62.7121C143.321 62.74 141.244 62.7957 139.246 62.8594C135.831 63.4922 133.451 64.0812 133.376 64.2125C133.089 64.722 132.798 65.6851 132.504 67.0821C135.103 67.7507 143.079 69.5297 152.662 68.9845C157.896 68.686 161.74 68.4512 164.395 68.28Z" fill="#0C2DA4"/>
<path d="M132.448 65.7564C132.445 59.2652 132.393 57.1797 132.178 52.0774C131.414 33.9011 125.5 31.2862 127.649 26.367C129.603 21.8976 135.911 17.4361 141.98 16.851C148.563 16.2182 155.799 18.9047 158.422 22.4588C163.273 29.0256 161.876 46.4259 164.984 63.6431C165.884 68.63 132.445 66.4728 132.445 65.7564H132.448Z" fill="#FF5943"/>
<path d="M145.487 20.4891C141.865 21.3528 139.899 18.1887 139.947 17.142C139.947 17.142 140.695 14.7541 140.786 13.8228C140.894 12.7044 140.958 9.36523 140.958 9.36523L141.053 9.42891L144.241 11.5263L144.484 12.5651L144.675 13.385L145.244 15.8366C145.244 15.8366 146.669 20.2066 145.487 20.4852V20.4891Z" fill="#FBA29A"/>
<path d="M141.499 7.80481C141.32 7.33119 140.942 6.66654 140.369 7.27945C139.537 8.17096 140.397 10.4833 141.638 10.2286C142.562 10.0415 141.591 8.05156 141.495 7.80083L141.499 7.80481Z" fill="#FBA29A"/>
<path d="M144.989 13.4367C144.886 13.4248 144.782 13.4089 144.671 13.393L145.24 15.8446C143.819 15.2357 143.103 13.8506 142.832 12.8994C142.697 12.4179 142.673 12.0477 142.732 11.9522C142.872 11.7293 143.433 12.5174 144.32 12.8318C146.163 13.4765 147.369 13.2139 147.711 13.0069C147.222 13.4527 146.378 13.5999 145.132 13.4527H145.128C145.101 13.4447 145.073 13.4407 145.045 13.4367H145.041C145.017 13.4288 144.997 13.4328 144.985 13.4367H144.989Z" fill="#C66C67"/>
<path d="M147.938 12.748C147.938 12.748 147.934 12.752 147.934 12.7559C147.87 12.8475 147.799 12.9311 147.715 13.0067C147.226 13.4524 146.382 13.5997 145.136 13.4524H145.132C145.085 13.4484 145.037 13.4405 144.989 13.4365C144.886 13.4246 144.782 13.4086 144.671 13.3927C144.543 13.3728 144.412 13.3489 144.277 13.3251C143.811 13.3489 143.305 13.1858 142.832 12.9032C141.686 12.2186 140.723 10.8456 140.945 9.73915L141.045 9.43667L142.139 6.17711C142.732 4.56922 143.715 4.37022 145.164 4.09958C146.637 3.82497 146.8 4.64881 147.258 5.75922C147.695 6.82186 148.257 9.35708 148.237 11.5819C148.233 12.0634 148.133 12.4574 147.93 12.7559L147.938 12.748Z" fill="#FBA29A"/>
<path d="M145.956 9.38097C145.94 9.41281 146.024 9.46057 146.147 9.46455C146.278 9.47649 146.461 9.44067 146.641 9.30933C146.641 9.30933 146.649 9.30137 146.653 9.30137C146.76 9.21381 146.832 9.11829 146.879 9.02277C146.947 8.88746 146.959 8.75612 146.943 8.69244C146.935 8.65264 146.923 8.63672 146.903 8.63672C146.895 8.63672 146.887 8.63672 146.875 8.64468C146.84 8.67254 146.796 8.75612 146.724 8.85164C146.668 8.92327 146.605 8.99889 146.521 9.06655C146.513 9.07451 146.505 9.08247 146.493 9.09043C146.366 9.19391 146.223 9.24963 146.119 9.28545C146.024 9.32127 145.96 9.34117 145.956 9.37699V9.38097Z" fill="#C66C67"/>
<path d="M143.401 6.36019C143.887 6.03782 144.309 5.79106 144.91 5.9622C145.077 6.00996 145.065 6.23283 144.838 6.26865C144.213 6.36815 144.014 6.38407 143.489 6.63879C143.254 6.75421 143.115 6.54725 143.397 6.36019H143.401Z" fill="#803527"/>
<path d="M147.497 6.28061C147.27 6.08958 146.967 6.07764 146.705 6.07764C146.529 6.07764 146.414 6.24877 146.625 6.33235C147.214 6.56319 147.214 6.48757 147.485 6.63881C147.676 6.74627 147.755 6.49553 147.497 6.28061Z" fill="#803527"/>
<path d="M144.4 19.7849C144.4 19.7849 142.442 18.9531 141.901 18.6427C141.364 18.3323 140.186 16.3423 140.186 16.3423L139 17.7034C139 17.7034 140.186 20.1988 141.137 20.9391C142.088 21.6834 142.681 21.8983 142.721 21.9062C142.765 21.9182 144.372 20.76 144.579 20.8356C144.786 20.9112 146.725 22.2963 146.729 22.0097C146.737 21.7192 146.494 19.1123 146.35 18.8059C146.207 18.4994 145.853 17.2895 145.714 17.6437C145.192 18.977 144.392 19.7889 144.392 19.7889L144.4 19.7849Z" fill="#E7F2F2"/>
<path d="M145.829 10.6785C145.829 10.6785 145.861 10.6904 145.877 10.6904C146.764 10.6904 147.17 10.5432 147.186 10.5392C147.25 10.5153 147.286 10.4437 147.262 10.376C147.238 10.3123 147.166 10.2765 147.099 10.3004C147.091 10.3004 146.705 10.4397 145.877 10.4357C145.805 10.4357 145.75 10.4914 145.75 10.5631C145.75 10.6148 145.781 10.6586 145.825 10.6785H145.829Z" fill="#C66C67"/>
<path d="M123.744 156.662C123.744 156.662 123.736 156.662 123.732 156.662C123.466 156.654 123.259 156.435 123.267 156.169C123.311 154.541 125.022 142.438 125.559 139.978C125.886 138.486 126.654 131.354 127.219 126.144C127.529 123.271 127.776 121.006 127.88 120.278C128.17 118.236 133.527 71.0738 133.583 70.5962C133.611 70.3336 133.849 70.1425 134.112 70.1744C134.375 70.2062 134.566 70.441 134.534 70.7037C134.315 72.6499 129.121 118.355 128.827 120.409C128.723 121.121 128.469 123.494 128.17 126.244C127.573 131.764 126.833 138.637 126.495 140.177C125.981 142.526 124.262 154.644 124.222 156.189C124.214 156.447 124.003 156.654 123.744 156.654V156.662Z" fill="#0C2DA4"/>
<path d="M149.809 82.6594C149.738 82.6594 149.662 82.6435 149.594 82.6076C149.36 82.4883 149.264 82.2017 149.38 81.9629C150.991 78.7511 153.399 77.6009 153.499 77.5531C153.738 77.4417 154.024 77.5452 154.136 77.784C154.247 78.0228 154.143 78.3093 153.905 78.4208C153.865 78.4407 151.684 79.5073 150.235 82.3927C150.152 82.5599 149.98 82.6554 149.805 82.6554L149.809 82.6594Z" fill="#0C2DA4"/>
<path d="M153.956 80.5621C153.956 80.5621 153.928 80.5621 153.916 80.5621L151.329 80.3472C151.066 80.3233 150.867 80.0925 150.891 79.8298C150.915 79.5672 151.15 79.3761 151.409 79.392L153.995 79.607C154.258 79.6308 154.457 79.8617 154.433 80.1243C154.413 80.3751 154.202 80.5621 153.956 80.5621Z" fill="#0C2DA4"/>
<path d="M153.956 156.877C153.709 156.877 153.498 156.686 153.478 156.436C153.47 156.324 152.587 145.264 152.189 142.522C151.954 140.906 151.99 128.867 152.03 117.229C152.058 108.684 152.081 100.617 151.986 98.4879C151.763 93.6085 150.903 82.3333 150.895 82.2179C150.876 81.9552 151.075 81.7244 151.337 81.7045C151.6 81.6846 151.831 81.8836 151.851 82.1463C151.859 82.2617 152.718 93.5488 152.945 98.4441C153.045 100.597 153.017 108.677 152.993 117.233C152.957 128.298 152.917 140.838 153.144 142.387C153.546 145.161 154.406 155.906 154.442 156.364C154.461 156.627 154.266 156.858 154 156.881C153.988 156.881 153.972 156.881 153.96 156.881L153.956 156.877Z" fill="#0C2DA4"/>
<path d="M163.579 28.608L149.737 28.6796C149.423 28.6796 149.136 28.9343 149.1 29.2487L146.494 51.2259C146.458 51.5363 146.681 51.7911 146.999 51.7871L160.841 51.7154C161.156 51.7154 161.442 51.4607 161.478 51.1463L164.085 29.1691C164.121 28.8587 163.898 28.604 163.579 28.608Z" fill="#626262"/>
<path d="M156.881 35.4733C156.814 36.1221 156.483 36.6474 156.145 36.6474C155.807 36.6474 155.588 36.126 155.655 35.4773C155.723 34.8286 156.053 34.3032 156.392 34.3032C156.73 34.3032 156.949 34.8246 156.881 35.4733Z" fill="white"/>
<path d="M144.408 42.6213C144.408 42.6213 145.363 39.0235 146.044 38.2911C148.038 36.1261 149.136 35.9111 149.714 35.5689C150.653 35.0117 151.083 35.1828 150.864 35.5649C150.645 35.947 150.123 36.4126 150.123 36.4126C150.123 36.4126 151.087 35.9708 151.409 36.2574C151.723 36.536 151.425 37.0613 151.425 37.0613C151.425 37.0613 151.847 37.336 151.656 37.6782C151.465 38.0205 149.952 38.9478 149.996 39.0752C150.048 39.2224 150.677 38.8961 150.935 38.6414C151.194 38.3827 151.536 38.4066 151.481 38.6772C151.425 38.9518 150.689 39.4772 149.988 40.11C149.284 40.7428 146.756 43.8352 146.331 43.4412C146.175 43.2979 144.404 42.6253 144.404 42.6253L144.408 42.6213Z" fill="#FBA29A"/>
<path d="M161.808 36.0106C161.808 36.0106 163.878 34.94 164.069 35.4495C164.26 35.9589 163.985 36.4683 163.966 36.739C163.946 37.0096 163.981 37.5509 163.914 37.9489C163.846 38.3469 163.385 38.8961 163.349 39.2384C163.313 39.5767 163.122 40.6791 162.959 41.1249C162.795 41.5706 161.669 41.8134 161.359 41.2243C161.048 40.6353 161.737 40.301 161.737 40.301C161.737 40.301 161.347 39.2782 161.41 38.8802C161.474 38.4822 161.14 38.8125 161.379 37.7817C161.406 37.6583 163.138 36.7429 163.138 36.7429C163.138 36.7429 161.884 37.1768 161.657 36.8743C161.43 36.5718 161.808 36.0067 161.808 36.0067V36.0106Z" fill="#FBA29A"/>
<path d="M128.818 24.3499C128.818 24.3499 114.562 43.2943 116.962 54.2789C118.335 60.5712 124.516 61.6498 130.243 58.9355C138.135 55.1943 147.643 44.4207 147.643 44.4207C147.643 44.4207 148.057 41.1412 144.408 39.4855L128.44 46.53C128.44 46.53 132.492 34.5106 132.715 28.9865C132.938 23.4623 128.822 24.3499 128.822 24.3499H128.818Z" fill="#E7F2F2"/>
<path d="M163.727 36.2612C163.727 36.2612 166.119 39.5208 165.343 40.7546C164.567 41.9884 162.123 42.0083 162.238 40.9774C162.354 39.9466 163.727 36.2612 163.727 36.2612Z" fill="#FBA29A"/>
<path d="M144.881 8.17909C144.881 8.35023 144.798 8.48952 144.694 8.48952C144.591 8.48952 144.507 8.35023 144.507 8.17909C144.507 8.00795 144.591 7.86865 144.694 7.86865C144.798 7.86865 144.881 8.00795 144.881 8.17909Z" fill="black"/>
<path d="M147.444 8.17909C147.444 8.35023 147.361 8.48952 147.257 8.48952C147.154 8.48952 147.07 8.35023 147.07 8.17909C147.07 8.00795 147.154 7.86865 147.257 7.86865C147.361 7.86865 147.444 8.00795 147.444 8.17909Z" fill="black"/>
<path d="M122.36 52.4283C122.24 52.4283 122.117 52.3925 122.009 52.3208C121.715 52.1258 121.631 51.7318 121.826 51.4333C124.974 46.6534 128.174 45.933 128.309 45.9052C128.656 45.8335 128.994 46.0524 129.066 46.3987C129.137 46.741 128.918 47.0793 128.576 47.1549C128.528 47.1668 125.715 47.8553 122.893 52.1377C122.769 52.3248 122.566 52.4243 122.36 52.4243V52.4283Z" fill="#2196F3"/>
<path d="M31 140.011H58.8556C84.3072 140.011 94.6949 154.462 94.6949 186.894C94.6949 221.444 84.4465 237.535 58.0635 237.535H31V140.011ZM53.5065 220.509H57.6695C68.097 220.509 71.1535 213.15 71.1535 186.54C71.1535 164.268 68.4034 157.224 57.8128 157.224H53.5065V220.513V220.509Z" fill="#10BB76"/>
<path d="M126.232 204.84C126.232 214.738 127.199 222.312 134.069 222.312C140.237 222.312 141.145 217.233 141.384 213.771H162.485C161.944 218.865 159.695 238.932 133.627 238.932C107.558 238.932 104.255 219.641 104.255 199.005C104.255 173.402 114.511 160.328 134.069 160.328C156.511 160.328 162.963 175.531 162.963 196.534C162.963 199.117 162.867 203.28 162.776 204.84H126.232ZM141.228 190.85C141.228 183.467 140.898 176.598 134.013 176.598C127.128 176.598 126.415 183.838 126.415 190.85H141.224H141.228Z" fill="#10BB76"/>
<path d="M172.49 140.011H225.272V158.295H194.706V179.305H223.346V197.449H194.706V237.535H172.49V140.011Z" fill="#10BB76"/>
<path d="M233.547 161.574H255.62V237.535H233.547V161.574ZM233.642 135.402H255.715V153.284H233.642V135.402Z" fill="#10BB76"/>
<path d="M42.144 140.011H69.9996C95.4513 140.011 105.839 154.462 105.839 186.894C105.839 221.444 95.5906 237.535 69.2076 237.535H42.144V140.011ZM64.6506 220.509H68.8136C79.241 220.509 82.2976 213.15 82.2976 186.54C82.2976 164.268 79.5475 157.224 68.9569 157.224H64.6506V220.513V220.509Z" fill="#6AFFC3"/>
<path d="M137.38 204.84C137.38 214.738 138.347 222.312 145.216 222.312C151.385 222.312 152.292 217.233 152.531 213.771H173.633C173.091 218.865 170.843 238.932 144.774 238.932C118.706 238.932 115.402 219.641 115.402 199.005C115.402 173.402 125.659 160.328 145.216 160.328C167.659 160.328 174.11 175.531 174.11 196.534C174.11 199.117 174.015 203.28 173.923 204.84H137.38ZM152.376 190.85C152.376 183.467 152.046 176.598 145.16 176.598C138.275 176.598 137.563 183.838 137.563 190.85H152.372H152.376Z" fill="#6AFFC3"/>
<path d="M183.639 140.011H236.421V158.295H205.855V179.305H234.494V197.449H205.855V237.535H183.639V140.011Z" fill="#6AFFC3"/>
<path d="M244.695 161.574H266.768V237.535H244.695V161.574ZM244.79 135.402H266.863V153.284H244.79V135.402Z" fill="#6AFFC3"/>
<path d="M145.503 244.225C145.503 245.646 129.766 246.8 110.356 246.8C90.9461 246.8 75.2095 245.65 75.2095 244.225C75.2095 242.801 90.9461 241.65 110.356 241.65C129.766 241.65 145.503 242.801 145.503 244.225Z" fill="#8BB6EF"/>
<path d="M96.0998 91.5508C94.5436 91.4274 85.3858 103.232 79.9174 109.484C75.0579 107.677 65.9478 106.969 56.599 105.178C55.7632 105.019 52 108 52 108C52 108 71.5555 118.69 78.8587 119.597C80.3472 120.131 82.2815 119.92 84.6774 118.379C89.5528 115.247 97.5286 101.425 98.0977 100.004C99.8847 95.5267 98.1932 91.7139 96.1077 91.5508H96.0998Z" fill="#E88E85"/>
<path d="M99.0011 75.3726C96.9753 76.6979 98.4678 79.858 98.3404 80.5584C98.2131 81.2589 97.3494 81.3584 97.1305 81.9076C96.9117 82.4569 97.429 83.3444 97.429 83.3444C97.429 83.3444 96.5654 83.1135 96.4062 83.9653C96.247 84.817 96.7286 86.1065 98.6628 87.2328C100.597 88.3591 104.84 87.7382 105.906 87.2089C106.969 86.6796 109.95 84.4468 108.684 79.6908C107.498 75.2373 103.303 75.9497 103.303 75.9497C103.303 75.9497 102.161 73.307 99.0011 75.3726Z" fill="#A7333E"/>
<path d="M92.3112 235.422C91.5231 236.301 88.9282 240.803 87.5591 240.942C86.8188 241.018 85.2746 240.93 84.8408 240.835C85.5771 240.138 89.2705 234.574 87.79 226.718L93.7479 227.056C93.7479 227.056 93.2703 233.746 93.4852 234.128C92.932 234.116 92.7927 234.881 92.3072 235.426L92.3112 235.422Z" fill="#E79C94"/>
<path d="M81.6605 242.785C82.0744 242.295 82.8784 241.718 84.4027 241.133C84.5539 241.074 84.7012 240.974 84.8405 240.839C85.2703 240.934 86.8185 241.022 87.5588 240.946C88.9279 240.807 91.5228 236.306 92.3108 235.426C92.7964 234.881 92.9357 234.117 93.4889 234.129C93.9744 234.984 94.7624 236.524 94.7306 237.492C94.6868 238.893 94.5316 242.65 94.456 244.138H92.7088L92.5934 240.5C92.5934 240.5 91.2322 240.361 90.7029 241.129C90.5039 241.42 90.3606 241.913 90.2572 242.419C90.0462 243.469 89.1468 244.138 88.0085 244.138H82.5082C81.7998 244.138 81.2506 243.266 81.6605 242.781V242.785Z" fill="#FFE266"/>
<path d="M124.584 234.745C125.611 235.625 129.862 240.802 131.267 240.942C132.027 241.017 132.64 240.93 133.042 240.834C132.114 240.138 127.752 233.165 126.61 227.673L120.696 227.501C120.696 227.501 122.67 233.746 122.558 234.128C123.108 234.116 123.947 234.204 124.58 234.745H124.584Z" fill="#E79C94"/>
<path d="M136.763 242.784C136.218 242.295 135.255 241.718 133.567 241.133C133.4 241.073 133.225 240.974 133.046 240.838C132.64 240.934 132.027 241.021 131.271 240.946C129.862 240.806 125.615 235.629 124.588 234.749C123.956 234.204 123.116 234.116 122.567 234.132C122.316 234.988 121.95 236.528 122.244 237.495C122.67 238.896 123.335 242.056 123.776 244.142H125.524L125.205 240.504C125.205 240.504 126.527 240.365 127.267 241.133C127.545 241.423 127.824 241.917 128.067 242.422C128.568 243.473 129.647 244.142 130.785 244.142H136.285C136.994 244.142 137.304 243.27 136.763 242.784Z" fill="#FFE266"/>
<path d="M110.272 128.696C108.139 120.971 88.1876 114.201 85.2225 125.233C84.3151 128.62 80.7332 131.235 79.5591 142.781C77.4776 163.273 85.3897 232.588 87.1409 233.849C88.892 235.111 95.4032 236.381 95.837 234.239C96.3942 231.501 95.642 160.03 95.1962 151.063C95.7176 153.877 119.323 232.13 120.696 233.845C122.069 235.561 126.869 233.845 129.101 232.389C129.75 231.967 115.287 160.563 115.287 160.563C115.287 160.563 112.425 136.504 110.268 128.696H110.272Z" fill="#A28300"/>
<path d="M82.019 132.035C82.7235 130.311 83.4439 129.034 84.0448 127.919C85.9353 128.664 89.5968 130.061 92.2355 130.821C95.9488 131.891 111.116 135.664 111.116 135.664C111.116 135.664 109.341 136.795 103.18 136.102C97.0194 135.41 89.8396 134.538 87.778 134.029C85.3463 133.428 83.217 132.787 82.019 132.035Z" fill="#655200"/>
<path d="M113.09 134.594C113.826 117.118 114.495 104.04 112.843 98.0621C111.593 93.5409 107.665 90.5838 101.827 90.0226C95.4985 89.4137 93.9384 93.0394 91.0529 96.1557C85.3377 102.329 87.9645 106.917 86.3566 118.169C85.9467 121.042 83.105 129.683 83.105 129.683C83.105 129.683 84.9397 131.322 89.5246 132.142C90.5475 132.325 92.8558 132.743 93.5563 132.958C101.97 135.553 112.994 136.854 113.09 134.594Z" fill="#FFE26B"/>
<path d="M108.565 95.0731C105.158 95.6502 96.3543 105.178 90.078 110.623C85.509 108.171 74.2418 104.947 65.2273 101.895C64.4233 101.624 62.8672 105.345 62.8672 105.345C62.8672 105.345 80.5341 118.598 87.6423 120.497C89.0432 121.229 90.9894 121.285 93.5724 120.087C98.8299 117.651 111.04 104.812 111.796 103.483C114.176 99.2918 111.164 94.6313 108.565 95.0731Z" fill="#E79C94"/>
<path d="M95.1959 151.437C95.2158 151.437 95.2397 151.437 95.2596 151.433C95.4665 151.397 95.6019 151.202 95.566 150.995C95.5024 150.625 93.9542 141.853 90.6866 137.491C90.5633 137.324 90.3245 137.292 90.1573 137.416C89.9901 137.539 89.9583 137.778 90.0817 137.945C93.2418 142.164 94.8059 151.035 94.8218 151.127C94.8536 151.31 95.0128 151.441 95.1919 151.441L95.1959 151.437Z" fill="#655200"/>
<path d="M110.356 143.887C110.468 143.887 110.579 143.839 110.655 143.744C110.782 143.581 110.754 143.342 110.591 143.214C107.335 140.663 106.83 136.878 106.822 136.839C106.798 136.632 106.607 136.484 106.4 136.512C106.193 136.536 106.046 136.727 106.074 136.934C106.094 137.101 106.627 141.069 110.125 143.811C110.193 143.867 110.277 143.891 110.356 143.891V143.887Z" fill="#655200"/>
<path d="M102.356 90.1463C102.356 90.1463 100.864 89.9274 100.1 90.5284C99.3355 91.1293 97.6918 94.5163 98.7743 94.8983C99.8569 95.2804 107.188 93.6168 107.128 92.5024C107.069 91.388 105.357 90.1463 102.356 90.1463Z" fill="#E79C94"/>
<path d="M128.107 230.984C128.107 230.984 128.143 230.984 128.162 230.976C128.262 230.944 128.318 230.841 128.29 230.741C128.29 230.729 127.908 229.46 127.657 228.457C127.47 227.701 125.293 216.943 123.991 210.511C123.534 208.251 123.172 206.448 123.008 205.656C122.455 202.953 117.918 181.844 116.756 178.676C115.896 176.34 114.487 167.619 113.552 161.853C113.25 159.982 112.987 158.37 112.816 157.407C112.123 153.542 110.034 143.569 110.01 143.469C109.99 143.366 109.887 143.302 109.787 143.322C109.684 143.342 109.62 143.441 109.64 143.545C109.66 143.644 111.749 153.614 112.442 157.475C112.613 158.434 112.876 160.046 113.178 161.912C114.113 167.695 115.53 176.435 116.402 178.807C117.556 181.955 122.085 203.029 122.638 205.731C122.802 206.527 123.164 208.326 123.621 210.587C125.006 217.436 127.1 227.784 127.291 228.548C127.546 229.559 127.928 230.837 127.932 230.849C127.956 230.932 128.031 230.984 128.111 230.984H128.107Z" fill="#655200"/>
<path d="M94.4082 233.34C94.4082 233.34 94.4281 233.34 94.4361 233.34C94.5396 233.324 94.6112 233.229 94.5913 233.125C94.5794 233.041 94.2649 231.067 94.0739 230.367C93.9664 229.965 94.1535 224.218 94.5754 214.996L94.5873 214.75C94.651 213.341 94.1495 203.57 93.9306 200.267C93.8033 198.344 93.7475 189.867 93.7595 175.078V174.031C93.7595 171.635 93.5724 148.018 93.5685 147.779C93.5685 147.676 93.4849 147.592 93.3814 147.592C93.2779 147.592 93.1943 147.68 93.1943 147.783C93.1943 148.022 93.3854 171.639 93.3854 174.031V175.078C93.3734 189.879 93.4291 198.36 93.5565 200.295C93.7674 203.502 94.2729 213.369 94.2132 214.738L94.2013 214.984C93.8908 221.73 93.5565 229.889 93.7117 230.47C93.8948 231.155 94.2172 233.169 94.2212 233.189C94.2371 233.28 94.3167 233.348 94.4082 233.348V233.34Z" fill="#655200"/>
<path d="M104.911 83.4438L105.102 91.2007C105.11 92.1679 101.5 93.8554 99.9722 92.6335C99.5264 92.2753 101.158 89.9908 101.158 89.9908L102.082 84.6299L104.911 83.4438Z" fill="#E79C94"/>
<path d="M104.175 80.3792L105.047 82.1503C105.445 83.9174 104.044 85.7044 102.245 85.9153C100 86.178 98.8818 85.7521 98.846 83.6587C98.8261 82.4289 99.8728 80.1922 100.291 79.3245C100.78 78.3136 101.684 77.8321 102.551 77.9435C103.375 78.051 102.384 79.0977 104.175 80.3752V80.3792Z" fill="#E79C94"/>
<path d="M101.027 82.1026C100.78 81.9991 100.577 81.8478 100.406 81.6409C100.279 81.4857 100.06 81.7125 100.187 81.8677C100.37 82.0906 100.605 82.2657 100.872 82.3772C101.055 82.4568 101.21 82.1822 101.023 82.1026H101.027Z" fill="#D58D86"/>
<path d="M102.257 80.8212C102.225 80.8092 102.126 80.7615 102.046 80.8689C101.986 80.9485 101.938 81.06 101.934 81.1674C101.927 81.2908 102.038 81.3863 102.157 81.3625C102.321 81.3346 102.476 80.9087 102.257 80.8212Z" fill="#A7333E"/>
<path d="M100.219 80.4511C100.187 80.4391 100.088 80.3914 100.008 80.4988C99.9486 80.5784 99.9009 80.6899 99.8969 80.7933C99.8889 80.9167 100 81.0122 100.12 80.9884C100.283 80.9605 100.438 80.5347 100.219 80.4471V80.4511Z" fill="#A7333E"/>
<path d="M101.97 83.1572C101.596 83.0577 100.661 82.8269 99.6379 82.6876C99.5622 82.6756 99.4946 82.7353 99.4946 82.8109C99.4866 83.0338 99.5065 83.4716 99.7095 83.7263C100.104 84.2238 101.122 84.6258 102.042 83.3602C102.093 83.2885 102.058 83.1851 101.97 83.1612V83.1572Z" fill="white"/>
<path d="M104.86 81.9671C104.979 81.8079 105.075 81.6289 105.162 81.4498C105.321 81.1035 105.644 80.6259 106.038 81.1154C106.615 81.8278 105.656 83.6268 104.736 83.3721C104.052 83.181 104.557 82.3731 104.86 81.9671Z" fill="#E79C94"/>
<path d="M102.336 79.8578C102.615 79.9692 102.905 80.1284 103.128 80.3354C103.236 80.4349 103.084 80.5861 102.981 80.4866C102.79 80.3075 102.527 80.1603 102.288 80.0647C102.157 80.013 102.205 79.8021 102.34 79.8538L102.336 79.8578Z" fill="#A7333E"/>
<path d="M100.056 79.7185C100.227 79.6469 100.406 79.5912 100.581 79.5354C100.716 79.4917 100.792 79.6946 100.657 79.7384C100.478 79.7941 100.303 79.8499 100.131 79.9215C100 79.9772 99.9244 79.7742 100.056 79.7185Z" fill="#A7333E"/>
<path d="M104.12 85.0077C104.072 85.0515 102.579 86.9062 101.612 87.3519L101.799 85.9589C100.351 86.0704 99.4392 85.8236 99.0571 84.8804C99.0691 84.8804 100.609 85.4137 101.648 85.4336C102.691 85.4495 104.124 85.0077 104.124 85.0077H104.12Z" fill="#D58D86"/>
<path d="M66.6723 103.518C66.6723 103.518 62.8317 97.0789 61.574 95.9844C60.3164 94.8939 58.3503 92.9796 58.0239 93.2542C57.6976 93.5288 60.0975 96.4222 60.0975 96.4222C60.0975 96.4222 58.016 98.0619 57.9921 99.3156C57.9682 100.573 59.007 100.955 59.007 100.955C59.007 100.955 60.9174 105.214 63.4287 105.544C65.94 105.871 66.6684 103.518 66.6684 103.518H66.6723Z" fill="#E79C94"/>
<path d="M57.2051 105.883C57.2051 105.883 51.7217 100.77 50.2088 100.069C48.697 99.3723 46.2753 98.0818 46.0384 98.4365C45.8015 98.7912 48.9128 100.901 48.9128 100.901C48.9128 100.901 47.3709 103.056 47.6974 104.267C48.025 105.481 49.1291 105.558 49.1291 105.558C49.1291 105.558 52.1508 109.116 54.6547 108.733C57.1574 108.346 57.2013 105.884 57.2013 105.884L57.2051 105.883Z" fill="#E88E85"/>
<path d="M92.4183 115.279C91.8771 115.279 91.4154 114.869 91.3636 114.32C91.2562 113.214 89.8791 111.837 89.4055 111.443C88.9558 111.068 88.8921 110.4 89.2702 109.946C89.6483 109.496 90.3129 109.433 90.7667 109.811C91.0214 110.026 93.274 111.956 93.481 114.121C93.5367 114.706 93.1108 115.223 92.5258 115.279C92.49 115.283 92.4581 115.283 92.4223 115.283L92.4183 115.279Z" fill="#D58D86"/>
<path d="M275.006 78.2142C275.006 78.2142 266.326 98.8741 267.723 101.541C269.12 104.211 281.963 117.377 281.963 117.377C281.963 117.377 281.581 119.693 280.08 121.166C278.799 122.423 276.59 122.837 276.59 122.837C276.59 122.837 261.072 114.674 257.753 105.457C254.434 96.2354 263.934 77.86 266.875 74.5965C268.877 72.3717 275.507 73.3985 275.006 78.2182V78.2142Z" fill="#89443B"/>
<path d="M270.882 190.011C270.496 188.271 271.686 184.781 271.69 184.654C271.714 184.112 270.914 183.842 269.903 184.63C268.534 185.696 267.137 183.193 267.157 184.128C267.217 186.91 265.259 191.471 265.951 192.14C268.16 194.273 274.42 196.912 274.365 195.829C274.329 195.18 271.244 191.662 270.878 190.011H270.882Z" fill="#434A59"/>
<path d="M277.804 190.349C277.418 188.61 278.608 185.119 278.612 184.996C278.636 184.455 277.836 184.184 276.825 184.972C275.456 186.039 274.059 183.535 274.079 184.47C274.138 187.252 272.18 191.813 272.873 192.482C275.081 194.615 281.342 197.254 281.286 196.171C281.25 195.523 278.166 192.004 277.8 190.353L277.804 190.349Z" fill="#434A59"/>
<path d="M238.971 113.377C238.971 113.377 235.64 124.27 238.255 131.024C240.87 137.778 282.257 139.788 282.257 139.788L271.141 185.521C271.141 185.521 271.539 187.049 274.823 187.842C277.939 188.59 279.248 187.344 279.248 187.344C279.248 187.344 295.674 143.31 295.276 135.8C294.878 128.29 284.16 125.759 275.539 123.518C267.313 121.381 243.493 113.21 238.975 113.381L238.971 113.377Z" fill="#98BBC4"/>
<path d="M233.905 114.038C233.905 114.038 231.223 125.054 235.015 131.223C239.505 138.526 273.597 139.43 273.597 139.43L265.625 185.251C265.625 185.251 266.023 186.779 269.307 187.571C272.423 188.319 273.732 187.074 273.732 187.074C273.732 187.074 290.157 143.04 289.759 135.529C289.361 128.019 281.027 127.578 272.371 125.472C268.387 124.501 265.971 123.996 263.623 123.403C260.825 122.698 263.134 116.991 262.827 116.398C262.258 115.299 238.426 113.871 233.909 114.038H233.905Z" fill="#B1D5DE"/>
<path d="M266.608 72.0014C268.367 71.7348 270.162 71.9736 271.798 72.67C273.927 73.5775 276.041 74.8471 276.865 78.1902C277.521 80.8568 277.263 83.9333 276.447 86.8187C275.659 89.6047 270.055 100.394 268.937 104.008C267.528 108.553 268.367 121.42 268.367 121.42C268.367 121.42 266.811 122.133 264.777 122.407C264.308 122.471 262.25 120.171 262.25 120.171C262.25 120.171 260.284 123.211 259.289 123.255C256.475 123.37 252.893 123.295 248.615 122.761C234.263 120.974 232.409 116.561 232.409 116.561C232.409 116.561 238.176 96.9476 247.632 84.777C253.275 77.5096 260.021 73.0044 266.612 71.9974L266.608 72.0014Z" fill="#AF5546"/>
<path d="M280.574 60.9055C280.574 60.9055 281.29 60.8578 282.11 61.1881C282.779 61.4548 284.208 63.381 283.869 64.1492C283.316 65.4028 281.74 65.6854 281.075 65.7212C280.407 65.7571 274.497 67.1898 274.134 67.154C273.772 67.1182 273.816 65.8605 273.987 65.5939C274.286 65.1282 274.473 62.7204 275.01 61.6577C275.543 60.5911 278.477 58.6967 280.578 60.9095L280.574 60.9055Z" fill="#FFE164"/>
<path d="M271.468 72.7301C271.468 72.7301 270.97 71.9938 270.624 73.2912C270.485 73.8086 271.293 78.091 271.5 82.3575C271.814 88.7612 270.437 96.4067 270.799 96.144C271.145 95.8933 273.967 89.406 274.664 83.6988C275.173 79.5357 274.886 75.7707 274.628 75.4285C274.011 74.6165 271.822 72.6266 271.468 72.7301Z" fill="#B1D5DE"/>
<path d="M281.194 67.4644C281.194 67.4644 281.159 68.5389 281.194 68.6663C281.226 68.7937 280.796 68.734 280.482 68.6663C280.168 68.5986 281.055 67.5917 281.198 67.4683L281.194 67.4644Z" fill="#EEA7A0"/>
<path d="M275.213 66.0518L270.31 71.9381C269.928 72.4276 273.979 75.0424 273.979 75.0424L275.209 71.747L276.439 68.4556L275.213 66.0557V66.0518Z" fill="#EEA7A0"/>
<path d="M275.284 71.552L276.16 69.2039L274.325 68.3999C274.325 68.3999 273.629 70.2187 275.28 71.552H275.284Z" fill="#C66C67"/>
<path d="M277.028 64.1132L275.989 65.2315C274.342 66.533 273.86 67.6752 274.64 69.307C275.34 70.7756 277.171 72.0452 278.242 71.8223C278.795 71.7069 279.273 70.9626 279.683 70.2383C280.236 69.2632 280.821 68.3399 281.358 67.2016C281.541 66.8156 281.852 66.5091 281.959 66.2663C282.27 65.5539 282.433 65.2753 282.277 64.9529C282.186 64.7659 281.478 64.0177 281.219 63.7828C280.542 63.1739 278.29 63.0665 277.028 64.1172V64.1132Z" fill="#EEA7A0"/>
<path d="M280.506 66.6127C280.542 66.6287 280.649 66.6804 280.617 66.8237C280.594 66.9311 280.534 67.0505 280.454 67.1301C280.359 67.2217 280.2 67.1978 280.132 67.0863C280.04 66.9311 280.279 66.4973 280.506 66.6167V66.6127Z" fill="#543732"/>
<path d="M281.393 66.2906C281.151 66.0677 280.852 65.8647 280.542 65.7453C280.394 65.6896 280.315 65.9085 280.462 65.9642C280.729 66.0677 281.003 66.2508 281.21 66.4418C281.326 66.5453 281.509 66.398 281.393 66.2906Z" fill="#FFE164"/>
<path d="M280.251 68.4356C280.514 68.563 280.784 68.6227 281.075 68.6187C281.298 68.6147 281.262 68.957 281.043 68.961C280.725 68.969 280.418 68.8973 280.132 68.758C279.937 68.6625 280.052 68.3362 280.251 68.4356Z" fill="#C66C67"/>
<path d="M279.921 70.127C279.901 70.127 279.881 70.127 279.862 70.1191C279.83 70.1111 279.042 69.8723 278.516 69.3311C278.433 69.2435 278.437 69.1082 278.52 69.0246C278.608 68.941 278.743 68.945 278.827 69.0286C279.272 69.4903 279.973 69.7012 279.981 69.7012C280.096 69.737 280.16 69.8564 280.128 69.9718C280.1 70.0673 280.013 70.127 279.921 70.127Z" fill="#C66C67"/>
<path d="M280.904 63.4006C280.916 63.4325 280.228 63.0305 279.396 63.4603C278.56 63.8902 278.091 64.312 277.704 64.7896C277.318 65.2672 277.052 64.5946 277.179 64.2245C277.306 63.8543 277.219 63.1937 277.911 62.8713C278.604 62.5489 280.474 62.2425 280.904 63.3967V63.4006Z" fill="#FFE164"/>
<path d="M277.426 64.543C277.529 64.1091 277.585 63.4365 276.864 63.5997C275.814 63.8345 275.125 65.92 276.096 66.4772C276.383 66.6444 277.37 64.7738 277.426 64.543Z" fill="#EEA7A0"/>
<path d="M269.549 72.0456C269.549 72.0456 270.424 71.0029 270.735 71.1183C270.874 71.17 271.376 72.161 272.072 72.8814C272.94 73.7769 274.022 74.4296 274.022 74.4296L274.424 73.8485L274.902 76.141L274.01 75.2972L272.808 75.8584C272.808 75.8584 270.11 73.8087 269.549 72.0456Z" fill="white"/>
<path d="M278.357 71.7868C278.011 71.6197 277.565 71.3809 277.083 71.0585C275.977 70.3222 274.353 68.4238 274.329 68.3999C274.385 68.6865 274.441 68.9969 274.596 69.3153C275.296 70.7839 277.175 72.0455 278.245 71.8226C278.285 71.8147 278.321 71.8027 278.361 71.7908L278.357 71.7868Z" fill="#C66C67"/>
<path d="M255.25 126.571L255.297 125.611L274.266 122.021L297.755 127.86C297.99 127.92 297.994 128.25 297.759 128.314L282.986 132.29L255.25 126.571Z" fill="#434A59"/>
<path d="M262.584 124.234L270.253 122.781L274.213 123.748L267.209 125.392L262.584 124.234Z" fill="#252A30"/>
<path d="M267.177 127.16L279.79 123.765L291.244 126.559L280.566 130.164L267.177 127.16Z" fill="#252A30"/>
<path d="M277.258 119.681C277.258 119.681 277.111 120.903 277.433 121.616C277.756 122.328 279.515 124.004 279.953 124.72C280.39 125.436 280.808 126.017 280.979 125.261C281.151 124.509 279.881 122.921 280.414 123.013C280.948 123.104 284.072 126.173 284.637 126.109C285.202 126.045 284.259 124.501 284.259 124.501C284.259 124.501 285.974 125.417 286.547 125.126C287.12 124.839 286.981 124.063 286.623 123.566C286.623 123.566 287.24 123.813 287.284 123.343C287.327 122.873 281.779 119.379 280.816 118.479C279.849 117.58 276.964 118.38 277.262 119.673L277.258 119.681Z" fill="#EEA7A0"/>
<path d="M264.71 80.3715C264.71 80.3715 256.029 101.031 257.426 103.698C258.823 106.368 273.653 120.927 273.653 120.927C273.653 120.927 272.797 123.219 272.267 123.82C271.483 124.708 268.28 126.388 268.28 126.388C268.28 126.388 250.78 116.832 247.457 107.61C244.137 98.3887 253.637 80.0133 256.579 76.7498C258.58 74.525 265.211 75.5518 264.71 80.3715Z" fill="#AF5546"/>
<path d="M272.319 121.452C272.319 121.452 275.575 122.63 276.443 123.032C277.306 123.434 279.945 125.707 279.439 126.005C278.934 126.304 276.984 124.358 276.952 124.441C276.92 124.521 278.946 126.638 278.954 127.052C278.962 127.466 277.859 127.995 277.071 127.681C276.287 127.366 274.667 125.934 274.667 125.934C274.667 125.934 275.555 127.052 275.213 127.259C274.87 127.462 272.55 125.739 272.124 125.404C271.698 125.07 268.861 124.326 268.928 122.977C268.992 121.627 271.277 121.074 272.315 121.456L272.319 121.452Z" fill="#EEA7A0"/>
<path d="M268.781 116.398C268.694 116.398 268.61 116.362 268.547 116.298C268.145 115.872 258.672 105.887 257.94 104.999C257.124 104.012 256.953 102.957 257.232 100.653C257.506 98.3605 262.485 85.0397 262.696 84.4746C262.76 84.3074 262.947 84.2198 263.114 84.2835C263.281 84.3472 263.369 84.5343 263.305 84.7014C263.253 84.8407 258.143 98.5118 257.876 100.729C257.594 103.081 257.833 103.845 258.441 104.581C259.158 105.449 268.921 115.745 269.016 115.848C269.14 115.98 269.136 116.183 269.004 116.306C268.941 116.366 268.861 116.394 268.781 116.394V116.398Z" fill="#89443B"/>
<path d="M261.032 122.157C260.977 122.157 260.921 122.145 260.873 122.113C260.579 121.946 253.594 117.914 250.171 112.732C246.542 107.236 245.853 103.523 247.222 96.8403C247.258 96.6652 247.429 96.5498 247.604 96.5856C247.779 96.6214 247.895 96.7926 247.859 96.9677C246.534 103.451 247.198 107.049 250.712 112.37C254.048 117.421 261.124 121.504 261.196 121.544C261.351 121.631 261.407 121.83 261.315 121.99C261.255 122.093 261.144 122.153 261.032 122.153V122.157Z" fill="#89443B"/>
<path d="M252.456 106.082C252.36 106.082 252.265 106.038 252.201 105.958C252.089 105.819 252.113 105.612 252.257 105.501C254.879 103.443 257.633 103.686 257.749 103.698C257.928 103.714 258.059 103.873 258.039 104.052C258.023 104.231 257.86 104.362 257.685 104.342C257.657 104.342 255.066 104.12 252.659 106.01C252.599 106.058 252.527 106.078 252.46 106.078L252.456 106.082Z" fill="#89443B"/>
<path d="M282.981 132.294L287.483 112.501C287.554 112.191 287.797 111.948 288.112 111.877L302.75 108.601C303.036 108.537 303.295 108.796 303.223 109.083L298.738 127.621C298.67 127.904 298.451 128.131 298.169 128.206L282.981 132.298V132.294Z" fill="#434A59"/>
<path d="M294.694 119.243C294.579 119.749 294.284 120.115 294.034 120.059C293.783 120.003 293.676 119.546 293.791 119.036C293.906 118.531 294.201 118.165 294.452 118.22C294.702 118.276 294.81 118.734 294.694 119.243Z" fill="#B1D5DE"/>
<path d="M273.596 139.971C273.401 139.971 273.218 139.863 273.119 139.688C273.003 139.477 273.043 139.215 273.214 139.047L277.592 134.689C277.803 134.479 278.146 134.479 278.36 134.689C278.571 134.9 278.571 135.243 278.36 135.458L275.292 138.514L278.794 137.758C279.085 137.694 279.375 137.881 279.439 138.172C279.503 138.466 279.316 138.753 279.025 138.817L273.72 139.963C273.68 139.971 273.644 139.975 273.604 139.975L273.596 139.971Z" fill="#3CA7C1"/>
<path d="M46.4414 88.6943C44.127 80.0298 39.2948 73.1655 33.9012 69.9405L32.8735 66.0787L26.035 67.5821C17.6014 69.8294 13.6921 82.6168 17.2955 96.1423C20.899 109.668 30.6646 118.808 39.0982 116.561L45.9367 115.058L44.909 111.196C47.9762 105.716 48.7607 97.35 46.455 88.6903L46.4414 88.6943Z" fill="#3554C4"/>
<path d="M54.7083 86.4911C51.1011 72.9633 41.3418 63.8195 32.9103 66.0678C24.4788 68.3161 20.5679 81.1051 24.1751 94.6328C27.7823 108.161 37.5416 117.304 45.9731 115.056C54.4046 112.808 58.3155 100.019 54.7083 86.4911Z" fill="#4E76E5"/>
<path d="M48.3678 110.529C47.6562 110.993 46.8818 111.344 46.0679 111.558C42.6717 112.465 38.9041 111.058 35.453 107.599C32.0838 104.219 29.4065 99.269 27.9099 93.6436C26.4133 88.0183 26.2639 82.3913 27.5073 77.7804C28.7774 73.0587 31.3452 69.9625 34.7414 69.0555C38.1376 68.1485 41.9052 69.5562 45.3563 73.015C48.7254 76.3944 51.4028 81.3449 52.8994 86.9703C54.396 92.5956 54.5454 98.2226 53.302 102.833C52.3401 106.412 50.622 109.063 48.3678 110.529ZM33.0659 71.0673C31.0596 72.3727 29.5162 74.7879 28.6277 78.0878C27.4367 82.4993 27.5852 87.9204 29.0313 93.3469C31.9858 104.439 39.4988 112.115 45.7623 110.432C52.0299 108.764 54.7229 98.3772 51.7596 87.2798C48.8051 76.1872 41.3009 68.5169 35.0285 70.1944C34.3321 70.3823 33.6807 70.6749 33.061 71.0761L33.0659 71.0673Z" fill="white"/>
<path d="M43.2581 101.926L42.4174 98.7827C41.13 99.0909 39.6478 98.8814 38.667 98.3199L38.6456 96.0948C39.6408 96.63 40.9457 96.9132 42.1893 96.5809C43.754 96.1625 44.4856 94.602 44.008 92.8336C43.5549 91.1244 42.401 90.2965 40.5181 89.7986C37.9294 89.1525 36.1576 88.0993 35.4345 85.3861C34.7422 82.8038 35.5296 80.4981 37.444 79.4845L36.6033 76.3416L37.9778 75.9785L38.783 78.9993C40.1278 78.7111 41.1654 78.9616 41.9481 79.323L41.948 81.525C41.3892 81.2751 40.2964 80.8345 38.881 81.2095C37.1805 81.6673 36.9173 83.2683 37.2496 84.5119C37.6838 86.1309 38.7171 86.7214 40.9404 87.3265C43.5673 88.0278 45.15 89.3421 45.8889 92.1097C46.5456 94.5697 45.9473 97.1961 43.8042 98.335L44.6638 101.568L43.2709 101.944L43.2581 101.926Z" fill="white"/>
</svg>
