<svg width="24" height="24" viewBox="0 0 24 24" fill="none" xmlns="http://www.w3.org/2000/svg">
<path d="M20.0073 3.51471C17.7937 1.24823 14.8505 0 11.72 0C8.58953 0 5.64629 1.24823 3.4327 3.51471C1.2191 5.78119 0 8.79474 0 12C0 15.2053 1.2191 18.2188 3.4327 20.4853C5.64629 22.7518 8.58953 24 11.72 24C14.8505 24 17.7937 22.7518 20.0073 20.4853C22.2209 18.2188 23.44 15.2053 23.44 12C23.44 8.79474 22.2209 5.78119 20.0073 3.51471V3.51471ZM5.08655 20.1233C5.47354 16.7139 8.33648 14.0815 11.72 14.0815C13.5037 14.0815 15.181 14.7931 16.4426 16.0847C17.5085 17.1762 18.1807 18.6013 18.3536 20.1231C16.5564 21.6643 14.2423 22.5938 11.72 22.5938C9.19774 22.5938 6.88382 21.6645 5.08655 20.1233V20.1233ZM11.72 12.6332C9.75731 12.6332 8.16033 10.998 8.16033 8.98846C8.16033 6.9787 9.75731 5.34375 11.72 5.34375C13.6827 5.34375 15.2797 6.9787 15.2797 8.98846C15.2797 10.998 13.6827 12.6332 11.72 12.6332ZM19.5357 18.9344C19.1857 17.4897 18.4559 16.1576 17.4137 15.0905C16.5696 14.2262 15.571 13.5778 14.4819 13.1715C15.7911 12.2624 16.6531 10.7265 16.6531 8.98846C16.6531 6.20343 14.4401 3.9375 11.72 3.9375C8.99995 3.9375 6.78689 6.20343 6.78689 8.98846C6.78689 10.7274 7.64958 12.2639 8.95989 13.1728C7.95789 13.5467 7.03064 14.1248 6.23287 14.8857C5.07761 15.9873 4.27536 17.3919 3.90339 18.9333C2.32805 17.0739 1.37344 14.649 1.37344 12C1.37344 6.15857 6.01487 1.40625 11.72 1.40625C17.4251 1.40625 22.0666 6.15857 22.0666 12C22.0666 14.6495 21.1116 17.075 19.5357 18.9344V18.9344Z" fill="#3554C4"/>
</svg>
