<svg width="303" height="289" viewBox="0 0 303 289" fill="none" xmlns="http://www.w3.org/2000/svg">
<path d="M163.915 288.79C240.71 288.79 302.965 286.131 302.965 282.852C302.965 279.572 240.71 276.914 163.915 276.914C87.1198 276.914 24.865 279.572 24.865 282.852C24.865 286.131 87.1198 288.79 163.915 288.79Z" fill="#284577"/>
<path d="M175.999 107.909L140.71 117.579L93.194 111.735C93.194 111.735 88.8228 116.687 89.6527 122.101C89.6527 122.101 128.825 133.972 145.653 132.756C162.482 131.54 187.005 125.279 188.811 121.427C191.345 116.021 186.69 111.517 183.086 109.01C181.023 107.572 178.405 107.186 175.999 107.914V107.909Z" fill="#7B42D0"/>
<path d="M194.434 281.13C195.965 280.411 196.129 279.031 196.755 277.704C196.795 277.615 197.003 275.729 197.003 275.578C196.994 274.93 203.571 272.969 203.5 274.083C203.287 277.393 204.663 282.617 203.443 283.012C200.838 283.846 188.62 285.049 188.354 283.77C188.194 283.003 191.784 282.368 194.434 281.13Z" fill="#A56CFB"/>
<path d="M284.735 279.994C285.551 278.512 284.672 277.722 284.397 276.279C284.379 276.182 281.721 272.481 281.628 272.361C281.238 271.842 285.817 266.969 286.363 267.941C288.431 271.602 291.573 272.623 291.467 274.833C291.396 276.328 288.893 280.837 286.061 283.158C283.727 285.071 279.813 284.188 279.604 283.637C279.329 282.905 283.314 282.555 284.726 279.994H284.735Z" fill="#A56CFB"/>
<path d="M191.549 172.337C191.549 172.337 163.436 199.576 162.291 211.842C160.698 228.875 191.9 276.914 191.9 276.914L205.316 276.049L184.684 214.212L211.333 186.609C211.333 186.609 228.179 218.304 234.206 226.505C244.075 239.938 277.008 276.075 277.008 276.075L289.993 267.04L254.185 214.216C254.185 214.216 243.982 186.116 241.009 178.239C238.315 171.094 230.274 151.519 230.274 151.519L191.754 156.982L191.545 172.346L191.549 172.337Z" fill="#A46E62"/>
<path d="M235.288 163.808C226.453 163.808 205.009 163.932 201.02 165.135C195.969 166.657 190.28 177.556 190.28 177.556C190.28 177.556 206.305 179.5 218.03 178.87C226.444 178.417 235.706 177.023 240.259 176.278C238.963 172.941 237.072 168.228 235.284 163.812L235.288 163.808Z" fill="#513C39"/>
<path d="M185.243 177.143C185.243 177.143 194.061 179.087 203.27 177.658C204.091 177.529 203.971 166.315 204.81 166.168C206.092 165.947 208.963 177.756 210.281 177.658C220.018 176.926 234.05 174.76 240.259 168.094C240.259 168.094 225.29 124.293 216.179 113.381C207.068 102.468 193.79 99.113 183.406 104.283C175.001 108.468 168.832 110.012 169.857 118.648C170.727 125.997 176.132 131.509 182.634 143.997C185.305 149.132 185.239 177.143 185.239 177.143H185.243Z" fill="#A183E2"/>
<path d="M183.495 106.618C183.495 106.618 184.391 104.567 187.813 103.303C191.234 102.038 193.444 102.987 194.811 106.089C196.178 109.196 202.098 129.441 202.098 144.938C202.098 144.938 180.251 114.734 183.495 106.618Z" fill="#EAEAEA"/>
<path d="M285.538 266.752C285.405 266.752 285.276 266.69 285.192 266.574C285.12 266.472 278.038 256.443 274.874 252.711C272.996 250.496 268.044 243.52 263.251 236.774C259.807 231.928 256.559 227.353 254.708 224.908C251.726 220.967 250.674 218.961 249.343 216.422C248.704 215.207 247.98 213.826 246.946 212.056C244.745 208.292 243.982 204.813 243.103 200.788C242.699 198.951 242.287 197.047 241.696 194.935C239.837 188.273 232.515 175.111 232.439 174.978C232.324 174.774 232.399 174.516 232.603 174.405C232.808 174.29 233.065 174.365 233.176 174.569C233.478 175.111 240.623 187.949 242.509 194.708C243.103 196.843 243.525 198.756 243.929 200.606C244.794 204.565 245.54 207.982 247.679 211.63C248.726 213.418 249.454 214.807 250.097 216.032C251.411 218.539 252.449 220.514 255.387 224.402C257.247 226.856 260.499 231.44 263.948 236.291C268.732 243.023 273.675 249.981 275.526 252.169C278.712 255.928 285.817 265.988 285.888 266.091C286.021 266.281 285.977 266.543 285.786 266.676C285.711 266.73 285.626 266.752 285.542 266.752H285.538Z" fill="#513C39"/>
<path d="M179.656 221.229C179.505 221.229 179.359 221.18 179.23 221.082C178.933 220.847 178.884 220.417 179.119 220.119L184.147 213.787C184.382 213.489 184.813 213.44 185.11 213.676C185.407 213.911 185.456 214.341 185.221 214.639L180.193 220.971C180.06 221.14 179.86 221.229 179.656 221.229Z" fill="#513C39"/>
<path d="M211.338 187.293C211.151 187.293 210.96 187.217 210.827 187.062C208.808 184.794 203.629 181.364 203.58 181.328C203.265 181.12 203.176 180.694 203.385 180.379C203.594 180.064 204.02 179.975 204.335 180.183C204.552 180.33 209.709 183.747 211.848 186.148C212.101 186.432 212.074 186.862 211.79 187.115C211.662 187.231 211.497 187.288 211.333 187.288L211.338 187.293Z" fill="#513C39"/>
<path d="M199.537 273.226C199.355 273.226 199.187 273.106 199.133 272.92C199.08 272.738 194.012 254.747 192.472 251.024C192.361 250.758 181.506 224.277 181.75 220.518C181.839 219.182 181.688 217.975 181.542 216.804C181.329 215.1 181.147 213.631 181.79 212.317C182.208 211.47 183.432 209.357 184.857 206.916C186.907 203.397 189.455 199.017 190.573 196.692C192.494 192.693 203.256 185.167 203.713 184.847C203.904 184.714 204.166 184.763 204.299 184.954C204.432 185.144 204.383 185.406 204.193 185.539C204.082 185.615 193.156 193.257 191.332 197.06C190.2 199.416 187.644 203.81 185.585 207.342C184.169 209.77 182.949 211.869 182.545 212.69C182.012 213.782 182.181 215.135 182.372 216.702C182.514 217.851 182.678 219.156 182.585 220.572C182.385 223.643 191.083 245.463 193.244 250.7C194.802 254.468 199.728 271.948 199.937 272.689C199.999 272.911 199.87 273.146 199.644 273.208C199.604 273.217 199.568 273.226 199.528 273.226H199.537Z" fill="#513C39"/>
<path d="M177.069 87.4594C177.885 85.9106 180.548 83.3367 186.614 85.9994C190.591 87.7435 188.057 95.9135 186.131 97.3868C184.626 98.5362 182.163 94.0008 180.632 91.4268C179.221 91.5777 178.023 91.56 177.637 91.1517C176.505 89.949 176.518 88.5112 177.069 87.4639V87.4594Z" fill="#AC4000"/>
<path d="M185.381 93.0732L190.852 102.144C191.571 103.609 192.561 105.459 188.54 106.995C185.394 108.197 184.653 107.345 184.497 105.548L183.162 95.9667L185.385 93.0732H185.381Z" fill="#FFA299"/>
<path d="M135.384 194.553C136.045 162.423 121.689 133.906 99.5045 117.295L99.8018 102.965L83.1112 102.619C38.2538 101.7 1.05602 141.61 0.0220117 191.761C-1.012 241.918 34.5127 283.322 79.3702 284.246L96.0608 284.587L96.3581 270.258C119.208 254.579 134.727 226.674 135.389 194.544L135.384 194.553Z" fill="#3554C4"/>
<path d="M179.353 195.456C180.386 145.301 144.861 103.893 100.006 102.969C55.1513 102.045 17.9517 141.955 16.9187 192.11C15.8856 242.266 51.4102 283.673 96.2651 284.597C141.12 285.521 178.32 245.611 179.353 195.456Z" fill="#4B7BFF"/>
<path d="M96.4868 273.768C57.6737 272.969 26.8397 236.437 27.745 192.334C28.6548 148.231 60.971 113.004 99.7841 113.802C138.597 114.601 169.431 151.133 168.526 195.236C167.616 239.339 135.3 274.571 96.4868 273.768ZM99.682 118.799C63.6248 118.058 33.5985 151.089 32.7464 192.436C31.8944 233.783 60.536 268.025 96.5933 268.771C132.651 269.512 162.677 236.481 163.529 195.134C164.381 153.787 135.739 119.545 99.682 118.804V118.799Z" fill="white"/>
<path d="M93.092 241.065L93.3316 229.412C86.3909 229.154 79.2549 226.927 75.1233 223.958L78.1543 216.285C82.4057 219.143 88.5832 221.464 95.2887 221.601C103.787 221.774 109.627 217.163 109.765 210.586C109.894 204.24 105.309 200.22 96.5224 196.576C84.4116 191.708 76.9783 186.245 77.1869 176.207C77.3821 166.63 84.5936 159.507 95.6437 158.003L95.8834 146.349L103.303 146.5L103.073 157.692C110.249 158.069 115.117 160.018 118.547 162.05L115.396 169.603C112.911 168.165 108.056 165.525 100.397 165.37C91.1793 165.179 87.6024 170.415 87.5048 175.031C87.3805 181.031 91.7473 184.124 102.074 188.491C114.3 193.59 120.402 199.718 120.189 209.987C120.003 219.103 113.244 227.503 100.876 229.212L100.627 241.212L93.0876 241.057L93.092 241.065Z" fill="white"/>
<path d="M183.428 97.8929C183.85 97.5423 184.333 97.1296 184.755 96.7701C185.27 96.3308 186.162 96.921 186.321 97.8219C186.49 98.776 186.566 99.9875 186.273 101.217C185.931 102.646 185.185 103.609 184.302 104.15L183.428 97.8929Z" fill="#C96C67"/>
<path d="M183.406 90.0999L186.268 94.9815C187.085 96.6634 186.415 98.6959 184.755 99.5524C183.428 100.24 181.591 100.955 179.754 100.662C177.779 100.347 178.036 99.4814 177.61 97.511C177.056 94.9549 177.273 92.4431 177.459 91.1073C177.894 88.0585 181.303 87.0467 183.402 90.0955L183.406 90.0999Z" fill="#FFA299"/>
<path d="M181.968 89.0795C181.968 89.0795 183.761 90.1889 184.178 91.7111C184.467 92.7584 184.347 93.2688 184.755 93.4774C185.163 93.6859 185.771 92.7673 185.509 91.68C185.248 90.5928 183.943 87.9789 181.964 89.0795H181.968Z" fill="#AC4000"/>
<path d="M185.452 92.7225C185.594 92.403 185.687 92.0657 185.758 91.7196C185.895 91.0672 186.251 90.1308 187.12 90.8098C188.381 91.7995 187.458 95.2343 185.793 95.1589C184.555 95.1012 185.092 93.5258 185.456 92.7225H185.452Z" fill="#FFA299"/>
<path d="M178.516 88.3912C178.516 88.3912 183.783 91.4134 184.365 91.2003C184.946 90.9873 184.773 88.1915 183.437 87.4282C182.101 86.6693 177.743 86.372 178.52 88.3912H178.516Z" fill="#D65A11"/>
<path d="M186.907 106.289C186.907 106.289 190.546 102.419 190.733 101.856C190.919 101.296 192.139 103.387 192.166 103.498C192.193 103.604 191.54 106.329 191.278 106.764C191.017 107.199 188.669 108.987 188.563 108.978C188.456 108.969 187.227 107.416 187.134 107.651C187.04 107.887 185.949 109.582 185.589 109.373C185.23 109.165 183.929 105.805 184.067 105.623C184.205 105.446 184.333 104.394 184.333 104.394L186.907 106.289Z" fill="white"/>
<path d="M117.145 113.989C117.145 113.989 114.775 108.148 113.439 107.106C109.503 104.035 107.519 104.008 106.436 103.604C104.67 102.947 103.938 103.373 104.399 103.955C104.861 104.54 105.868 105.171 105.868 105.171C105.868 105.171 104.084 104.718 103.561 105.313C103.055 105.885 103.681 106.693 103.681 106.693C103.681 106.693 102.984 107.292 103.388 107.816C103.791 108.344 106.641 109.453 106.587 109.679C106.525 109.95 105.349 109.586 104.843 109.231C104.333 108.876 103.734 109.018 103.88 109.466C104.031 109.915 105.429 110.585 106.791 111.441C108.158 112.302 113.209 116.789 113.888 115.981C114.132 115.688 117.14 113.984 117.14 113.984L117.145 113.989Z" fill="#FFA299"/>
<path d="M198.707 104.505L163.418 114.175L115.907 108.331C115.907 108.331 111.535 113.283 112.365 118.697C112.365 118.697 151.538 130.569 168.366 129.353C185.194 128.137 209.718 121.875 211.524 118.023C214.058 112.618 209.403 108.113 205.799 105.606C203.735 104.168 201.117 103.782 198.712 104.51L198.707 104.505Z" fill="#A183E2"/>
<path d="M166.995 121.493C166.724 121.493 166.462 121.351 166.325 121.094L162.743 114.544C162.539 114.175 162.677 113.709 163.05 113.51C163.418 113.305 163.884 113.443 164.088 113.816L167.669 120.366C167.874 120.734 167.736 121.2 167.363 121.404C167.248 121.467 167.124 121.498 166.999 121.498L166.995 121.493Z" fill="#8748E6"/>
<path d="M173.802 129.583C173.425 129.583 173.092 129.299 173.044 128.913C172.99 128.496 173.288 128.114 173.705 128.061C173.913 128.034 194.46 125.407 205.036 120.952C205.426 120.787 205.87 120.969 206.034 121.36C206.198 121.75 206.016 122.194 205.626 122.358C194.855 126.894 174.743 129.468 173.891 129.574C173.86 129.574 173.825 129.579 173.794 129.579L173.802 129.583Z" fill="#8748E5"/>
<path d="M204.809 166.932C204.397 166.932 204.055 166.603 204.046 166.186C203.9 159.973 201.37 145.217 201.344 145.067C201.273 144.649 201.552 144.254 201.969 144.183C202.382 144.112 202.781 144.392 202.852 144.805C202.959 145.417 205.426 159.822 205.577 166.146C205.586 166.568 205.253 166.918 204.832 166.927H204.814L204.809 166.932Z" fill="#8748E5"/>
<path d="M178.533 94.4978C178.533 94.4978 177.783 94.3424 177.273 94.764C176.762 95.1856 177.153 96.7034 177.273 97.2181C177.393 97.7285 177.109 100.351 177.761 101.336C178.413 102.322 181.196 102.046 183.264 101.159C185.332 100.271 186.153 98.8557 186.361 98.0658C186.57 97.2758 185.629 93.2507 185.292 92.8691C184.955 92.4874 184.502 92.6605 184.462 93.0777C184.422 93.4948 183.987 94.9238 183.428 95.1634C182.869 95.4031 181.608 94.5555 181.036 94.4978C180.464 94.4401 179.341 94.6353 178.533 94.4978Z" fill="#D65A11"/>
<path d="M179.323 94.3203C178.937 94.2537 178.599 94.1117 178.289 93.8765C178.054 93.699 177.823 94.0984 178.058 94.2715C178.395 94.5244 178.786 94.6931 179.203 94.7597C179.491 94.8085 179.616 94.3647 179.327 94.3159L179.323 94.3203Z" fill="#C66C67"/>
<path d="M180.916 91.8309C180.867 91.822 180.712 91.7909 180.632 91.9729C180.574 92.106 180.543 92.2791 180.574 92.43C180.605 92.6075 180.796 92.7007 180.956 92.6341C181.178 92.5365 181.253 91.8797 180.916 91.8353V91.8309Z" fill="#434A59"/>
<path d="M177.903 91.9993C177.854 91.9905 177.699 91.9594 177.619 92.1414C177.561 92.2745 177.53 92.4476 177.561 92.5984C177.592 92.776 177.783 92.8692 177.943 92.8026C178.165 92.705 178.24 92.0482 177.903 92.0038V91.9993Z" fill="#434A59"/>
<path d="M180.179 90.921C180.384 90.7923 180.752 90.7878 180.969 90.8722C181.196 90.9609 181.462 91.134 181.577 91.3603C181.6 91.3825 181.608 91.4091 181.613 91.4358C181.631 91.489 181.613 91.529 181.577 91.5511C181.533 91.6044 181.458 91.6355 181.373 91.5866C181.04 91.4003 180.619 91.2804 180.246 91.2316C180.064 91.2094 180.042 90.9609 180.179 90.921Z" fill="#AC4000"/>
<path d="M177.259 91.2451C177.259 91.2451 177.281 91.2273 177.295 91.2185C177.392 91.1696 177.508 91.0898 177.628 91.0232C177.636 91.0187 177.645 91.0099 177.654 91.0099C177.654 91.0099 177.659 91.0099 177.663 91.0099C177.841 90.9167 178.027 90.8723 178.178 91.0276C178.196 91.0498 178.204 91.072 178.209 91.0942C178.249 91.1785 178.227 91.2983 178.116 91.3294C177.863 91.396 177.605 91.4625 177.357 91.5557C177.175 91.6223 177.099 91.3383 177.259 91.2495V91.2451Z" fill="#AC4000"/>
<path d="M177.761 95.5054L181.87 95.3013C181.87 95.3013 180.947 97.3782 179.345 97.3826C177.739 97.3826 177.761 95.5054 177.761 95.5054Z" fill="white"/>
<path d="M185.576 98.1411C184.915 98.8112 181.489 100.289 179.487 100.311C178.156 100.325 177.574 99.8319 177.33 99.4991C177.375 100.214 177.481 100.919 177.756 101.332C178.409 102.317 181.191 102.042 183.259 101.154C185.327 100.267 186.148 98.8512 186.357 98.0612C186.406 97.8793 186.392 97.5287 186.339 97.0894C186.162 97.4044 185.904 97.8038 185.571 98.1411H185.576Z" fill="#AC4000"/>
<path d="M77.2325 20.9059C77.2325 20.9059 67.2607 12.3978 65.8181 14.3662C64.3756 16.3346 69.9285 29.7618 72.3762 28.7344C74.8247 27.7114 79.1702 22.4903 77.2325 20.9059Z" fill="#FF5781"/>
<path d="M59.5997 42.7628C59.4244 42.0601 60.756 41.1767 62.2963 40.3878C65.1792 38.9079 67.5346 38.3059 68.2458 35.1794C70.31 26.0894 76.5553 15.2445 93.8271 10.8306C111.805 6.23625 129.353 14.5567 133.036 29.4806C134.389 34.9716 133.682 40.5855 131.346 45.721L132.912 61.6973C133.013 62.8489 132.247 63.9188 131.111 64.2116L128.029 65.0027C126.892 65.2954 125.721 64.7265 125.279 63.6604L122.453 56.1673C118.216 59.7429 113.189 62.6877 107.214 64.2232C105.577 64.6421 103.732 64.9169 102.109 65.1295L102.653 68.3334C102.83 69.5287 102.291 71.626 101.102 71.9291L97.7961 72.7781C96.8147 73.0311 95.7929 72.6453 95.2436 71.813L91.6282 65.7292C85.3411 64.775 81.0592 63.3922 76.0184 60.2551C73.4333 58.6451 71.4737 56.6986 68.4817 57.4672C68.4817 57.4672 63.5249 58.4574 63.3497 57.7547L59.5953 42.7636L59.5997 42.7628Z" fill="#FF5781"/>
<path d="M72.9954 29.8062C73.5511 27.8822 74.8392 26.0936 76.4622 24.8992C76.7463 24.6892 77.1829 24.8606 77.3407 25.1325C77.5324 25.461 77.3681 25.7966 77.0883 26.0058C75.746 26.9953 74.6916 28.5702 74.2306 30.1498C73.9984 30.9423 72.7632 30.5986 72.9946 29.8019L72.9954 29.8062Z" fill="white"/>
<path d="M72.1806 32.1341C72.2286 32.0567 72.2766 31.9794 72.3247 31.902C72.4102 31.7629 72.5636 31.6466 72.723 31.606C72.878 31.5663 73.0764 31.5858 73.2111 31.6723C73.3511 31.7622 73.4683 31.8973 73.501 32.0628C73.5338 32.2282 73.5178 32.3987 73.4252 32.5483C73.3772 32.6256 73.3292 32.703 73.2855 32.7795C73.1999 32.9186 73.0465 33.0349 72.8872 33.0755C72.7322 33.1152 72.5338 33.0957 72.399 33.0092C72.2591 32.9193 72.1419 32.7842 72.1091 32.6187C72.0764 32.4533 72.0924 32.2828 72.1849 32.1332L72.1806 32.1341Z" fill="white"/>
<path d="M114.635 14.7061C114.441 14.7536 114.232 14.7271 114.051 14.6092C114.045 14.6057 113.132 14.0356 111.165 13.5155C109.342 13.035 106.222 12.4944 101.692 12.6716C92.8977 13.0144 85.0984 17.1278 85.0208 17.1703C84.6566 17.3645 84.2087 17.227 84.0145 16.8628C83.8202 16.4986 83.9578 16.0506 84.322 15.8564C84.4039 15.8131 86.3894 14.7596 89.5222 13.6509C92.4137 12.6262 96.861 11.3704 101.638 11.185C110.832 10.8264 114.706 13.258 114.867 13.3619C115.214 13.5828 115.31 14.0477 115.088 14.3902C114.981 14.5562 114.822 14.6647 114.645 14.7087L114.635 14.7061Z" fill="#000F2B"/>
<path d="M72.2609 39.0309C72.5518 40.2038 73.3971 41.0001 74.1503 40.8058C74.9035 40.6115 75.2765 39.5017 74.9855 38.3288C74.6946 37.1559 73.8493 36.3596 73.0961 36.5539C72.3429 36.7482 71.9699 37.858 72.2609 39.0309Z" fill="#000F2B"/>
<path d="M123.945 19.2965C123.945 19.2965 124.021 16.8928 126.299 16.4282C128.579 15.968 131.002 19.1121 129.547 20.9291C128.093 22.746 126.427 23.4286 123.944 19.2922L123.945 19.2965Z" fill="#FF5781"/>
<path d="M78.1111 19.7455C78.1111 19.7455 82.9389 7.43038 85.1249 8.46346C87.3108 9.49653 88.6536 24.0058 86.0229 24.2913C83.3922 24.5768 77.1395 22.0821 78.1119 19.7499L78.1111 19.7455Z" fill="#FF5781"/>
<path d="M108.897 52.3405L108.106 49.2579C106.228 49.6885 104.15 49.6112 102.823 49.1273L103.073 46.8928C104.424 47.3402 106.249 47.5084 108.061 47.0637C110.352 46.5017 111.58 44.8697 111.136 43.1299C110.705 41.451 109.18 40.7213 106.56 40.394C102.954 39.9813 100.558 39.0757 99.879 36.4234C99.2286 33.892 100.642 31.4997 103.496 30.3104L102.705 27.2279L104.707 26.7366L105.465 29.699C107.419 29.2851 108.867 29.4464 109.938 29.7366L109.647 31.9475C108.874 31.7476 107.381 31.4008 105.314 31.9093C102.829 32.5188 102.253 34.153 102.563 35.3765C102.968 36.9656 104.369 37.4619 107.458 37.8727C111.111 38.3395 113.198 39.5143 113.895 42.2311C114.512 44.6423 113.313 47.3362 110.121 48.6736L110.935 51.8467L108.902 52.344L108.897 52.3405Z" fill="white"/>
<path d="M198.857 45.1999L183.304 41.2652C182.156 40.9754 180.911 41.9303 180.543 43.3868C180.176 44.8432 180.815 46.2774 181.963 46.5672C182.078 46.597 182.078 46.7939 181.963 46.8608C181.331 47.2174 180.807 47.9048 180.588 48.7668C180.22 50.2233 180.859 51.6575 182.007 51.9473L182.453 52.0587C182.568 52.0885 182.568 52.2854 182.453 52.3485C181.822 52.7052 181.298 53.3926 181.079 54.2546C180.711 55.7111 181.35 57.1452 182.498 57.435L191.865 59.8055C193.013 60.0953 194.257 59.1405 194.625 57.684C194.844 56.822 194.707 55.9674 194.324 55.3544C194.254 55.2429 194.347 55.0683 194.462 55.098L194.908 55.2095C196.056 55.4993 197.3 54.5444 197.668 53.0879C197.887 52.2259 197.75 51.3714 197.367 50.7583C197.297 50.6468 197.39 50.4722 197.505 50.5019C198.653 50.7955 199.898 49.8406 200.265 48.3804C200.633 46.9239 199.994 45.4897 198.846 45.1999H198.857Z" fill="#EAEAEA"/>
<path d="M208.592 19.6893C206.363 16.0072 202.826 13.4287 198.642 12.4329C190.182 10.4154 181.58 15.6431 179.474 24.0847C178.601 27.5773 178.942 31.3002 180.432 34.5661C181.313 36.4982 181.811 38.486 181.907 40.4737C181.933 40.9642 182.279 41.3655 182.732 41.4806C182.829 41.5066 197.238 45.1367 198.988 45.5491C199.5 45.8426 200.158 45.6754 200.463 45.1664C201.495 43.461 202.874 41.9525 204.561 40.6818C207.448 38.5045 209.525 35.3724 210.413 31.8649C211.468 27.6924 210.821 23.3676 208.592 19.6893Z" fill="#FFD766"/>
<path d="M182.502 57.4388C182.502 57.4388 181.636 61.8045 186.035 63.1866C190.431 64.5688 191.869 59.8055 191.869 59.8055L182.502 57.4351V57.4388Z" fill="#54678C"/>
<path d="M188.517 54.3141C185.486 53.5487 183.178 52.631 183.141 52.6161C182.992 52.5567 182.922 52.3895 182.981 52.2409C183.041 52.0923 183.208 52.0217 183.357 52.0811C183.409 52.1034 188.536 54.1358 193.511 54.6522C193.671 54.6671 193.786 54.812 193.767 54.968C193.752 55.1278 193.608 55.243 193.452 55.2244C191.757 55.0498 190.044 54.7005 188.517 54.3141Z" fill="#BAB9B9"/>
<path d="M189.914 49.4543C185.849 48.4251 182.725 47.303 182.676 47.2845C182.528 47.2287 182.45 47.0652 182.502 46.9129C182.557 46.7643 182.721 46.6863 182.873 46.7383C182.944 46.7643 189.925 49.2685 196.583 50.2086C196.739 50.2308 196.851 50.3758 196.829 50.5355C196.806 50.6953 196.661 50.803 196.502 50.7807C194.25 50.4649 191.961 49.9708 189.914 49.4506V49.4543Z" fill="#BAB9B9"/>
<path d="M187.878 42.9967C187.782 42.9744 187.715 42.8852 187.718 42.7812C187.718 42.7403 187.934 38.5418 188.227 34.3545C188.829 25.7717 189.16 25.5933 189.357 25.4856C189.654 25.3258 189.97 25.6528 190.074 25.7605C190.657 26.3699 191.415 27.804 191.876 29.1788C192.236 28.5583 192.664 28.0418 193.143 27.6666C195.008 26.1915 196.145 26.4107 196.658 26.6745C197.308 27.0052 197.657 27.7334 197.616 28.6698C197.613 28.7664 197.609 28.8704 197.602 28.9781C197.583 29.424 197.564 29.8587 197.538 30.2786C198.088 29.8067 198.835 29.2977 199.705 29.0525C200.359 28.8667 200.842 28.9298 201.135 29.2382C201.815 29.9516 201.232 31.7016 200.763 33.1061C200.697 33.303 200.637 33.4887 200.585 33.6522C200.08 35.2648 194.715 44.1225 194.488 44.5015C194.429 44.6018 194.299 44.6315 194.198 44.5721C194.098 44.5126 194.068 44.3826 194.128 44.2823C194.183 44.1894 199.693 35.0938 200.184 33.5259C200.236 33.3587 200.299 33.1692 200.366 32.9723C200.73 31.8837 201.336 30.0594 200.83 29.528C200.652 29.3423 200.31 29.3163 199.816 29.4574C198.976 29.6952 198.159 30.2488 197.494 30.8916C197.371 32.4781 197.141 33.734 196.591 34.0721C196.409 34.1873 196.201 34.1947 195.989 34.1018C195.684 33.9681 195.536 33.6745 195.562 33.2807C195.606 32.6528 196.112 31.7425 196.881 30.9102C196.94 30.8433 197.011 30.7727 197.089 30.6947C197.133 30.0742 197.159 29.4612 197.182 28.9596C197.185 28.8518 197.189 28.7478 197.193 28.6512C197.226 27.8858 196.959 27.3025 196.465 27.0461C195.748 26.6783 194.629 27.0238 193.403 27.9935C192.838 28.4394 192.389 29.0673 192.051 29.7435C192.348 30.8099 192.593 32.3072 192.021 33.2695C191.857 33.5482 191.601 33.9123 191.282 33.8714C191.152 33.8529 190.984 33.7637 190.895 33.4405C190.739 32.872 190.862 31.7833 191.196 30.7281C191.311 30.3677 191.445 30.0259 191.597 29.7027C191.397 29.0264 191.129 28.3428 190.825 27.7223C190.249 26.5408 189.751 25.9686 189.565 25.8757C189.431 26.1692 189.115 27.6517 188.632 34.5997C188.346 38.709 188.142 42.7626 188.138 42.8035C188.131 42.9187 188.034 43.0078 187.919 43.0041C187.904 43.0041 187.889 43.0041 187.878 42.9967ZM191.776 30.3714C191.43 31.2483 191.263 32.14 191.252 32.7791C191.244 33.1952 191.311 33.3884 191.348 33.4442C191.389 33.4182 191.493 33.3364 191.661 33.054C192.028 32.4335 192.014 31.4415 191.776 30.3677V30.3714ZM197.033 31.3821C196.424 32.088 196.023 32.8237 195.985 33.3104C195.963 33.6299 196.108 33.6931 196.164 33.7154C196.271 33.7637 196.331 33.7414 196.376 33.7154C196.52 33.6262 196.792 33.2658 196.977 31.8651C197 31.709 197.018 31.5455 197.033 31.3821Z" fill="white"/>
</svg>
