<svg width="49" height="61" viewBox="0 0 49 61" fill="none" xmlns="http://www.w3.org/2000/svg">
<path d="M48.2223 36.0696V10.5664H0.0539551V36.0696C0.0539551 42.4571 2.59138 48.583 7.10805 53.0997C11.6247 57.6163 17.7506 60.1538 24.1381 60.1538C30.5257 60.1538 36.6516 57.6163 41.1682 53.0997C45.6849 48.583 48.2223 42.4571 48.2223 36.0696" fill="#001A33"/>
<path d="M24.1381 24.8065C26.5912 24.8065 28.9893 24.079 31.029 22.7161C33.0687 21.3533 34.6584 19.4161 35.5972 17.1497C36.536 14.8833 36.7816 12.3895 36.303 9.98348C35.8244 7.57749 34.6431 5.36745 32.9085 3.63283C31.1739 1.89821 28.9638 0.716913 26.5578 0.238331C24.1519 -0.24025 21.658 0.00537036 19.3916 0.944141C17.1252 1.88291 15.1881 3.47267 13.8252 5.51237C12.4623 7.55207 11.7349 9.95011 11.7349 12.4032C11.7357 15.6925 13.0427 18.8468 15.3686 21.1727C17.6945 23.4986 20.8488 24.8056 24.1381 24.8065" fill="#1F318C"/>
<path d="M24.1381 36.1873C26.5909 36.1873 28.9887 35.46 31.0283 34.0974C33.0678 32.7348 34.6576 30.7981 35.5966 28.5321C36.5355 26.2661 36.7815 23.7725 36.3035 21.3667C35.8254 18.9609 34.6447 16.7508 32.9108 15.0159C31.1768 13.2811 28.9673 12.0993 26.5617 11.62C24.1562 11.1407 21.6625 11.3854 19.396 12.3232C17.1295 13.261 15.1919 14.8497 13.8283 16.8886C12.4646 18.9274 11.7361 21.3248 11.7349 23.7777C11.734 25.4071 12.0542 27.0206 12.6772 28.5262C13.3001 30.0317 14.2136 31.3998 15.3654 32.5522C16.5173 33.7047 17.8849 34.6188 19.3901 35.2426C20.8954 35.8663 22.5087 36.1873 24.1381 36.1873" fill="#3554C4"/>
<path d="M24.1381 48.1014C26.5912 48.1014 28.9893 47.3739 31.029 46.0111C33.0687 44.6482 34.6584 42.7111 35.5972 40.4447C36.536 38.1783 36.7816 35.6844 36.303 33.2784C35.8244 30.8724 34.6431 28.6624 32.9085 26.9277C31.1739 25.1931 28.9638 24.0118 26.5578 23.5333C24.1519 23.0547 21.658 23.3003 19.3916 24.2391C17.1252 25.1778 15.1881 26.7676 13.8252 28.8073C12.4623 30.847 11.7349 33.245 11.7349 35.6982C11.7349 38.9877 13.0416 42.1425 15.3677 44.4686C17.6937 46.7946 20.8486 48.1014 24.1381 48.1014Z" fill="#4E76E5"/>
</svg>
