<svg width="49" height="61" viewBox="0 0 49 61" fill="none" xmlns="http://www.w3.org/2000/svg">
<path d="M48.1684 36.0696V10.5664H0V36.0696C0 42.4571 2.53743 48.583 7.05409 53.0997C11.5708 57.6163 17.6967 60.1538 24.0842 60.1538C30.4717 60.1538 36.5976 57.6163 41.1143 53.0997C45.6309 48.583 48.1684 42.4571 48.1684 36.0696" fill="white"/>
<path d="M24.0841 24.8065C26.5373 24.8065 28.9353 24.079 30.975 22.7161C33.0147 21.3533 34.6045 19.4161 35.5432 17.1497C36.482 14.8833 36.7276 12.3895 36.249 9.98348C35.7705 7.57749 34.5892 5.36745 32.8545 3.63283C31.1199 1.89821 28.9099 0.716913 26.5039 0.238331C24.0979 -0.24025 21.604 0.00537036 19.3376 0.944141C17.0712 1.88291 15.1341 3.47267 13.7712 5.51237C12.4083 7.55207 11.6809 9.95011 11.6809 12.4032C11.6818 15.6925 12.9888 18.8468 15.3147 21.1727C17.6405 23.4986 20.7949 24.8056 24.0841 24.8065" fill="#1F318C"/>
<path d="M24.0841 36.1873C26.537 36.1873 28.9348 35.46 30.9743 34.0974C33.0139 32.7348 34.6036 30.7981 35.5426 28.5321C36.4816 26.2661 36.7276 23.7725 36.2495 21.3667C35.7714 18.9609 34.5908 16.7508 32.8568 15.0159C31.1228 13.2811 28.9134 12.0993 26.5078 11.62C24.1022 11.1407 21.6086 11.3854 19.3421 12.3232C17.0756 13.261 15.138 14.8497 13.7743 16.8886C12.4107 18.9274 11.6822 21.3248 11.6809 23.7777C11.6801 25.4071 12.0003 27.0206 12.6232 28.5262C13.2462 30.0317 14.1596 31.3998 15.3115 32.5522C16.4633 33.7047 17.8309 34.6188 19.3362 35.2426C20.8414 35.8663 22.4548 36.1873 24.0841 36.1873" fill="#3554C4"/>
<path d="M24.0841 48.1014C26.5373 48.1014 28.9353 47.3739 30.975 46.0111C33.0147 44.6482 34.6045 42.7111 35.5432 40.4447C36.482 38.1783 36.7276 35.6844 36.249 33.2784C35.7705 30.8724 34.5892 28.6624 32.8545 26.9277C31.1199 25.1931 28.9099 24.0118 26.5039 23.5333C24.0979 23.0547 21.604 23.3003 19.3376 24.2391C17.0712 25.1778 15.1341 26.7676 13.7712 28.8073C12.4083 30.847 11.6809 33.245 11.6809 35.6982C11.6809 38.9877 12.9877 42.1425 15.3137 44.4686C17.6398 46.7946 20.7946 48.1014 24.0841 48.1014Z" fill="#4E76E5"/>
</svg>
